<svg xmlns="http://www.w3.org/2000/svg" xmlns:xlink="http://www.w3.org/1999/xlink" contentStyleType="text/css" height="621px" preserveAspectRatio="none" style="width:621px;height:621px;background:#FFFFFF;" version="1.1" viewBox="0 0 621 621" width="621px" zoomAndPan="magnify"><defs/><g><!--entity eve_CRCHereditarySyndrome--><g id="elem_eve_CRCHereditarySyndrome"><a href="#eve-CRCHereditarySyndrome" target="_top" title="#eve-CRCHereditarySyndrome" xlink:actuate="onRequest" xlink:href="#eve-CRCHereditarySyndrome" xlink:show="new" xlink:title="#eve-CRCHereditarySyndrome" xlink:type="simple"><polygon fill="#A4DBD8" points="604,43.98,536,6,400,6,332,43.98,400,81.95,536,81.95,604,43.98" style="stroke:#FF0000;stroke-width:1.0;"/><text fill="#000000" font-family="sans-serif" font-size="14" lengthAdjust="spacing" textLength="59" x="406.5" y="24.5352">Personal</text><text fill="#000000" font-family="sans-serif" font-size="14" lengthAdjust="spacing" textLength="4" x="465.5" y="24.5352">&#160;</text><text fill="#000000" font-family="sans-serif" font-size="14" lengthAdjust="spacing" textLength="15" x="469.5" y="24.5352">or</text><text fill="#000000" font-family="sans-serif" font-size="14" lengthAdjust="spacing" textLength="4" x="484.5" y="24.5352">&#160;</text><text fill="#000000" font-family="sans-serif" font-size="14" lengthAdjust="spacing" textLength="41" x="488.5" y="24.5352">family</text><text fill="#000000" font-family="sans-serif" font-size="14" lengthAdjust="spacing" textLength="47" x="400" y="41.0234">history</text><text fill="#000000" font-family="sans-serif" font-size="14" lengthAdjust="spacing" textLength="4" x="447" y="41.0234">&#160;</text><text fill="#000000" font-family="sans-serif" font-size="14" lengthAdjust="spacing" textLength="14" x="451" y="41.0234">of</text><text fill="#000000" font-family="sans-serif" font-size="14" lengthAdjust="spacing" textLength="4" x="465" y="41.0234">&#160;</text><text fill="#000000" font-family="sans-serif" font-size="14" lengthAdjust="spacing" textLength="67" x="469" y="41.0234">colorectal</text><text fill="#000000" font-family="sans-serif" font-size="14" lengthAdjust="spacing" textLength="45" x="408.5" y="57.5117">cancer</text><text fill="#000000" font-family="sans-serif" font-size="14" lengthAdjust="spacing" textLength="4" x="453.5" y="57.5117">&#160;</text><text fill="#000000" font-family="sans-serif" font-size="14" lengthAdjust="spacing" textLength="70" x="457.5" y="57.5117">hereditary</text><text fill="#000000" font-family="sans-serif" font-size="14" lengthAdjust="spacing" textLength="74" x="431" y="74">syndrome?</text></a></g><!--entity eve_IBD--><g id="elem_eve_IBD"><a href="#eve-IBD" target="_top" title="#eve-IBD" xlink:actuate="onRequest" xlink:href="#eve-IBD" xlink:show="new" xlink:title="#eve-IBD" xlink:type="simple"><polygon fill="#A4DBD8" points="509,163.44,441.5,141.95,306.5,141.95,239,163.44,306.5,184.93,441.5,184.93,509,163.44" style="stroke:#FF0000;stroke-width:1.0;"/><text fill="#000000" font-family="sans-serif" font-size="14" lengthAdjust="spacing" textLength="91" x="306.5" y="160.4852">Inflammatory</text><text fill="#000000" font-family="sans-serif" font-size="14" lengthAdjust="spacing" textLength="4" x="397.5" y="160.4852">&#160;</text><text fill="#000000" font-family="sans-serif" font-size="14" lengthAdjust="spacing" textLength="40" x="401.5" y="160.4852">Bowel</text><text fill="#000000" font-family="sans-serif" font-size="14" lengthAdjust="spacing" textLength="58" x="345" y="176.9734">Disease?</text></a></g><!--entity eve_HxCRC--><g id="elem_eve_HxCRC"><a href="#eve-HxCRC" target="_top" title="#eve-HxCRC" xlink:actuate="onRequest" xlink:href="#eve-HxCRC" xlink:show="new" xlink:title="#eve-HxCRC" xlink:type="simple"><polygon fill="#A4DBD8" points="438,266.42,373.5,244.93,244.5,244.93,180,266.42,244.5,287.91,373.5,287.91,438,266.42" style="stroke:#FF0000;stroke-width:1.0;"/><text fill="#000000" font-family="sans-serif" font-size="14" lengthAdjust="spacing" textLength="59" x="244.5" y="263.4652">Personal</text><text fill="#000000" font-family="sans-serif" font-size="14" lengthAdjust="spacing" textLength="4" x="303.5" y="263.4652">&#160;</text><text fill="#000000" font-family="sans-serif" font-size="14" lengthAdjust="spacing" textLength="48" x="307.5" y="263.4652">History</text><text fill="#000000" font-family="sans-serif" font-size="14" lengthAdjust="spacing" textLength="4" x="355.5" y="263.4652">&#160;</text><text fill="#000000" font-family="sans-serif" font-size="14" lengthAdjust="spacing" textLength="14" x="359.5" y="263.4652">of</text><text fill="#000000" font-family="sans-serif" font-size="14" lengthAdjust="spacing" textLength="70" x="245" y="279.9534">Colorectal</text><text fill="#000000" font-family="sans-serif" font-size="14" lengthAdjust="spacing" textLength="4" x="315" y="279.9534">&#160;</text><text fill="#000000" font-family="sans-serif" font-size="14" lengthAdjust="spacing" textLength="54" x="319" y="279.9534">Cancer?</text></a></g><!--entity eve_FamilyHxCRC--><g id="elem_eve_FamilyHxCRC"><a href="#eve-FamilyHxCRC" target="_top" title="#eve-FamilyHxCRC" xlink:actuate="onRequest" xlink:href="#eve-FamilyHxCRC" xlink:show="new" xlink:title="#eve-FamilyHxCRC" xlink:type="simple"><polygon fill="#A4DBD8" points="367,369.4,310.5,347.91,197.5,347.91,141,369.4,197.5,390.88,310.5,390.88,367,369.4" style="stroke:#FF0000;stroke-width:1.0;"/><text fill="#000000" font-family="sans-serif" font-size="14" lengthAdjust="spacing" textLength="44" x="197.5" y="366.4452">Family</text><text fill="#000000" font-family="sans-serif" font-size="14" lengthAdjust="spacing" textLength="4" x="241.5" y="366.4452">&#160;</text><text fill="#000000" font-family="sans-serif" font-size="14" lengthAdjust="spacing" textLength="47" x="245.5" y="366.4452">history</text><text fill="#000000" font-family="sans-serif" font-size="14" lengthAdjust="spacing" textLength="4" x="292.5" y="366.4452">&#160;</text><text fill="#000000" font-family="sans-serif" font-size="14" lengthAdjust="spacing" textLength="14" x="296.5" y="366.4452">of</text><text fill="#000000" font-family="sans-serif" font-size="14" lengthAdjust="spacing" textLength="35" x="236.5" y="382.9334">CRC?</text></a></g><!--entity eve_HxPolyps--><g id="elem_eve_HxPolyps"><a href="#eve-HxPolyps" target="_top" title="#eve-HxPolyps" xlink:actuate="onRequest" xlink:href="#eve-HxPolyps" xlink:show="new" xlink:title="#eve-HxPolyps" xlink:type="simple"><polygon fill="#A4DBD8" points="296,472.37,226,450.88,86,450.88,16,472.37,86,493.86,226,493.86,296,472.37" style="stroke:#FF0000;stroke-width:1.0;"/><text fill="#000000" font-family="sans-serif" font-size="14" lengthAdjust="spacing" textLength="48" x="86" y="469.4152">History</text><text fill="#000000" font-family="sans-serif" font-size="14" lengthAdjust="spacing" textLength="4" x="134" y="469.4152">&#160;</text><text fill="#000000" font-family="sans-serif" font-size="14" lengthAdjust="spacing" textLength="14" x="138" y="469.4152">of</text><text fill="#000000" font-family="sans-serif" font-size="14" lengthAdjust="spacing" textLength="4" x="152" y="469.4152">&#160;</text><text fill="#000000" font-family="sans-serif" font-size="14" lengthAdjust="spacing" textLength="70" x="156" y="469.4152">neoplastic</text><text fill="#000000" font-family="sans-serif" font-size="14" lengthAdjust="spacing" textLength="61" x="125.5" y="485.9034">polyp(s)?</text></a></g><!--entity end_1--><g id="elem_end_1"><ellipse cx="420" cy="582.86" fill="#A4DBD8" rx="8" ry="8" style="stroke:#181818;stroke-width:0.5;"/><text fill="#000000" font-family="sans-serif" font-size="14" lengthAdjust="spacing" textLength="26" x="407" y="613.3952">end</text></g><!--entity act_AvgRiskScreeningEligible--><g id="elem_act_AvgRiskScreeningEligible"><a href="#act-AvgRiskScreeningEligible" target="_top" title="#act-AvgRiskScreeningEligible" xlink:actuate="onRequest" xlink:href="#act-AvgRiskScreeningEligible" xlink:show="new" xlink:title="#act-AvgRiskScreeningEligible" xlink:type="simple"><rect fill="#F1F1F1" height="36.4883" rx="2.5" ry="2.5" style="stroke:#181818;stroke-width:0.5;" width="252" x="30" y="564.62"/><text fill="#000000" font-family="sans-serif" font-size="14" lengthAdjust="spacing" textLength="50" x="40" y="588.1552">Eligible</text><text fill="#000000" font-family="sans-serif" font-size="14" lengthAdjust="spacing" textLength="4" x="90" y="588.1552">&#160;</text><text fill="#000000" font-family="sans-serif" font-size="14" lengthAdjust="spacing" textLength="20" x="94" y="588.1552">for</text><text fill="#000000" font-family="sans-serif" font-size="14" lengthAdjust="spacing" textLength="4" x="114" y="588.1552">&#160;</text><text fill="#000000" font-family="sans-serif" font-size="14" lengthAdjust="spacing" textLength="54" x="118" y="588.1552">average</text><text fill="#000000" font-family="sans-serif" font-size="14" lengthAdjust="spacing" textLength="4" x="172" y="588.1552">&#160;</text><text fill="#000000" font-family="sans-serif" font-size="14" lengthAdjust="spacing" textLength="25" x="176" y="588.1552">risk</text><text fill="#000000" font-family="sans-serif" font-size="14" lengthAdjust="spacing" textLength="4" x="201" y="588.1552">&#160;</text><text fill="#000000" font-family="sans-serif" font-size="14" lengthAdjust="spacing" textLength="67" x="205" y="588.1552">screening</text></a></g><!--link eve_CRCHereditarySyndrome to end_1--><g id="link_eve_CRCHereditarySyndrome_end_1"><path d="M556.5,71.07 C556.5,180.35 556.5,582.86 556.5,582.86 C556.5,582.86 465.32,582.86 434.96,582.86 " fill="none" id="eve_CRCHereditarySyndrome-to-end_1" style="stroke:#181818;stroke-width:1.0;"/><polygon fill="#181818" points="428.96,582.86,437.96,586.86,433.96,582.86,437.96,578.86,428.96,582.86" style="stroke:#181818;stroke-width:1.0;"/><text fill="#000000" font-family="sans-serif" font-size="13" lengthAdjust="spacing" textLength="21" x="534.5" y="387.3084">yes</text></g><!--link eve_CRCHereditarySyndrome to eve_IBD--><g id="link_eve_CRCHereditarySyndrome_eve_IBD"><path d="M420.5,82.43 C420.5,102.08 420.5,119.25 420.5,135.77 " fill="none" id="eve_CRCHereditarySyndrome-to-eve_IBD" style="stroke:#181818;stroke-width:1.0;"/><polygon fill="#181818" points="420.5,141.77,424.5,132.77,420.5,136.77,416.5,132.77,420.5,141.77" style="stroke:#181818;stroke-width:1.0;"/><text fill="#000000" font-family="sans-serif" font-size="13" lengthAdjust="spacing" textLength="16" x="403.5" y="108.6684">no</text></g><!--link eve_IBD to end_1--><g id="link_eve_IBD_end_1"><path d="M442.5,185.11 C442.5,270.32 442.5,572 442.5,576.8 " fill="none" id="eve_IBD-to-end_1" style="stroke:#181818;stroke-width:1.0;"/><polygon fill="#181818" points="442.5,582.8,446.5,573.8,442.5,577.8,438.5,573.8,442.5,582.8" style="stroke:#181818;stroke-width:1.0;"/><text fill="#000000" font-family="sans-serif" font-size="13" lengthAdjust="spacing" textLength="21" x="420.5" y="380.5284">yes</text></g><!--link eve_IBD to eve_HxCRC--><g id="link_eve_IBD_eve_HxCRC"><path d="M338.5,185.28 C338.5,202.76 338.5,221.14 338.5,238.61 " fill="none" id="eve_IBD-to-eve_HxCRC" style="stroke:#181818;stroke-width:1.0;"/><polygon fill="#181818" points="338.5,244.61,342.5,235.61,338.5,239.61,334.5,235.61,338.5,244.61" style="stroke:#181818;stroke-width:1.0;"/><text fill="#000000" font-family="sans-serif" font-size="13" lengthAdjust="spacing" textLength="16" x="321.5" y="211.5184">no</text></g><!--link eve_HxCRC to end_1--><g id="link_eve_HxCRC_end_1"><path d="M415.5,274.24 C415.5,317.64 415.5,522.54 415.5,568.15 " fill="none" id="eve_HxCRC-to-end_1" style="stroke:#181818;stroke-width:1.0;"/><polygon fill="#181818" points="415.5,574.15,419.5,565.15,415.5,569.15,411.5,565.15,415.5,574.15" style="stroke:#181818;stroke-width:1.0;"/><text fill="#000000" font-family="sans-serif" font-size="13" lengthAdjust="spacing" textLength="21" x="393.5" y="420.7584">yes</text></g><!--link eve_HxCRC to eve_FamilyHxCRC--><g id="link_eve_HxCRC_eve_FamilyHxCRC"><path d="M273.5,288.26 C273.5,305.73 273.5,324.12 273.5,341.59 " fill="none" id="eve_HxCRC-to-eve_FamilyHxCRC" style="stroke:#181818;stroke-width:1.0;"/><polygon fill="#181818" points="273.5,347.59,277.5,338.59,273.5,342.59,269.5,338.59,273.5,347.59" style="stroke:#181818;stroke-width:1.0;"/><text fill="#000000" font-family="sans-serif" font-size="13" lengthAdjust="spacing" textLength="16" x="256.5" y="314.4884">no</text></g><!--link eve_FamilyHxCRC to end_1--><g id="link_eve_FamilyHxCRC_end_1"><path d="M331.5,383.25 C331.5,426.78 331.5,557.86 331.5,557.86 C331.5,557.86 411.26,557.86 413.94,557.86 " fill="none" id="eve_FamilyHxCRC-to-end_1" style="stroke:#181818;stroke-width:1.0;"/><polygon fill="#181818" points="419.94,557.86,410.94,553.86,414.94,557.86,410.94,561.86,419.94,557.86" style="stroke:#181818;stroke-width:1.0;"/><text fill="#000000" font-family="sans-serif" font-size="13" lengthAdjust="spacing" textLength="21" x="309.5" y="511.3384">yes</text></g><!--link eve_FamilyHxCRC to eve_HxPolyps--><g id="link_eve_FamilyHxCRC_eve_HxPolyps"><path d="M218.5,391.23 C218.5,408.71 218.5,427.1 218.5,444.56 " fill="none" id="eve_FamilyHxCRC-to-eve_HxPolyps" style="stroke:#181818;stroke-width:1.0;"/><polygon fill="#181818" points="218.5,450.56,222.5,441.56,218.5,445.56,214.5,441.56,218.5,450.56" style="stroke:#181818;stroke-width:1.0;"/><text fill="#000000" font-family="sans-serif" font-size="13" lengthAdjust="spacing" textLength="16" x="201.5" y="417.4684">no</text></g><!--link eve_HxPolyps to end_1--><g id="link_eve_HxPolyps_end_1"><path d="M289,474.95 C289,489.63 289,561.86 289,561.86 C289,561.86 409.94,561.86 413.91,561.86 " fill="none" id="eve_HxPolyps-to-end_1" style="stroke:#181818;stroke-width:1.0;"/><polygon fill="#181818" points="419.91,561.86,410.91,557.86,414.91,561.86,410.91,565.86,419.91,561.86" style="stroke:#181818;stroke-width:1.0;"/><text fill="#000000" font-family="sans-serif" font-size="13" lengthAdjust="spacing" textLength="21" x="289" y="558.4284">yes</text></g><!--link eve_HxPolyps to act_AvgRiskScreeningEligible--><g id="link_eve_HxPolyps_act_AvgRiskScreeningEligible"><path d="M156,494.2 C156,514.7 156,539.04 156,558.38 " fill="none" id="eve_HxPolyps-to-act_AvgRiskScreeningEligible" style="stroke:#181818;stroke-width:1.0;"/><polygon fill="#181818" points="156,564.38,160,555.38,156,559.38,152,555.38,156,564.38" style="stroke:#181818;stroke-width:1.0;"/><text fill="#000000" font-family="sans-serif" font-size="13" lengthAdjust="spacing" textLength="16" x="139" y="525.8584">no</text></g><!--SRC=[VL9TRzCm57tFhxZgNk2Xm118AAewjIdGII1D6n8FqrHTdDl4gcD7jbSQ4F-TcszlxPg7n3xdddDFV9tBbC1vicHyLLBaTbANQB409JNL41ZhSnFDdAyKpQES3fWP3NyZuESx7cJnMFoKgSzZkFpu3XfuYMBtrPf7dIP66Hl3uiDgkVhKaj_O-4SknKwJSomQqQxOKjfYQsFb7wCzgeMIcIv8-nW4lyb6_o9BmgFE59tCyhxFSjxa3Ucqqn-5lcXJSzNixRE_dzoGTKQZujE1BHPILP1Bvusjm6n1r0PrF0K2jI0BEPzmAZqoxogTMbFG5Km07T2UDibjiXuAxZeUxkylc9oU91yUnYpNUgkmAB3flZI_IS5AEa97LqE7w-Mgz-Dbg1x-P3tcJyRyIPD_D5eVE4zlrMn2ioz7Hy45exYbdrW4K6WKXD5aIeNEIm6bKLNvohqEuzpKc1iJjNls4j8AlXmJdd1RhjFD9Snc_9tFWzip-SptGlxYrPQ7YNkoc15OwNRWX2NIKcUD0Gg_MUopMsRkUcBGSd_cfo_ndEV5GK-dyoPR31MvysNj96FG9khMn-8Ex6Sr53Uxu_81VZgVGHPWn-9dP32Ge6qBdEeyCEUEjdRw3m00]--></g></svg>