<svg xmlns="http://www.w3.org/2000/svg" xmlns:xlink="http://www.w3.org/1999/xlink" contentStyleType="text/css" height="515px" preserveAspectRatio="none" style="width:1220px;height:515px;background:#FFFFFF;" version="1.1" viewBox="0 0 1220 515" width="1220px" zoomAndPan="magnify"><defs/><g><!--entity eve_lastTest--><g id="elem_eve_lastTest"><a href="#eve-lastTest" target="_top" title="#eve-lastTest" xlink:actuate="onRequest" xlink:href="#eve-lastTest" xlink:show="new" xlink:title="#eve-lastTest" xlink:type="simple"><polygon fill="#A4DBD8" points="847,30.3322,790.5,8.8522,677.5,8.8522,621,30.3322,677.5,51.8222,790.5,51.8222,847,30.3322" style="stroke:#FF0000;stroke-width:1.0;"/><text fill="#000000" font-family="sans-serif" font-size="14" lengthAdjust="spacing" textLength="33" x="677.5" y="27.3873">Most</text><text fill="#000000" font-family="sans-serif" font-size="14" lengthAdjust="spacing" textLength="4" x="710.5" y="27.3873">&#160;</text><text fill="#000000" font-family="sans-serif" font-size="14" lengthAdjust="spacing" textLength="43" x="714.5" y="27.3873">recent</text><text fill="#000000" font-family="sans-serif" font-size="14" lengthAdjust="spacing" textLength="4" x="757.5" y="27.3873">&#160;</text><text fill="#000000" font-family="sans-serif" font-size="14" lengthAdjust="spacing" textLength="29" x="761.5" y="27.3873">CRC</text><text fill="#000000" font-family="sans-serif" font-size="14" lengthAdjust="spacing" textLength="67" x="686" y="43.8756">screening</text><text fill="#000000" font-family="sans-serif" font-size="14" lengthAdjust="spacing" textLength="4" x="753" y="43.8756">&#160;</text><text fill="#000000" font-family="sans-serif" font-size="14" lengthAdjust="spacing" textLength="25" x="757" y="43.8756">test</text></a></g><!--entity eve_stoolTestResult--><g id="elem_eve_stoolTestResult"><a href="#eve-stoolTestResult" target="_top" title="#eve-stoolTestResult" xlink:actuate="onRequest" xlink:href="#eve-stoolTestResult" xlink:show="new" xlink:title="#eve-stoolTestResult" xlink:type="simple"><polygon fill="#A4DBD8" points="567,141.5522,510.5,120.0722,397.5,120.0722,341,141.5522,397.5,163.0422,510.5,163.0422,567,141.5522" style="stroke:#FF0000;stroke-width:1.0;"/><text fill="#000000" font-family="sans-serif" font-size="14" lengthAdjust="spacing" textLength="84" x="397.5" y="138.6073">Stool-based</text><text fill="#000000" font-family="sans-serif" font-size="14" lengthAdjust="spacing" textLength="4" x="481.5" y="138.6073">&#160;</text><text fill="#000000" font-family="sans-serif" font-size="14" lengthAdjust="spacing" textLength="25" x="485.5" y="138.6073">test</text><text fill="#000000" font-family="sans-serif" font-size="14" lengthAdjust="spacing" textLength="39" x="434.5" y="155.0956">result</text></a></g><!--entity eve_CTColonographyResult--><g id="elem_eve_CTColonographyResult"><a href="#eve-CTColonographyResult" target="_top" title="#eve-CTColonographyResult" xlink:actuate="onRequest" xlink:href="#eve-CTColonographyResult" xlink:show="new" xlink:title="#eve-CTColonographyResult" xlink:type="simple"><polygon fill="#A4DBD8" points="1195,141.5522,1121.5,120.0722,974.5,120.0722,901,141.5522,974.5,163.0422,1121.5,163.0422,1195,141.5522" style="stroke:#FF0000;stroke-width:1.0;"/><text fill="#000000" font-family="sans-serif" font-size="14" lengthAdjust="spacing" textLength="19" x="974.5" y="138.6073">CT</text><text fill="#000000" font-family="sans-serif" font-size="14" lengthAdjust="spacing" textLength="4" x="993.5" y="138.6073">&#160;</text><text fill="#000000" font-family="sans-serif" font-size="14" lengthAdjust="spacing" textLength="95" x="997.5" y="138.6073">colonography</text><text fill="#000000" font-family="sans-serif" font-size="14" lengthAdjust="spacing" textLength="4" x="1092.5" y="138.6073">&#160;</text><text fill="#000000" font-family="sans-serif" font-size="14" lengthAdjust="spacing" textLength="25" x="1096.5" y="138.6073">test</text><text fill="#000000" font-family="sans-serif" font-size="14" lengthAdjust="spacing" textLength="39" x="1028.5" y="155.0956">result</text></a></g><!--entity eve_flexibleSigmoidoscopyResult--><g id="elem_eve_flexibleSigmoidoscopyResult"><a href="#eve-flexibleSigmoidoscopyResult" target="_top" title="#eve-flexibleSigmoidoscopyResult" xlink:actuate="onRequest" xlink:href="#eve-flexibleSigmoidoscopyResult" xlink:show="new" xlink:title="#eve-flexibleSigmoidoscopyResult" xlink:type="simple"><polygon fill="#A4DBD8" points="866,141.5522,800,111.8222,668,111.8222,602,141.5522,668,171.2922,800,171.2922,866,141.5522" style="stroke:#FF0000;stroke-width:1.0;"/><text fill="#000000" font-family="sans-serif" font-size="14" lengthAdjust="spacing" textLength="54" x="707" y="130.3573">Flexible</text><text fill="#000000" font-family="sans-serif" font-size="14" lengthAdjust="spacing" textLength="103" x="668" y="146.8456">sigmoidoscopy</text><text fill="#000000" font-family="sans-serif" font-size="14" lengthAdjust="spacing" textLength="4" x="771" y="146.8456">&#160;</text><text fill="#000000" font-family="sans-serif" font-size="14" lengthAdjust="spacing" textLength="25" x="775" y="146.8456">test</text><text fill="#000000" font-family="sans-serif" font-size="14" lengthAdjust="spacing" textLength="39" x="714.5" y="163.3339">result</text></a></g><!--entity eve_capsuleColonoscopyResult--><g id="elem_eve_capsuleColonoscopyResult"><a href="#eve-capsuleColonoscopyResult" target="_top" title="#eve-capsuleColonoscopyResult" xlink:actuate="onRequest" xlink:href="#eve-capsuleColonoscopyResult" xlink:show="new" xlink:title="#eve-capsuleColonoscopyResult" xlink:type="simple"><polygon fill="#A4DBD8" points="306,141.5522,233.5,120.0722,88.5,120.0722,16,141.5522,88.5,163.0422,233.5,163.0422,306,141.5522" style="stroke:#FF0000;stroke-width:1.0;"/><text fill="#000000" font-family="sans-serif" font-size="14" lengthAdjust="spacing" textLength="55" x="88.5" y="138.6073">Capsule</text><text fill="#000000" font-family="sans-serif" font-size="14" lengthAdjust="spacing" textLength="4" x="143.5" y="138.6073">&#160;</text><text fill="#000000" font-family="sans-serif" font-size="14" lengthAdjust="spacing" textLength="86" x="147.5" y="138.6073">colonoscopy</text><text fill="#000000" font-family="sans-serif" font-size="14" lengthAdjust="spacing" textLength="25" x="127" y="155.0956">test</text><text fill="#000000" font-family="sans-serif" font-size="14" lengthAdjust="spacing" textLength="4" x="152" y="155.0956">&#160;</text><text fill="#000000" font-family="sans-serif" font-size="14" lengthAdjust="spacing" textLength="39" x="156" y="155.0956">result</text></a></g><!--entity eve_pendingColonoscopy--><g id="elem_eve_pendingColonoscopy"><a href="#eve-pendingColonoscopy" target="_top" title="#eve-pendingColonoscopy" xlink:actuate="onRequest" xlink:href="#eve-pendingColonoscopy" xlink:show="new" xlink:title="#eve-pendingColonoscopy" xlink:type="simple"><polygon fill="#A4DBD8" points="880,252.7822,807,231.2922,661,231.2922,588,252.7822,661,274.2622,807,274.2622,880,252.7822" style="stroke:#FF0000;stroke-width:1.0;"/><text fill="#000000" font-family="sans-serif" font-size="14" lengthAdjust="spacing" textLength="56" x="661" y="249.8273">Pending</text><text fill="#000000" font-family="sans-serif" font-size="14" lengthAdjust="spacing" textLength="4" x="717" y="249.8273">&#160;</text><text fill="#000000" font-family="sans-serif" font-size="14" lengthAdjust="spacing" textLength="86" x="721" y="249.8273">colonoscopy</text><text fill="#000000" font-family="sans-serif" font-size="14" lengthAdjust="spacing" textLength="38" x="675" y="266.3156">order</text><text fill="#000000" font-family="sans-serif" font-size="14" lengthAdjust="spacing" textLength="4" x="713" y="266.3156">&#160;</text><text fill="#000000" font-family="sans-serif" font-size="14" lengthAdjust="spacing" textLength="15" x="717" y="266.3156">or</text><text fill="#000000" font-family="sans-serif" font-size="14" lengthAdjust="spacing" textLength="4" x="732" y="266.3156">&#160;</text><text fill="#000000" font-family="sans-serif" font-size="14" lengthAdjust="spacing" textLength="57" x="736" y="266.3156">referral?</text></a></g><!--entity act_FollowUpColonoscopy--><g id="elem_act_FollowUpColonoscopy"><a href="#act-FollowUpColonoscopy" target="_top" title="#act-FollowUpColonoscopy" xlink:actuate="onRequest" xlink:href="#act-FollowUpColonoscopy" xlink:show="new" xlink:title="#act-FollowUpColonoscopy" xlink:type="simple"><rect fill="#F1F1F1" height="36.4883" rx="2.5" ry="2.5" style="stroke:#181818;stroke-width:0.5;" width="268" x="811" y="342.5122"/><text fill="#000000" font-family="sans-serif" font-size="14" lengthAdjust="spacing" textLength="90" x="821" y="366.0473">RECOMMEND</text><text fill="#000000" font-family="sans-serif" font-size="14" lengthAdjust="spacing" textLength="4" x="911" y="366.0473">&#160;</text><text fill="#000000" font-family="sans-serif" font-size="14" lengthAdjust="spacing" textLength="42" x="915" y="366.0473">follow</text><text fill="#000000" font-family="sans-serif" font-size="14" lengthAdjust="spacing" textLength="4" x="957" y="366.0473">&#160;</text><text fill="#000000" font-family="sans-serif" font-size="14" lengthAdjust="spacing" textLength="18" x="961" y="366.0473">up</text><text fill="#000000" font-family="sans-serif" font-size="14" lengthAdjust="spacing" textLength="4" x="979" y="366.0473">&#160;</text><text fill="#000000" font-family="sans-serif" font-size="14" lengthAdjust="spacing" textLength="86" x="983" y="366.0473">colonoscopy</text></a></g><!--entity end_1--><g id="elem_end_1"><ellipse cx="1096" cy="476.2422" fill="#A4DBD8" rx="8" ry="8" style="stroke:#181818;stroke-width:0.5;"/><text fill="#000000" font-family="sans-serif" font-size="14" lengthAdjust="spacing" textLength="26" x="1083" y="506.7773">end</text></g><!--entity act_continueRoutineScreening--><g id="elem_act_continueRoutineScreening"><a href="#act-continueRoutineScreening" target="_top" title="#act-continueRoutineScreening" xlink:actuate="onRequest" xlink:href="#act-continueRoutineScreening" xlink:show="new" xlink:title="#act-continueRoutineScreening" xlink:type="simple"><rect fill="#F1F1F1" height="52.9766" rx="2.5" ry="2.5" style="stroke:#181818;stroke-width:0.5;" width="247" x="411.5" y="334.2622"/><text fill="#000000" font-family="sans-serif" font-size="14" lengthAdjust="spacing" textLength="21" x="421.5" y="357.7973">GO</text><text fill="#000000" font-family="sans-serif" font-size="14" lengthAdjust="spacing" textLength="4" x="442.5" y="357.7973">&#160;</text><text fill="#000000" font-family="sans-serif" font-size="14" lengthAdjust="spacing" textLength="20" x="446.5" y="357.7973">TO</text><text fill="#000000" font-family="sans-serif" font-size="14" lengthAdjust="spacing" textLength="4" x="466.5" y="357.7973">&#160;</text><text fill="#000000" font-family="sans-serif" font-size="14" lengthAdjust="spacing" textLength="76" x="470.5" y="357.7973">"Determine</text><text fill="#000000" font-family="sans-serif" font-size="14" lengthAdjust="spacing" textLength="4" x="546.5" y="357.7973">&#160;</text><text fill="#000000" font-family="sans-serif" font-size="14" lengthAdjust="spacing" textLength="32" x="550.5" y="357.7973">Next</text><text fill="#000000" font-family="sans-serif" font-size="14" lengthAdjust="spacing" textLength="4" x="582.5" y="357.7973">&#160;</text><text fill="#000000" font-family="sans-serif" font-size="14" lengthAdjust="spacing" textLength="27" x="586.5" y="357.7973">Due</text><text fill="#000000" font-family="sans-serif" font-size="14" lengthAdjust="spacing" textLength="4" x="613.5" y="357.7973">&#160;</text><text fill="#000000" font-family="sans-serif" font-size="14" lengthAdjust="spacing" textLength="31" x="617.5" y="357.7973">Date</text><text fill="#000000" font-family="sans-serif" font-size="14" lengthAdjust="spacing" textLength="20" x="450.5" y="374.2856">for</text><text fill="#000000" font-family="sans-serif" font-size="14" lengthAdjust="spacing" textLength="4" x="470.5" y="374.2856">&#160;</text><text fill="#000000" font-family="sans-serif" font-size="14" lengthAdjust="spacing" textLength="73" x="474.5" y="374.2856">Screening"</text><text fill="#000000" font-family="sans-serif" font-size="14" lengthAdjust="spacing" textLength="4" x="547.5" y="374.2856">&#160;</text><text fill="#000000" font-family="sans-serif" font-size="14" lengthAdjust="spacing" textLength="33" x="551.5" y="374.2856">logic</text><text fill="#000000" font-family="sans-serif" font-size="14" lengthAdjust="spacing" textLength="4" x="584.5" y="374.2856">&#160;</text><text fill="#000000" font-family="sans-serif" font-size="14" lengthAdjust="spacing" textLength="31" x="588.5" y="374.2856">path</text></a></g><!--link eve_lastTest to eve_stoolTestResult--><g id="link_eve_lastTest_eve_stoolTestResult"><path d="M640.76,38.2422 C559.31,38.2422 454,38.2422 454,38.2422 C454,38.2422 454,83.3222 454,113.6422 " fill="none" id="eve_lastTest-to-eve_stoolTestResult" style="stroke:#181818;stroke-width:1.0;"/><polygon fill="#181818" points="454,119.6422,458,110.6422,454,114.6422,450,110.6422,454,119.6422" style="stroke:#181818;stroke-width:1.0;"/><text fill="#000000" font-family="sans-serif" font-size="13" lengthAdjust="spacing" textLength="105" x="400.68" y="34.8105">stool-based test</text></g><!--link eve_lastTest to eve_CTColonographyResult--><g id="link_eve_lastTest_eve_CTColonographyResult"><path d="M827.36,38.2422 C919.92,38.2422 1048,38.2422 1048,38.2422 C1048,38.2422 1048,83.3222 1048,113.6422 " fill="none" id="eve_lastTest-to-eve_CTColonographyResult" style="stroke:#181818;stroke-width:1.0;"/><polygon fill="#181818" points="1048,119.6422,1052,110.6422,1048,114.6422,1044,110.6422,1048,119.6422" style="stroke:#181818;stroke-width:1.0;"/><text fill="#000000" font-family="sans-serif" font-size="13" lengthAdjust="spacing" textLength="107" x="870.38" y="34.8105">CT colonography</text></g><!--link eve_lastTest to eve_flexibleSigmoidoscopyResult--><g id="link_eve_lastTest_eve_flexibleSigmoidoscopyResult"><path d="M734,52.3122 C734,69.2722 734,86.9322 734,105.6322 " fill="none" id="eve_lastTest-to-eve_flexibleSigmoidoscopyResult" style="stroke:#181818;stroke-width:1.0;"/><polygon fill="#181818" points="734,111.6322,738,102.6322,734,106.6322,730,102.6322,734,111.6322" style="stroke:#181818;stroke-width:1.0;"/><text fill="#000000" font-family="sans-serif" font-size="13" lengthAdjust="spacing" textLength="139" x="594" y="78.5405">flexible sigmoioscopy</text></g><!--link eve_lastTest to eve_capsuleColonoscopyResult--><g id="link_eve_lastTest_eve_capsuleColonoscopyResult"><path d="M638.42,23.2422 C475.39,23.2422 161,23.2422 161,23.2422 C161,23.2422 161,79.3622 161,113.5822 " fill="none" id="eve_lastTest-to-eve_capsuleColonoscopyResult" style="stroke:#181818;stroke-width:1.0;"/><polygon fill="#181818" points="161,119.5822,165,110.5822,161,114.5822,157,110.5822,161,119.5822" style="stroke:#181818;stroke-width:1.0;"/><text fill="#000000" font-family="sans-serif" font-size="13" lengthAdjust="spacing" textLength="132" x="218.54" y="19.8105">capsule colonoscopy</text></g><!--link eve_lastTest to end_1--><g id="link_eve_lastTest_end_1"><path d="M829.49,23.2422 C969.23,23.2422 1213,23.2422 1213,23.2422 C1213,23.2422 1213,476.2422 1213,476.2422 C1213,476.2422 1138,476.2422 1110.79,476.2422 " fill="none" id="eve_lastTest-to-end_1" style="stroke:#181818;stroke-width:1.0;"/><polygon fill="#181818" points="1104.79,476.2422,1113.79,480.2422,1109.79,476.2422,1113.79,472.2422,1104.79,476.2422" style="stroke:#181818;stroke-width:1.0;"/><text fill="#000000" font-family="sans-serif" font-size="13" lengthAdjust="spacing" textLength="31" x="1181" y="108.6605">none</text></g><!--link eve_stoolTestResult to eve_pendingColonoscopy--><g id="link_eve_stoolTestResult_eve_pendingColonoscopy"><path d="M566.47,142.2422 C583.22,142.2422 595,142.2422 595,142.2422 C595,142.2422 595,228.5922 595,244.4722 " fill="none" id="eve_stoolTestResult-to-eve_pendingColonoscopy" style="stroke:#181818;stroke-width:1.0;"/><polygon fill="#181818" points="595,250.4722,599,241.4722,595,245.4722,591,241.4722,595,250.4722" style="stroke:#181818;stroke-width:1.0;"/><text fill="#000000" font-family="sans-serif" font-size="13" lengthAdjust="spacing" textLength="59" x="535" y="178.6605">abnormal</text></g><!--link eve_stoolTestResult to act_continueRoutineScreening--><g id="link_eve_stoolTestResult_act_continueRoutineScreening"><path d="M489.25,163.3722 C489.25,203.7622 489.25,284.0622 489.25,327.9422 " fill="none" id="eve_stoolTestResult-to-act_continueRoutineScreening" style="stroke:#181818;stroke-width:1.0;"/><polygon fill="#181818" points="489.25,333.9422,493.25,324.9422,489.25,328.9422,485.25,324.9422,489.25,333.9422" style="stroke:#181818;stroke-width:1.0;"/><text fill="#000000" font-family="sans-serif" font-size="13" lengthAdjust="spacing" textLength="44" x="444.25" y="245.2305">normal</text></g><!--link eve_CTColonographyResult to eve_pendingColonoscopy--><g id="link_eve_CTColonographyResult_eve_pendingColonoscopy"><path d="M901.9,142.2422 C884.63,142.2422 873,142.2422 873,142.2422 C873,142.2422 873,228.5922 873,244.4722 " fill="none" id="eve_CTColonographyResult-to-eve_pendingColonoscopy" style="stroke:#181818;stroke-width:1.0;"/><polygon fill="#181818" points="873,250.4722,877,241.4722,873,245.4722,869,241.4722,873,250.4722" style="stroke:#181818;stroke-width:1.0;"/><text fill="#000000" font-family="sans-serif" font-size="13" lengthAdjust="spacing" textLength="59" x="813" y="195.4705">abnormal</text></g><!--link eve_CTColonographyResult to act_continueRoutineScreening--><g id="link_eve_CTColonographyResult_act_continueRoutineScreening"><path d="M990,163.4722 C990,214.9422 990,339.2422 990,339.2422 C990,339.2422 799.46,339.2422 664.73,339.2422 " fill="none" id="eve_CTColonographyResult-to-act_continueRoutineScreening" style="stroke:#181818;stroke-width:1.0;"/><polygon fill="#181818" points="658.73,339.2422,667.73,343.2422,663.73,339.2422,667.73,335.2422,658.73,339.2422" style="stroke:#181818;stroke-width:1.0;"/><text fill="#000000" font-family="sans-serif" font-size="13" lengthAdjust="spacing" textLength="44" x="867.25" y="335.8105">normal</text></g><!--link eve_flexibleSigmoidoscopyResult to eve_pendingColonoscopy--><g id="link_eve_flexibleSigmoidoscopyResult_eve_pendingColonoscopy"><path d="M734,171.6522 C734,190.4422 734,208.1822 734,225.1222 " fill="none" id="eve_flexibleSigmoidoscopyResult-to-eve_pendingColonoscopy" style="stroke:#181818;stroke-width:1.0;"/><polygon fill="#181818" points="734,231.1222,738,222.1222,734,226.1222,730,222.1222,734,231.1222" style="stroke:#181818;stroke-width:1.0;"/><text fill="#000000" font-family="sans-serif" font-size="13" lengthAdjust="spacing" textLength="59" x="674" y="197.9605">abnormal</text></g><!--link eve_flexibleSigmoidoscopyResult to act_continueRoutineScreening--><g id="link_eve_flexibleSigmoidoscopyResult_act_continueRoutineScreening"><path d="M658.04,167.2422 C618.17,167.2422 577.5,167.2422 577.5,167.2422 C577.5,167.2422 577.5,274.6722 577.5,327.8422 " fill="none" id="eve_flexibleSigmoidoscopyResult-to-act_continueRoutineScreening" style="stroke:#181818;stroke-width:1.0;"/><polygon fill="#181818" points="577.5,333.8422,581.5,324.8422,577.5,328.8422,573.5,324.8422,577.5,333.8422" style="stroke:#181818;stroke-width:1.0;"/><text fill="#000000" font-family="sans-serif" font-size="13" lengthAdjust="spacing" textLength="44" x="532.5" y="206.8405">normal</text></g><!--link eve_capsuleColonoscopyResult to eve_pendingColonoscopy--><g id="link_eve_capsuleColonoscopyResult_eve_pendingColonoscopy"><path d="M209.33,163.3522 C209.33,195.8622 209.33,253.2422 209.33,253.2422 C209.33,253.2422 426.61,253.2422 581.85,253.2422 " fill="none" id="eve_capsuleColonoscopyResult-to-eve_pendingColonoscopy" style="stroke:#181818;stroke-width:1.0;"/><polygon fill="#181818" points="587.85,253.2422,578.85,249.2422,582.85,253.2422,578.85,257.2422,587.85,253.2422" style="stroke:#181818;stroke-width:1.0;"/><text fill="#000000" font-family="sans-serif" font-size="13" lengthAdjust="spacing" textLength="59" x="293.65" y="249.8105">abnormal</text></g><!--link eve_capsuleColonoscopyResult to act_continueRoutineScreening--><g id="link_eve_capsuleColonoscopyResult_act_continueRoutineScreening"><path d="M112.67,163.4222 C112.67,218.9922 112.67,361.2422 112.67,361.2422 C112.67,361.2422 280.52,361.2422 405.14,361.2422 " fill="none" id="eve_capsuleColonoscopyResult-to-act_continueRoutineScreening" style="stroke:#181818;stroke-width:1.0;"/><polygon fill="#181818" points="411.14,361.2422,402.14,357.2422,406.14,361.2422,402.14,365.2422,411.14,361.2422" style="stroke:#181818;stroke-width:1.0;"/><text fill="#000000" font-family="sans-serif" font-size="13" lengthAdjust="spacing" textLength="44" x="117.99" y="357.8105">normal</text></g><!--link eve_pendingColonoscopy to act_FollowUpColonoscopy--><g id="link_eve_pendingColonoscopy_act_FollowUpColonoscopy"><path d="M845.5,263.1322 C845.5,281.3922 845.5,313.5522 845.5,336.3822 " fill="none" id="eve_pendingColonoscopy-to-act_FollowUpColonoscopy" style="stroke:#181818;stroke-width:1.0;"/><polygon fill="#181818" points="845.5,342.3822,849.5,333.3822,845.5,337.3822,841.5,333.3822,845.5,342.3822" style="stroke:#181818;stroke-width:1.0;"/><text fill="#000000" font-family="sans-serif" font-size="13" lengthAdjust="spacing" textLength="16" x="828.5" y="299.3205">no</text></g><!--link eve_pendingColonoscopy to act_continueRoutineScreening--><g id="link_eve_pendingColonoscopy_act_continueRoutineScreening"><path d="M623.25,263.5222 C623.25,279.8522 623.25,305.3922 623.25,328.1322 " fill="none" id="eve_pendingColonoscopy-to-act_continueRoutineScreening" style="stroke:#181818;stroke-width:1.0;"/><polygon fill="#181818" points="623.25,334.1322,627.25,325.1322,623.25,329.1322,619.25,325.1322,623.25,334.1322" style="stroke:#181818;stroke-width:1.0;"/><text fill="#000000" font-family="sans-serif" font-size="13" lengthAdjust="spacing" textLength="21" x="601.25" y="295.3905">yes</text></g><!--link act_FollowUpColonoscopy to end_1--><g id="link_act_FollowUpColonoscopy_end_1"><path d="M1074,379.3122 C1074,411.4422 1074,468.2422 1074,470.1922 " fill="none" id="act_FollowUpColonoscopy-to-end_1" style="stroke:#181818;stroke-width:1.0;"/><polygon fill="#181818" points="1074,476.1922,1078,467.1922,1074,471.1922,1070,467.1922,1074,476.1922" style="stroke:#181818;stroke-width:1.0;"/></g><!--SRC=[ZLHVRzem47_FfpZHPxPrsgGfGanjQBk7KIPWsaDL8UCSYOLZHxQpmQP-zrq8WG1E10-9SdU_FsVVaOeOmJeqgDqsny2kXSgPOHb8eR0CWJOkrS70kgt4OP3YXYLQmRy0w3Tc6v4LsIyHkpI4syyVO1U-PtpzP7IXuaXBRKAu-pIw7tsfaj-9U9uAlbPeBO6EqNsnmRYAVTD6_DNACNadHQ8oL2u4JayqmLjWa3kc4ebUBnzhBzqaxr35U_o5wPlADLKDtfzrtnjhwyXeoGFHD0BB3Q8IAW67rlM0MS3Vk93CkZa5uENbXhxxzVVhwv5gvhIM_IMpr7O99bfRo2E7BVCbQBgBrrHduIPZD0TEBIYT69QdMozhD8yQ9QVKlboJ_r7YHYpfuAr8CYrYRRdE_JAhVUciMNcgrb5oqXJBAOJxpjeLULKN7SjEvThoJQqVD1NbNJQrj8dHq9FqLcWCaryFadbLtg2inIup97CStDxq8PgCnm_F8rXfAVKVAFAcw4w1SRTut6L_vcSIbEfxKgJ1XU6b0EbNDbMyk8N1WDx3OTF1qmJc4-YDaFOXens4Pzmu61K88-QGR1cOrRFT0waJmI5dBZrOuxHRGXKurGMzyL1S-slBaydcXlJxGy-mXs3FjiC7yirh26TRu0DsZ5u8gzCfhv8-bhQ9eh-Povcz82Wl9WIb5GQU0zXBNCvH26ofjCcOR85rtKsfTu3wJkzQsHRirTeT5t2jXMwAgvsqNUArDZhmLtku5DcZFJjU0hj1xP9Rj44BRJsH_m40]--></g></svg>