<svg xmlns="http://www.w3.org/2000/svg" xmlns:xlink="http://www.w3.org/1999/xlink" contentStyleType="text/css" height="374px" preserveAspectRatio="none" style="width:444px;height:374px;background:#FFFFFF;" version="1.1" viewBox="0 0 444 374" width="444px" zoomAndPan="magnify"><defs/><g><!--entity eve_HxTotalColectomy--><g id="elem_eve_HxTotalColectomy"><a href="#eve-HxTotalColectomy" target="_top" title="#eve-HxTotalColectomy" xlink:actuate="onRequest" xlink:href="#eve-HxTotalColectomy" xlink:show="new" xlink:title="#eve-HxTotalColectomy" xlink:type="simple"><polygon fill="#A4DBD8" points="427,28.5,382,6,292,6,247,28.5,292,51,382,51,427,28.5" style="stroke:#FF0000;stroke-width:1.0;"/><text fill="#000000" font-family="sans-serif" font-size="14" lengthAdjust="spacing" textLength="43" x="292" y="25.5332">History</text><text fill="#000000" font-family="sans-serif" font-size="14" lengthAdjust="spacing" textLength="4" x="335" y="25.5332">&#160;</text><text fill="#000000" font-family="sans-serif" font-size="14" lengthAdjust="spacing" textLength="12" x="339" y="25.5332">of</text><text fill="#000000" font-family="sans-serif" font-size="14" lengthAdjust="spacing" textLength="4" x="351" y="25.5332">&#160;</text><text fill="#000000" font-family="sans-serif" font-size="14" lengthAdjust="spacing" textLength="27" x="355" y="25.5332">total</text><text fill="#000000" font-family="sans-serif" font-size="14" lengthAdjust="spacing" textLength="63" x="305.5" y="43.1426">colectomy</text></a></g><!--entity eve_ActiveCRC--><g id="elem_eve_ActiveCRC"><a href="#eve-ActiveCRC" target="_top" title="#eve-ActiveCRC" xlink:actuate="onRequest" xlink:href="#eve-ActiveCRC" xlink:show="new" xlink:title="#eve-ActiveCRC" xlink:type="simple"><polygon fill="#A4DBD8" points="369,133.5,311,111,195,111,137,133.5,195,156,311,156,369,133.5" style="stroke:#FF0000;stroke-width:1.0;"/><text fill="#000000" font-family="sans-serif" font-size="14" lengthAdjust="spacing" textLength="48" x="195" y="130.5332">Current</text><text fill="#000000" font-family="sans-serif" font-size="14" lengthAdjust="spacing" textLength="4" x="243" y="130.5332">&#160;</text><text fill="#000000" font-family="sans-serif" font-size="14" lengthAdjust="spacing" textLength="64" x="247" y="130.5332">Colorectal</text><text fill="#000000" font-family="sans-serif" font-size="14" lengthAdjust="spacing" textLength="54" x="226" y="148.1426">Cancer?</text></a></g><!--entity eve_Symptomatic--><g id="elem_eve_Symptomatic"><a href="#eve-Symptomatic" target="_top" title="#eve-Symptomatic" xlink:actuate="onRequest" xlink:href="#eve-Symptomatic" xlink:show="new" xlink:title="#eve-Symptomatic" xlink:type="simple"><polygon fill="#A4DBD8" points="298,230,227.5,216,86.5,216,16,230,86.5,244,227.5,244,298,230" style="stroke:#FF0000;stroke-width:1.0;"/><text fill="#000000" font-family="sans-serif" font-size="14" lengthAdjust="spacing" textLength="64" x="86.5" y="235.5332">Colorectal</text><text fill="#000000" font-family="sans-serif" font-size="14" lengthAdjust="spacing" textLength="4" x="150.5" y="235.5332">&#160;</text><text fill="#000000" font-family="sans-serif" font-size="14" lengthAdjust="spacing" textLength="73" x="154.5" y="235.5332">Symptoms?</text></a></g><!--entity end_1--><g id="elem_end_1"><ellipse cx="351" cy="334" fill="#A4DBD8" rx="8" ry="8" style="stroke:#181818;stroke-width:0.5;"/><text fill="#000000" font-family="sans-serif" font-size="14" lengthAdjust="spacing" textLength="24" x="339" y="365.5332">end</text></g><!--entity act_ScreeningEligible--><g id="elem_act_ScreeningEligible"><a href="#act-ScreeningEligible" target="_top" title="#act-ScreeningEligible" xlink:actuate="onRequest" xlink:href="#act-ScreeningEligible" xlink:show="new" xlink:title="#act-ScreeningEligible" xlink:type="simple"><rect fill="#F1F1F1" height="37.6094" rx="2.5" ry="2.5" style="stroke:#181818;stroke-width:0.5;" width="152" x="81" y="315"/><text fill="#000000" font-family="sans-serif" font-size="14" lengthAdjust="spacing" textLength="45" x="91" y="339.5332">Eligible</text><text fill="#000000" font-family="sans-serif" font-size="14" lengthAdjust="spacing" textLength="4" x="136" y="339.5332">&#160;</text><text fill="#000000" font-family="sans-serif" font-size="14" lengthAdjust="spacing" textLength="17" x="140" y="339.5332">for</text><text fill="#000000" font-family="sans-serif" font-size="14" lengthAdjust="spacing" textLength="4" x="157" y="339.5332">&#160;</text><text fill="#000000" font-family="sans-serif" font-size="14" lengthAdjust="spacing" textLength="62" x="161" y="339.5332">screening</text></a></g><!--link eve_HxTotalColectomy to end_1--><g id="link_eve_HxTotalColectomy_end_1"><path d="M373.5,51.46 C373.5,121.4 373.5,321.43 373.5,327.85 " fill="none" id="eve_HxTotalColectomy-to-end_1" style="stroke:#181818;stroke-width:1.0;"/><polygon fill="#181818" points="373.5,333.85,377.5,324.85,373.5,328.85,369.5,324.85,373.5,333.85" style="stroke:#181818;stroke-width:1.0;"/><text fill="#000000" font-family="sans-serif" font-size="13" lengthAdjust="spacing" textLength="21" x="351.5" y="189.1451">yes</text></g><!--link eve_HxTotalColectomy to eve_ActiveCRC--><g id="link_eve_HxTotalColectomy_eve_ActiveCRC"><path d="M308,51.03 C308,68.62 308,86.97 308,104.65 " fill="none" id="eve_HxTotalColectomy-to-eve_ActiveCRC" style="stroke:#181818;stroke-width:1.0;"/><polygon fill="#181818" points="308,110.65,312,101.65,308,105.65,304,101.65,308,110.65" style="stroke:#181818;stroke-width:1.0;"/><text fill="#000000" font-family="sans-serif" font-size="13" lengthAdjust="spacing" textLength="14" x="293" y="77.3351">no</text></g><!--link eve_ActiveCRC to end_1--><g id="link_eve_ActiveCRC_end_1"><path d="M354,139.72 C354,168.67 354,284.27 354,318.81 " fill="none" id="eve_ActiveCRC-to-end_1" style="stroke:#181818;stroke-width:1.0;"/><polygon fill="#181818" points="354,324.81,358,315.81,354,319.81,350,315.81,354,324.81" style="stroke:#181818;stroke-width:1.0;"/><text fill="#000000" font-family="sans-serif" font-size="13" lengthAdjust="spacing" textLength="21" x="332" y="228.7651">yes</text></g><!--link eve_ActiveCRC to eve_Symptomatic--><g id="link_eve_ActiveCRC_eve_Symptomatic"><path d="M217.5,156.37 C217.5,174.87 217.5,194.34 217.5,209.96 " fill="none" id="eve_ActiveCRC-to-eve_Symptomatic" style="stroke:#181818;stroke-width:1.0;"/><polygon fill="#181818" points="217.5,215.96,221.5,206.96,217.5,210.96,213.5,206.96,217.5,215.96" style="stroke:#181818;stroke-width:1.0;"/><text fill="#000000" font-family="sans-serif" font-size="13" lengthAdjust="spacing" textLength="14" x="202.5" y="182.6551">no</text></g><!--link eve_Symptomatic to end_1--><g id="link_eve_Symptomatic_end_1"><path d="M298.16,230 C321.89,230 339,230 339,230 C339,230 339,324.78 339,327.92 " fill="none" id="eve_Symptomatic-to-end_1" style="stroke:#181818;stroke-width:1.0;"/><polygon fill="#181818" points="339,333.92,343,324.92,339,328.92,335,324.92,339,333.92" style="stroke:#181818;stroke-width:1.0;"/><text fill="#000000" font-family="sans-serif" font-size="13" lengthAdjust="spacing" textLength="21" x="317" y="258.0351">yes</text></g><!--link eve_Symptomatic to act_ScreeningEligible--><g id="link_eve_Symptomatic_act_ScreeningEligible"><path d="M157,244.03 C157,262.32 157,288.41 157,308.91 " fill="none" id="eve_Symptomatic-to-act_ScreeningEligible" style="stroke:#181818;stroke-width:1.0;"/><polygon fill="#181818" points="157,314.91,161,305.91,157,309.91,153,305.91,157,314.91" style="stroke:#181818;stroke-width:1.0;"/><text fill="#000000" font-family="sans-serif" font-size="13" lengthAdjust="spacing" textLength="14" x="142" y="275.9651">no</text></g><!--SRC=[VP11JuD048Nl_8e9FQFMQ688mRJKs8DUR1CFfcdMPGgRmcwpkssAnl_k0AMKKkK0vBsPRzvCAc84Or6ZiiK67RCMSiCqoo4J4ai9bBQfSW9ZYmn39yKzIvI4RmVeUMLxaM_pTn7Rr8VX_GrKyfZnzRDMMnb7AbFQXz7TP3nvgCqN0izJmTSIZQ6cLZqKQunhRQgq-5BIicoKYKJcAAqFdDwedHz78xTC9XbUp7BRPFaVSeKoFlJtGW_gr5GLN9zjxqw5iKeNe5PW5R61gupogBnmWHd07Iwd-tdfH8q17ny3qhrpVR5eiT5MQue6LO9olmmY9ZdgnoDsnAtOOVGMDRoZq06rW5cHRsYEQH47XLd16yY9H1WkDAUxkdISkad6oo440Nt3yEJmxXETL7pItqffC5mZIY6JgeTnkvmroh6Enf7XzGmQUkbcdXTMitqeqFnPSNeL7wHoEagVqR6wzoZRmJaJ-uIkUN7LalGB]--></g></svg>