<svg xmlns="http://www.w3.org/2000/svg" xmlns:xlink="http://www.w3.org/1999/xlink" contentStyleType="text/css" height="718px" preserveAspectRatio="none" style="width:707px;height:718px;background:#FFFFFF;" version="1.1" viewBox="0 0 707 718" width="707px" zoomAndPan="magnify"><defs/><g><!--entity eve_lastTestColonoscopy--><g id="elem_eve_lastTestColonoscopy"><a href="#eve-lastTestColonoscopy" target="_top" title="#eve-lastTestColonoscopy" xlink:actuate="onRequest" xlink:href="#eve-lastTestColonoscopy" xlink:show="new" xlink:title="#eve-lastTestColonoscopy" xlink:type="simple"><polygon fill="#A4DBD8" points="690,35.73,633.5,6,520.5,6,464,35.73,520.5,65.47,633.5,65.47,690,35.73" style="stroke:#FF0000;stroke-width:1.0;"/><text fill="#000000" font-family="sans-serif" font-size="14" lengthAdjust="spacing" textLength="33" x="520.5" y="24.5352">Most</text><text fill="#000000" font-family="sans-serif" font-size="14" lengthAdjust="spacing" textLength="4" x="553.5" y="24.5352">&#160;</text><text fill="#000000" font-family="sans-serif" font-size="14" lengthAdjust="spacing" textLength="43" x="557.5" y="24.5352">recent</text><text fill="#000000" font-family="sans-serif" font-size="14" lengthAdjust="spacing" textLength="4" x="600.5" y="24.5352">&#160;</text><text fill="#000000" font-family="sans-serif" font-size="14" lengthAdjust="spacing" textLength="29" x="604.5" y="24.5352">CRC</text><text fill="#000000" font-family="sans-serif" font-size="14" lengthAdjust="spacing" textLength="67" x="521.5" y="41.0234">screening</text><text fill="#000000" font-family="sans-serif" font-size="14" lengthAdjust="spacing" textLength="4" x="588.5" y="41.0234">&#160;</text><text fill="#000000" font-family="sans-serif" font-size="14" lengthAdjust="spacing" textLength="25" x="592.5" y="41.0234">test</text><text fill="#000000" font-family="sans-serif" font-size="14" lengthAdjust="spacing" textLength="4" x="617.5" y="41.0234">&#160;</text><text fill="#000000" font-family="sans-serif" font-size="14" lengthAdjust="spacing" textLength="11" x="621.5" y="41.0234">is</text><text fill="#000000" font-family="sans-serif" font-size="14" lengthAdjust="spacing" textLength="92" x="531" y="57.5117">colonoscopy?</text></a></g><!--entity eve_abnormalStoolTest--><g id="elem_eve_abnormalStoolTest"><a href="#eve-abnormalStoolTest" target="_top" title="#eve-abnormalStoolTest" xlink:actuate="onRequest" xlink:href="#eve-abnormalStoolTest" xlink:show="new" xlink:title="#eve-abnormalStoolTest" xlink:type="simple"><polygon fill="#A4DBD8" points="602,146.96,543,125.47,425,125.47,366,146.96,425,168.44,543,168.44,602,146.96" style="stroke:#FF0000;stroke-width:1.0;"/><text fill="#000000" font-family="sans-serif" font-size="14" lengthAdjust="spacing" textLength="68" x="450" y="144.0052">Abnormal</text><text fill="#000000" font-family="sans-serif" font-size="14" lengthAdjust="spacing" textLength="83" x="425" y="160.4934">stool-based</text><text fill="#000000" font-family="sans-serif" font-size="14" lengthAdjust="spacing" textLength="4" x="508" y="160.4934">&#160;</text><text fill="#000000" font-family="sans-serif" font-size="14" lengthAdjust="spacing" textLength="31" x="512" y="160.4934">test?</text></a></g><!--entity eve_abnormalFlexibleSigmoidoscopy--><g id="elem_eve_abnormalFlexibleSigmoidoscopy"><a href="#eve-abnormalFlexibleSigmoidoscopy" target="_top" title="#eve-abnormalFlexibleSigmoidoscopy" xlink:actuate="onRequest" xlink:href="#eve-abnormalFlexibleSigmoidoscopy" xlink:show="new" xlink:title="#eve-abnormalFlexibleSigmoidoscopy" xlink:type="simple"><polygon fill="#A4DBD8" points="607,249.93,545.5,228.44,422.5,228.44,361,249.93,422.5,271.42,545.5,271.42,607,249.93" style="stroke:#FF0000;stroke-width:1.0;"/><text fill="#000000" font-family="sans-serif" font-size="14" lengthAdjust="spacing" textLength="68" x="422.5" y="246.9752">Abnormal</text><text fill="#000000" font-family="sans-serif" font-size="14" lengthAdjust="spacing" textLength="4" x="490.5" y="246.9752">&#160;</text><text fill="#000000" font-family="sans-serif" font-size="14" lengthAdjust="spacing" textLength="51" x="494.5" y="246.9752">flexible</text><text fill="#000000" font-family="sans-serif" font-size="14" lengthAdjust="spacing" textLength="109" x="429.5" y="263.4634">sigmoidoscopy?</text></a></g><!--entity eve_abnormalCTColonography--><g id="elem_eve_abnormalCTColonography"><a href="#eve-abnormalCTColonography" target="_top" title="#eve-abnormalCTColonography" xlink:actuate="onRequest" xlink:href="#eve-abnormalCTColonography" xlink:show="new" xlink:title="#eve-abnormalCTColonography" xlink:type="simple"><polygon fill="#A4DBD8" points="609,352.91,558.5,331.42,457.5,331.42,407,352.91,457.5,374.4,558.5,374.4,609,352.91" style="stroke:#FF0000;stroke-width:1.0;"/><text fill="#000000" font-family="sans-serif" font-size="14" lengthAdjust="spacing" textLength="68" x="462.5" y="349.9552">Abnormal</text><text fill="#000000" font-family="sans-serif" font-size="14" lengthAdjust="spacing" textLength="4" x="530.5" y="349.9552">&#160;</text><text fill="#000000" font-family="sans-serif" font-size="14" lengthAdjust="spacing" textLength="19" x="534.5" y="349.9552">CT</text><text fill="#000000" font-family="sans-serif" font-size="14" lengthAdjust="spacing" textLength="101" x="457.5" y="366.4434">colonography?</text></a></g><!--entity eve_pendingColonoscopy--><g id="elem_eve_pendingColonoscopy"><a href="#eve-pendingColonoscopy" target="_top" title="#eve-pendingColonoscopy" xlink:actuate="onRequest" xlink:href="#eve-pendingColonoscopy" xlink:show="new" xlink:title="#eve-pendingColonoscopy" xlink:type="simple"><polygon fill="#A4DBD8" points="455,455.89,382,434.4,236,434.4,163,455.89,236,477.37,382,477.37,455,455.89" style="stroke:#FF0000;stroke-width:1.0;"/><text fill="#000000" font-family="sans-serif" font-size="14" lengthAdjust="spacing" textLength="56" x="236" y="452.9352">Pending</text><text fill="#000000" font-family="sans-serif" font-size="14" lengthAdjust="spacing" textLength="4" x="292" y="452.9352">&#160;</text><text fill="#000000" font-family="sans-serif" font-size="14" lengthAdjust="spacing" textLength="86" x="296" y="452.9352">colonoscopy</text><text fill="#000000" font-family="sans-serif" font-size="14" lengthAdjust="spacing" textLength="38" x="250" y="469.4234">order</text><text fill="#000000" font-family="sans-serif" font-size="14" lengthAdjust="spacing" textLength="4" x="288" y="469.4234">&#160;</text><text fill="#000000" font-family="sans-serif" font-size="14" lengthAdjust="spacing" textLength="15" x="292" y="469.4234">or</text><text fill="#000000" font-family="sans-serif" font-size="14" lengthAdjust="spacing" textLength="4" x="307" y="469.4234">&#160;</text><text fill="#000000" font-family="sans-serif" font-size="14" lengthAdjust="spacing" textLength="57" x="311" y="469.4234">referral?</text></a></g><!--entity act_FollowUpColonoscopy--><g id="elem_act_FollowUpColonoscopy"><a href="#act-FollowUpColonoscopy" target="_top" title="#act-FollowUpColonoscopy" xlink:actuate="onRequest" xlink:href="#act-FollowUpColonoscopy" xlink:show="new" xlink:title="#act-FollowUpColonoscopy" xlink:type="simple"><rect fill="#F1F1F1" height="52.9766" rx="2.5" ry="2.5" style="stroke:#181818;stroke-width:0.5;" width="256" x="7" y="537.37"/><text fill="#000000" font-family="sans-serif" font-size="14" lengthAdjust="spacing" textLength="124" x="17" y="560.9052">Recommendation:</text><text fill="#000000" font-family="sans-serif" font-size="14" lengthAdjust="spacing" textLength="4" x="141" y="560.9052">&#160;</text><text fill="#000000" font-family="sans-serif" font-size="14" lengthAdjust="spacing" textLength="40" x="145" y="560.9052">Order</text><text fill="#000000" font-family="sans-serif" font-size="14" lengthAdjust="spacing" textLength="4" x="185" y="560.9052">&#160;</text><text fill="#000000" font-family="sans-serif" font-size="14" lengthAdjust="spacing" textLength="42" x="189" y="560.9052">follow</text><text fill="#000000" font-family="sans-serif" font-size="14" lengthAdjust="spacing" textLength="4" x="231" y="560.9052">&#160;</text><text fill="#000000" font-family="sans-serif" font-size="14" lengthAdjust="spacing" textLength="18" x="235" y="560.9052">up</text><text fill="#000000" font-family="sans-serif" font-size="14" lengthAdjust="spacing" textLength="86" x="92" y="577.3934">colonoscopy</text></a></g><!--entity act_continueRoutineScreening--><g id="elem_act_continueRoutineScreening"><a href="#act-continueRoutineScreening" target="_top" title="#act-continueRoutineScreening" xlink:actuate="onRequest" xlink:href="#act-continueRoutineScreening" xlink:show="new" xlink:title="#act-continueRoutineScreening" xlink:type="simple"><rect fill="#F1F1F1" height="52.9766" rx="2.5" ry="2.5" style="stroke:#181818;stroke-width:0.5;" width="265" x="369.5" y="537.37"/><text fill="#000000" font-family="sans-serif" font-size="14" lengthAdjust="spacing" textLength="124" x="379.5" y="560.9052">Recommendation:</text><text fill="#000000" font-family="sans-serif" font-size="14" lengthAdjust="spacing" textLength="4" x="503.5" y="560.9052">&#160;</text><text fill="#000000" font-family="sans-serif" font-size="14" lengthAdjust="spacing" textLength="63" x="507.5" y="560.9052">Continue</text><text fill="#000000" font-family="sans-serif" font-size="14" lengthAdjust="spacing" textLength="4" x="570.5" y="560.9052">&#160;</text><text fill="#000000" font-family="sans-serif" font-size="14" lengthAdjust="spacing" textLength="50" x="574.5" y="560.9052">routine</text><text fill="#000000" font-family="sans-serif" font-size="14" lengthAdjust="spacing" textLength="67" x="468.5" y="577.3934">screening</text></a></g><!--entity end_1--><g id="elem_end_1"><ellipse cx="409" cy="679.35" fill="#A4DBD8" rx="8" ry="8" style="stroke:#181818;stroke-width:0.5;"/><text fill="#000000" font-family="sans-serif" font-size="14" lengthAdjust="spacing" textLength="26" x="396" y="709.8852">end</text></g><!--link eve_lastTestColonoscopy to end_1--><g id="link_eve_lastTestColonoscopy_end_1"><path d="M662.25,50.7 C662.25,147.33 662.25,679.35 662.25,679.35 C662.25,679.35 468.25,679.35 423.72,679.35 " fill="none" id="eve_lastTestColonoscopy-to-end_1" style="stroke:#181818;stroke-width:1.0;"/><polygon fill="#181818" points="417.72,679.35,426.72,683.35,422.72,679.35,426.72,675.35,417.72,679.35" style="stroke:#181818;stroke-width:1.0;"/><text fill="#000000" font-family="sans-serif" font-size="13" lengthAdjust="spacing" textLength="21" x="640.25" y="483.8584">yes</text></g><!--link eve_lastTestColonoscopy to eve_abnormalStoolTest--><g id="link_eve_lastTestColonoscopy_eve_abnormalStoolTest"><path d="M533,65.83 C533,84.62 533,102.36 533,119.3 " fill="none" id="eve_lastTestColonoscopy-to-eve_abnormalStoolTest" style="stroke:#181818;stroke-width:1.0;"/><polygon fill="#181818" points="533,125.3,537,116.3,533,120.3,529,116.3,533,125.3" style="stroke:#181818;stroke-width:1.0;"/><text fill="#000000" font-family="sans-serif" font-size="13" lengthAdjust="spacing" textLength="16" x="516" y="92.1384">no</text></g><!--link eve_abnormalStoolTest to eve_pendingColonoscopy--><g id="link_eve_abnormalStoolTest_eve_pendingColonoscopy"><path d="M365.85,147.35 C312.83,147.35 262,147.35 262,147.35 C262,147.35 262,357.96 262,428.19 " fill="none" id="eve_abnormalStoolTest-to-eve_pendingColonoscopy" style="stroke:#181818;stroke-width:1.0;"/><polygon fill="#181818" points="262,434.19,266,425.19,262,429.19,258,425.19,262,434.19" style="stroke:#181818;stroke-width:1.0;"/><text fill="#000000" font-family="sans-serif" font-size="13" lengthAdjust="spacing" textLength="21" x="240" y="235.4084">yes</text></g><!--link eve_abnormalStoolTest to eve_abnormalFlexibleSigmoidoscopy--><g id="link_eve_abnormalStoolTest_eve_abnormalFlexibleSigmoidoscopy"><path d="M484,168.79 C484,186.27 484,204.66 484,222.12 " fill="none" id="eve_abnormalStoolTest-to-eve_abnormalFlexibleSigmoidoscopy" style="stroke:#181818;stroke-width:1.0;"/><polygon fill="#181818" points="484,228.12,488,219.12,484,223.12,480,219.12,484,228.12" style="stroke:#181818;stroke-width:1.0;"/><text fill="#000000" font-family="sans-serif" font-size="13" lengthAdjust="spacing" textLength="16" x="467" y="195.0284">no</text></g><!--link eve_abnormalFlexibleSigmoidoscopy to eve_pendingColonoscopy--><g id="link_eve_abnormalFlexibleSigmoidoscopy_eve_pendingColonoscopy"><path d="M384,258.26 C384,288.06 384,383.98 384,428.64 " fill="none" id="eve_abnormalFlexibleSigmoidoscopy-to-eve_pendingColonoscopy" style="stroke:#181818;stroke-width:1.0;"/><polygon fill="#181818" points="384,434.64,388,425.64,384,429.64,380,425.64,384,434.64" style="stroke:#181818;stroke-width:1.0;"/><text fill="#000000" font-family="sans-serif" font-size="13" lengthAdjust="spacing" textLength="21" x="362" y="343.0184">yes</text></g><!--link eve_abnormalFlexibleSigmoidoscopy to eve_abnormalCTColonography--><g id="link_eve_abnormalFlexibleSigmoidoscopy_eve_abnormalCTColonography"><path d="M507,271.77 C507,289.25 507,307.63 507,325.1 " fill="none" id="eve_abnormalFlexibleSigmoidoscopy-to-eve_abnormalCTColonography" style="stroke:#181818;stroke-width:1.0;"/><polygon fill="#181818" points="507,331.1,511,322.1,507,326.1,503,322.1,507,331.1" style="stroke:#181818;stroke-width:1.0;"/><text fill="#000000" font-family="sans-serif" font-size="13" lengthAdjust="spacing" textLength="16" x="490" y="298.0084">no</text></g><!--link eve_abnormalCTColonography to eve_pendingColonoscopy--><g id="link_eve_abnormalCTColonography_eve_pendingColonoscopy"><path d="M431,363.54 C431,384.4 431,424.25 431,442.33 " fill="none" id="eve_abnormalCTColonography-to-eve_pendingColonoscopy" style="stroke:#181818;stroke-width:1.0;"/><polygon fill="#181818" points="431,448.33,435,439.33,431,443.33,427,439.33,431,448.33" style="stroke:#181818;stroke-width:1.0;"/><text fill="#000000" font-family="sans-serif" font-size="13" lengthAdjust="spacing" textLength="21" x="409" y="402.5084">yes</text></g><!--link eve_abnormalCTColonography to act_continueRoutineScreening--><g id="link_eve_abnormalCTColonography_act_continueRoutineScreening"><path d="M532,374.69 C532,413.53 532,488.65 532,530.93 " fill="none" id="eve_abnormalCTColonography-to-act_continueRoutineScreening" style="stroke:#181818;stroke-width:1.0;"/><polygon fill="#181818" points="532,536.93,536,527.93,532,531.93,528,527.93,532,536.93" style="stroke:#181818;stroke-width:1.0;"/><text fill="#000000" font-family="sans-serif" font-size="13" lengthAdjust="spacing" textLength="16" x="515" y="452.3784">no</text></g><!--link eve_pendingColonoscopy to end_1--><g id="link_eve_pendingColonoscopy_end_1"><path d="M316.25,477.63 C316.25,532.15 316.25,670.35 316.25,670.35 C316.25,670.35 370.89,670.35 394.11,670.35 " fill="none" id="eve_pendingColonoscopy-to-end_1" style="stroke:#181818;stroke-width:1.0;"/><polygon fill="#181818" points="400.11,670.35,391.11,666.35,395.11,670.35,391.11,674.35,400.11,670.35" style="stroke:#181818;stroke-width:1.0;"/><text fill="#000000" font-family="sans-serif" font-size="13" lengthAdjust="spacing" textLength="21" x="294.25" y="612.4884">yes</text></g><!--link eve_pendingColonoscopy to act_FollowUpColonoscopy--><g id="link_eve_pendingColonoscopy_act_FollowUpColonoscopy"><path d="M213,470.9 C213,487.94 213,510.06 213,530.92 " fill="none" id="eve_pendingColonoscopy-to-act_FollowUpColonoscopy" style="stroke:#181818;stroke-width:1.0;"/><polygon fill="#181818" points="213,536.92,217,527.92,213,531.92,209,527.92,213,536.92" style="stroke:#181818;stroke-width:1.0;"/><text fill="#000000" font-family="sans-serif" font-size="13" lengthAdjust="spacing" textLength="16" x="196" y="500.4784">no</text></g><!--link act_FollowUpColonoscopy to end_1--><g id="link_act_FollowUpColonoscopy_end_1"><path d="M135,590.78 C135,627.65 135,689.35 135,689.35 C135,689.35 398.74,689.35 402.95,689.35 " fill="none" id="act_FollowUpColonoscopy-to-end_1" style="stroke:#181818;stroke-width:1.0;"/><polygon fill="#181818" points="408.95,689.35,399.95,685.35,403.95,689.35,399.95,693.35,408.95,689.35" style="stroke:#181818;stroke-width:1.0;"/></g><!--link act_continueRoutineScreening to end_1--><g id="link_act_continueRoutineScreening_end_1"><path d="M409,590.65 C409,616.37 409,647.72 409,664.55 " fill="none" id="act_continueRoutineScreening-to-end_1" style="stroke:#181818;stroke-width:1.0;"/><polygon fill="#181818" points="409,670.55,413,661.55,409,665.55,405,661.55,409,670.55" style="stroke:#181818;stroke-width:1.0;"/></g><!--SRC=[bP9FRzf04CNl_XIZv4pRLArKMOYAE4fxQDGAY7g88hIi1tl5UiVQNLferU_UyHymmOkbS33MlZVp6- -yNAK8pgD5yliI8xTHfXHM5A2LmUe8oFgSeh7pUusJACUToCZ0tmZuzo1sgjWMFrNgynXkFhw3-lXMoCqNIrkJ9gJ9nZ3zS7TxzwaHlt7ZHQxang1pNDITjcQBQNFsbQpwGyOBFTKgCmKQ7uFa9zheNsHHUc4oZS5PtXzc6Mxo1atQrlU6lcwcPjVuxTdNNpsGypnerGUIMG9EMaIZJ0OUML4E93Snv2IL-yzN81pWBrnguVo23KadmjFJDKkZWFJyt06dAqEs49gNHQH7A-7ubYfMrroqbddbg5eTMlU4OEErnfrQyNKwbHMaqlFP3rtkMz_yr7QE2fg2s6JHNbLcHPa7UCaYET7FGI_LKy8FNcsra9D5S9PJjFparQtHMg4xNDdO0vlfAupfqdSrGqa5voeLNf69uNiDMPFMz1ksvUa0DKr8lxolrSVo3CVIA20Dyn9Ejp9R10ulls0NnYDEjfPPuvWVqzeoB-aCbihAYigyvgvCkho1yPZ_9vFeGgX7eqdjYs6FRiWKYcqCXgAWqbRq5z9nBjKC1hD73BfUGH-g3oUtDy9B-HNiNk5G08xOVkV-3eEU2sck6r_G3fsZeSaEfly0]--></g></svg>