<svg xmlns="http://www.w3.org/2000/svg" xmlns:xlink="http://www.w3.org/1999/xlink" contentStyleType="text/css" height="1032px" preserveAspectRatio="none" style="width:813px;height:1032px;background:#FFFFFF;" version="1.1" viewBox="0 0 813 1032" width="813px" zoomAndPan="magnify"><defs/><g><!--entity eve_lastTestColonoscopy--><g id="elem_eve_lastTestColonoscopy"><a href="#eve-lastTestColonoscopy" target="_top" title="#eve-lastTestColonoscopy" xlink:actuate="onRequest" xlink:href="#eve-lastTestColonoscopy" xlink:show="new" xlink:title="#eve-lastTestColonoscopy" xlink:type="simple"><polygon fill="#A4DBD8" points="431,28.5,361,6,221,6,151,28.5,221,51,361,51,431,28.5" style="stroke:#FF0000;stroke-width:1.0;"/><text fill="#000000" font-family="sans-serif" font-size="14" lengthAdjust="spacing" textLength="30" x="221" y="25.5332">Most</text><text fill="#000000" font-family="sans-serif" font-size="14" lengthAdjust="spacing" textLength="4" x="251" y="25.5332">&#160;</text><text fill="#000000" font-family="sans-serif" font-size="14" lengthAdjust="spacing" textLength="40" x="255" y="25.5332">recent</text><text fill="#000000" font-family="sans-serif" font-size="14" lengthAdjust="spacing" textLength="4" x="295" y="25.5332">&#160;</text><text fill="#000000" font-family="sans-serif" font-size="14" lengthAdjust="spacing" textLength="62" x="299" y="25.5332">screening</text><text fill="#000000" font-family="sans-serif" font-size="14" lengthAdjust="spacing" textLength="23" x="227" y="43.1426">test</text><text fill="#000000" font-family="sans-serif" font-size="14" lengthAdjust="spacing" textLength="4" x="250" y="43.1426">&#160;</text><text fill="#000000" font-family="sans-serif" font-size="14" lengthAdjust="spacing" textLength="10" x="254" y="43.1426">is</text><text fill="#000000" font-family="sans-serif" font-size="14" lengthAdjust="spacing" textLength="4" x="264" y="43.1426">&#160;</text><text fill="#000000" font-family="sans-serif" font-size="14" lengthAdjust="spacing" textLength="87" x="268" y="43.1426">colonoscopy?</text></a></g><!--entity eve_lastTestStool--><g id="elem_eve_lastTestStool"><a href="#eve-lastTestStool" target="_top" title="#eve-lastTestStool" xlink:actuate="onRequest" xlink:href="#eve-lastTestStool" xlink:show="new" xlink:title="#eve-lastTestStool" xlink:type="simple"><polygon fill="#A4DBD8" points="441,133.5,366,111,216,111,141,133.5,216,156,366,156,441,133.5" style="stroke:#FF0000;stroke-width:1.0;"/><text fill="#000000" font-family="sans-serif" font-size="14" lengthAdjust="spacing" textLength="30" x="221" y="130.5332">Most</text><text fill="#000000" font-family="sans-serif" font-size="14" lengthAdjust="spacing" textLength="4" x="251" y="130.5332">&#160;</text><text fill="#000000" font-family="sans-serif" font-size="14" lengthAdjust="spacing" textLength="40" x="255" y="130.5332">recent</text><text fill="#000000" font-family="sans-serif" font-size="14" lengthAdjust="spacing" textLength="4" x="295" y="130.5332">&#160;</text><text fill="#000000" font-family="sans-serif" font-size="14" lengthAdjust="spacing" textLength="62" x="299" y="130.5332">screening</text><text fill="#000000" font-family="sans-serif" font-size="14" lengthAdjust="spacing" textLength="23" x="216" y="148.1426">test</text><text fill="#000000" font-family="sans-serif" font-size="14" lengthAdjust="spacing" textLength="4" x="239" y="148.1426">&#160;</text><text fill="#000000" font-family="sans-serif" font-size="14" lengthAdjust="spacing" textLength="10" x="243" y="148.1426">is</text><text fill="#000000" font-family="sans-serif" font-size="14" lengthAdjust="spacing" textLength="4" x="253" y="148.1426">&#160;</text><text fill="#000000" font-family="sans-serif" font-size="14" lengthAdjust="spacing" textLength="74" x="257" y="148.1426">stool-based</text><text fill="#000000" font-family="sans-serif" font-size="14" lengthAdjust="spacing" textLength="4" x="331" y="148.1426">&#160;</text><text fill="#000000" font-family="sans-serif" font-size="14" lengthAdjust="spacing" textLength="31" x="335" y="148.1426">test?</text></a></g><!--entity eve_abnormalStoolTest--><g id="elem_eve_abnormalStoolTest"><a href="#eve-abnormalStoolTest" target="_top" title="#eve-abnormalStoolTest" xlink:actuate="onRequest" xlink:href="#eve-abnormalStoolTest" xlink:show="new" xlink:title="#eve-abnormalStoolTest" xlink:type="simple"><polygon fill="#A4DBD8" points="270,379,206.5,356.5,79.5,356.5,16,379,79.5,401.5,206.5,401.5,270,379" style="stroke:#FF0000;stroke-width:1.0;"/><text fill="#000000" font-family="sans-serif" font-size="14" lengthAdjust="spacing" textLength="49" x="79.5" y="376.0332">Positive</text><text fill="#000000" font-family="sans-serif" font-size="14" lengthAdjust="spacing" textLength="4" x="128.5" y="376.0332">&#160;</text><text fill="#000000" font-family="sans-serif" font-size="14" lengthAdjust="spacing" textLength="74" x="132.5" y="376.0332">stool-based</text><text fill="#000000" font-family="sans-serif" font-size="14" lengthAdjust="spacing" textLength="31" x="127.5" y="393.6426">test?</text></a></g><!--entity eve_lastTestFlexSig--><g id="elem_eve_lastTestFlexSig"><a href="#eve-lastTestFlexSig" target="_top" title="#eve-lastTestFlexSig" xlink:actuate="onRequest" xlink:href="#eve-lastTestFlexSig" xlink:show="new" xlink:title="#eve-lastTestFlexSig" xlink:type="simple"><polygon fill="#A4DBD8" points="590,247.5,520,216,380,216,310,247.5,380,279,520,279,590,247.5" style="stroke:#FF0000;stroke-width:1.0;"/><text fill="#000000" font-family="sans-serif" font-size="14" lengthAdjust="spacing" textLength="30" x="380" y="235.5332">Most</text><text fill="#000000" font-family="sans-serif" font-size="14" lengthAdjust="spacing" textLength="4" x="410" y="235.5332">&#160;</text><text fill="#000000" font-family="sans-serif" font-size="14" lengthAdjust="spacing" textLength="40" x="414" y="235.5332">recent</text><text fill="#000000" font-family="sans-serif" font-size="14" lengthAdjust="spacing" textLength="4" x="454" y="235.5332">&#160;</text><text fill="#000000" font-family="sans-serif" font-size="14" lengthAdjust="spacing" textLength="62" x="458" y="235.5332">screening</text><text fill="#000000" font-family="sans-serif" font-size="14" lengthAdjust="spacing" textLength="23" x="408" y="253.1426">test</text><text fill="#000000" font-family="sans-serif" font-size="14" lengthAdjust="spacing" textLength="4" x="431" y="253.1426">&#160;</text><text fill="#000000" font-family="sans-serif" font-size="14" lengthAdjust="spacing" textLength="10" x="435" y="253.1426">is</text><text fill="#000000" font-family="sans-serif" font-size="14" lengthAdjust="spacing" textLength="4" x="445" y="253.1426">&#160;</text><text fill="#000000" font-family="sans-serif" font-size="14" lengthAdjust="spacing" textLength="43" x="449" y="253.1426">flexible</text><text fill="#000000" font-family="sans-serif" font-size="14" lengthAdjust="spacing" textLength="101" x="399.5" y="270.752">sigmoidoscopy?</text></a></g><!--entity eve_abnormalFlexSig--><g id="elem_eve_abnormalFlexSig"><a href="#eve-abnormalFlexSig" target="_top" title="#eve-abnormalFlexSig" xlink:actuate="onRequest" xlink:href="#eve-abnormalFlexSig" xlink:show="new" xlink:title="#eve-abnormalFlexSig" xlink:type="simple"><polygon fill="#A4DBD8" points="595,379,522.5,339,377.5,339,305,379,377.5,419,522.5,419,595,379" style="stroke:#FF0000;stroke-width:1.0;"/><text fill="#000000" font-family="sans-serif" font-size="14" lengthAdjust="spacing" textLength="48" x="377.5" y="358.5332">Flexible</text><text fill="#000000" font-family="sans-serif" font-size="14" lengthAdjust="spacing" textLength="4" x="425.5" y="358.5332">&#160;</text><text fill="#000000" font-family="sans-serif" font-size="14" lengthAdjust="spacing" textLength="93" x="429.5" y="358.5332">sigmoidoscopy</text><text fill="#000000" font-family="sans-serif" font-size="14" lengthAdjust="spacing" textLength="49" x="385" y="376.1426">findings</text><text fill="#000000" font-family="sans-serif" font-size="14" lengthAdjust="spacing" textLength="4" x="434" y="376.1426">&#160;</text><text fill="#000000" font-family="sans-serif" font-size="14" lengthAdjust="spacing" textLength="12" x="438" y="376.1426">of</text><text fill="#000000" font-family="sans-serif" font-size="14" lengthAdjust="spacing" textLength="4" x="450" y="376.1426">&#160;</text><text fill="#000000" font-family="sans-serif" font-size="14" lengthAdjust="spacing" textLength="61" x="454" y="376.1426">colorectal</text><text fill="#000000" font-family="sans-serif" font-size="14" lengthAdjust="spacing" textLength="43" x="386" y="393.752">cancer</text><text fill="#000000" font-family="sans-serif" font-size="14" lengthAdjust="spacing" textLength="4" x="429" y="393.752">&#160;</text><text fill="#000000" font-family="sans-serif" font-size="14" lengthAdjust="spacing" textLength="13" x="433" y="393.752">or</text><text fill="#000000" font-family="sans-serif" font-size="14" lengthAdjust="spacing" textLength="4" x="446" y="393.752">&#160;</text><text fill="#000000" font-family="sans-serif" font-size="14" lengthAdjust="spacing" textLength="64" x="450" y="393.752">neoplastic</text><text fill="#000000" font-family="sans-serif" font-size="14" lengthAdjust="spacing" textLength="59" x="420.5" y="411.3613">polyp(s)?</text></a></g><!--entity eve_lastTestCTC--><g id="elem_eve_lastTestCTC"><a href="#eve-lastTestCTC" target="_top" title="#eve-lastTestCTC" xlink:actuate="onRequest" xlink:href="#eve-lastTestCTC" xlink:show="new" xlink:title="#eve-lastTestCTC" xlink:type="simple"><polygon fill="#A4DBD8" points="788,510.5,718,479,578,479,508,510.5,578,542,718,542,788,510.5" style="stroke:#FF0000;stroke-width:1.0;"/><text fill="#000000" font-family="sans-serif" font-size="14" lengthAdjust="spacing" textLength="30" x="578" y="498.5332">Most</text><text fill="#000000" font-family="sans-serif" font-size="14" lengthAdjust="spacing" textLength="4" x="608" y="498.5332">&#160;</text><text fill="#000000" font-family="sans-serif" font-size="14" lengthAdjust="spacing" textLength="40" x="612" y="498.5332">recent</text><text fill="#000000" font-family="sans-serif" font-size="14" lengthAdjust="spacing" textLength="4" x="652" y="498.5332">&#160;</text><text fill="#000000" font-family="sans-serif" font-size="14" lengthAdjust="spacing" textLength="62" x="656" y="498.5332">screening</text><text fill="#000000" font-family="sans-serif" font-size="14" lengthAdjust="spacing" textLength="23" x="618" y="516.1426">test</text><text fill="#000000" font-family="sans-serif" font-size="14" lengthAdjust="spacing" textLength="4" x="641" y="516.1426">&#160;</text><text fill="#000000" font-family="sans-serif" font-size="14" lengthAdjust="spacing" textLength="10" x="645" y="516.1426">is</text><text fill="#000000" font-family="sans-serif" font-size="14" lengthAdjust="spacing" textLength="4" x="655" y="516.1426">&#160;</text><text fill="#000000" font-family="sans-serif" font-size="14" lengthAdjust="spacing" textLength="19" x="659" y="516.1426">CT</text><text fill="#000000" font-family="sans-serif" font-size="14" lengthAdjust="spacing" textLength="94" x="601" y="533.752">colonography?</text></a></g><!--entity eve_abnormalCTColonography--><g id="elem_eve_abnormalCTColonography"><a href="#eve-abnormalCTColonography" target="_top" title="#eve-abnormalCTColonography" xlink:actuate="onRequest" xlink:href="#eve-abnormalCTColonography" xlink:show="new" xlink:title="#eve-abnormalCTColonography" xlink:type="simple"><polygon fill="#A4DBD8" points="740,642,675,602,545,602,480,642,545,682,675,682,740,642" style="stroke:#FF0000;stroke-width:1.0;"/><text fill="#000000" font-family="sans-serif" font-size="14" lengthAdjust="spacing" textLength="19" x="554" y="621.5332">CT</text><text fill="#000000" font-family="sans-serif" font-size="14" lengthAdjust="spacing" textLength="4" x="573" y="621.5332">&#160;</text><text fill="#000000" font-family="sans-serif" font-size="14" lengthAdjust="spacing" textLength="89" x="577" y="621.5332">Colonography</text><text fill="#000000" font-family="sans-serif" font-size="14" lengthAdjust="spacing" textLength="49" x="545" y="639.1426">findings</text><text fill="#000000" font-family="sans-serif" font-size="14" lengthAdjust="spacing" textLength="4" x="594" y="639.1426">&#160;</text><text fill="#000000" font-family="sans-serif" font-size="14" lengthAdjust="spacing" textLength="12" x="598" y="639.1426">of</text><text fill="#000000" font-family="sans-serif" font-size="14" lengthAdjust="spacing" textLength="4" x="610" y="639.1426">&#160;</text><text fill="#000000" font-family="sans-serif" font-size="14" lengthAdjust="spacing" textLength="61" x="614" y="639.1426">colorectal</text><text fill="#000000" font-family="sans-serif" font-size="14" lengthAdjust="spacing" textLength="43" x="546" y="656.752">cancer</text><text fill="#000000" font-family="sans-serif" font-size="14" lengthAdjust="spacing" textLength="4" x="589" y="656.752">&#160;</text><text fill="#000000" font-family="sans-serif" font-size="14" lengthAdjust="spacing" textLength="13" x="593" y="656.752">or</text><text fill="#000000" font-family="sans-serif" font-size="14" lengthAdjust="spacing" textLength="4" x="606" y="656.752">&#160;</text><text fill="#000000" font-family="sans-serif" font-size="14" lengthAdjust="spacing" textLength="64" x="610" y="656.752">neoplastic</text><text fill="#000000" font-family="sans-serif" font-size="14" lengthAdjust="spacing" textLength="59" x="580.5" y="674.3613">polyp(s)?</text></a></g><!--entity eve_pendingColonoscopy--><g id="elem_eve_pendingColonoscopy"><a href="#eve-pendingColonoscopy" target="_top" title="#eve-pendingColonoscopy" xlink:actuate="onRequest" xlink:href="#eve-pendingColonoscopy" xlink:show="new" xlink:title="#eve-pendingColonoscopy" xlink:type="simple"><polygon fill="#A4DBD8" points="566,764.5,498.5,742,363.5,742,296,764.5,363.5,787,498.5,787,566,764.5" style="stroke:#FF0000;stroke-width:1.0;"/><text fill="#000000" font-family="sans-serif" font-size="14" lengthAdjust="spacing" textLength="52" x="363.5" y="761.5332">Pending</text><text fill="#000000" font-family="sans-serif" font-size="14" lengthAdjust="spacing" textLength="4" x="415.5" y="761.5332">&#160;</text><text fill="#000000" font-family="sans-serif" font-size="14" lengthAdjust="spacing" textLength="79" x="419.5" y="761.5332">colonoscopy</text><text fill="#000000" font-family="sans-serif" font-size="14" lengthAdjust="spacing" textLength="34" x="376.5" y="779.1426">order</text><text fill="#000000" font-family="sans-serif" font-size="14" lengthAdjust="spacing" textLength="4" x="410.5" y="779.1426">&#160;</text><text fill="#000000" font-family="sans-serif" font-size="14" lengthAdjust="spacing" textLength="13" x="414.5" y="779.1426">or</text><text fill="#000000" font-family="sans-serif" font-size="14" lengthAdjust="spacing" textLength="4" x="427.5" y="779.1426">&#160;</text><text fill="#000000" font-family="sans-serif" font-size="14" lengthAdjust="spacing" textLength="54" x="431.5" y="779.1426">referral?</text></a></g><!--entity act_continueRoutineScreening--><g id="elem_act_continueRoutineScreening"><a href="#act-continueRoutineScreening" target="_top" title="#act-continueRoutineScreening" xlink:actuate="onRequest" xlink:href="#act-continueRoutineScreening" xlink:show="new" xlink:title="#act-continueRoutineScreening" xlink:type="simple"><rect fill="#F1F1F1" height="55.2188" rx="2.5" ry="2.5" style="stroke:#181818;stroke-width:0.5;" width="243" x="35.5" y="847"/><text fill="#000000" font-family="sans-serif" font-size="14" lengthAdjust="spacing" textLength="114" x="45.5" y="871.5332">Recommendation:</text><text fill="#000000" font-family="sans-serif" font-size="14" lengthAdjust="spacing" textLength="4" x="159.5" y="871.5332">&#160;</text><text fill="#000000" font-family="sans-serif" font-size="14" lengthAdjust="spacing" textLength="57" x="163.5" y="871.5332">Continue</text><text fill="#000000" font-family="sans-serif" font-size="14" lengthAdjust="spacing" textLength="4" x="220.5" y="871.5332">&#160;</text><text fill="#000000" font-family="sans-serif" font-size="14" lengthAdjust="spacing" textLength="44" x="224.5" y="871.5332">routine</text><text fill="#000000" font-family="sans-serif" font-size="14" lengthAdjust="spacing" textLength="62" x="126" y="889.1426">screening</text></a></g><!--entity act_FollowUpColonoscopy--><g id="elem_act_FollowUpColonoscopy"><a href="#act-FollowUpColonoscopy" target="_top" title="#act-FollowUpColonoscopy" xlink:actuate="onRequest" xlink:href="#act-FollowUpColonoscopy" xlink:show="new" xlink:title="#act-FollowUpColonoscopy" xlink:type="simple"><rect fill="#F1F1F1" height="55.2188" rx="2.5" ry="2.5" style="stroke:#181818;stroke-width:0.5;" width="235" x="313.5" y="847"/><text fill="#000000" font-family="sans-serif" font-size="14" lengthAdjust="spacing" textLength="114" x="323.5" y="871.5332">Recommendation:</text><text fill="#000000" font-family="sans-serif" font-size="14" lengthAdjust="spacing" textLength="4" x="437.5" y="871.5332">&#160;</text><text fill="#000000" font-family="sans-serif" font-size="14" lengthAdjust="spacing" textLength="37" x="441.5" y="871.5332">Order</text><text fill="#000000" font-family="sans-serif" font-size="14" lengthAdjust="spacing" textLength="4" x="478.5" y="871.5332">&#160;</text><text fill="#000000" font-family="sans-serif" font-size="14" lengthAdjust="spacing" textLength="56" x="482.5" y="871.5332">follow-up</text><text fill="#000000" font-family="sans-serif" font-size="14" lengthAdjust="spacing" textLength="79" x="391.5" y="889.1426">colonoscopy</text></a></g><!--entity end_1--><g id="elem_end_1"><ellipse cx="516" cy="992" fill="#A4DBD8" rx="8" ry="8" style="stroke:#181818;stroke-width:0.5;"/><text fill="#000000" font-family="sans-serif" font-size="14" lengthAdjust="spacing" textLength="24" x="504" y="1023.5332">end</text></g><!--link eve_lastTestColonoscopy to end_1--><g id="link_eve_lastTestColonoscopy_end_1"><path d="M429.69,29 C582.22,29 806,29 806,29 C806,29 806,1007 806,1007 C806,1007 526.51,1007 522.05,1007 " fill="none" id="eve_lastTestColonoscopy-to-end_1" style="stroke:#181818;stroke-width:1.0;"/><polygon fill="#181818" points="516.05,1007,525.05,1011,521.05,1007,525.05,1003,516.05,1007" style="stroke:#181818;stroke-width:1.0;"/><text fill="#000000" font-family="sans-serif" font-size="13" lengthAdjust="spacing" textLength="21" x="784" y="471.3151">yes</text></g><!--link eve_lastTestColonoscopy to eve_lastTestStool--><g id="link_eve_lastTestColonoscopy_eve_lastTestStool"><path d="M291,51.03 C291,68.62 291,86.97 291,104.65 " fill="none" id="eve_lastTestColonoscopy-to-eve_lastTestStool" style="stroke:#181818;stroke-width:1.0;"/><polygon fill="#181818" points="291,110.65,295,101.65,291,105.65,287,101.65,291,110.65" style="stroke:#181818;stroke-width:1.0;"/><text fill="#000000" font-family="sans-serif" font-size="13" lengthAdjust="spacing" textLength="14" x="276" y="77.3351">no</text></g><!--link eve_lastTestStool to eve_abnormalStoolTest--><g id="link_eve_lastTestStool_eve_abnormalStoolTest"><path d="M205.5,153.18 C205.5,198.23 205.5,302.68 205.5,350.42 " fill="none" id="eve_lastTestStool-to-eve_abnormalStoolTest" style="stroke:#181818;stroke-width:1.0;"/><polygon fill="#181818" points="205.5,356.42,209.5,347.42,205.5,351.42,201.5,347.42,205.5,356.42" style="stroke:#181818;stroke-width:1.0;"/><text fill="#000000" font-family="sans-serif" font-size="13" lengthAdjust="spacing" textLength="21" x="183.5" y="251.2951">yes</text></g><!--link eve_lastTestStool to eve_lastTestFlexSig--><g id="link_eve_lastTestStool_eve_lastTestFlexSig"><path d="M375.5,153.36 C375.5,171.09 375.5,191.32 375.5,211.59 " fill="none" id="eve_lastTestStool-to-eve_lastTestFlexSig" style="stroke:#181818;stroke-width:1.0;"/><polygon fill="#181818" points="375.5,217.59,379.5,208.59,375.5,212.59,371.5,208.59,375.5,217.59" style="stroke:#181818;stroke-width:1.0;"/><text fill="#000000" font-family="sans-serif" font-size="13" lengthAdjust="spacing" textLength="14" x="360.5" y="181.9751">no</text></g><!--link eve_abnormalStoolTest to eve_pendingColonoscopy--><g id="link_eve_abnormalStoolTest_eve_pendingColonoscopy"><path d="M270.13,379 C288.04,379 300.5,379 300.5,379 C300.5,379 300.5,728.97 300.5,756.78 " fill="none" id="eve_abnormalStoolTest-to-eve_pendingColonoscopy" style="stroke:#181818;stroke-width:1.0;"/><polygon fill="#181818" points="300.5,762.78,304.5,753.78,300.5,757.78,296.5,753.78,300.5,762.78" style="stroke:#181818;stroke-width:1.0;"/><text fill="#000000" font-family="sans-serif" font-size="13" lengthAdjust="spacing" textLength="21" x="278.5" y="552.2051">yes</text></g><!--link eve_abnormalStoolTest to act_continueRoutineScreening--><g id="link_eve_abnormalStoolTest_act_continueRoutineScreening"><path d="M152.75,401.58 C152.75,482.51 152.75,752 152.75,840.72 " fill="none" id="eve_abnormalStoolTest-to-act_continueRoutineScreening" style="stroke:#181818;stroke-width:1.0;"/><polygon fill="#181818" points="152.75,846.72,156.75,837.72,152.75,841.72,148.75,837.72,152.75,846.72" style="stroke:#181818;stroke-width:1.0;"/><text fill="#000000" font-family="sans-serif" font-size="13" lengthAdjust="spacing" textLength="14" x="137.75" y="620.6451">no</text></g><!--link eve_lastTestFlexSig to eve_abnormalFlexSig--><g id="link_eve_lastTestFlexSig_eve_abnormalFlexSig"><path d="M450,279.33 C450,297.27 450,313.85 450,332.98 " fill="none" id="eve_lastTestFlexSig-to-eve_abnormalFlexSig" style="stroke:#181818;stroke-width:1.0;"/><polygon fill="#181818" points="450,338.98,454,329.98,450,333.98,446,329.98,450,338.98" style="stroke:#181818;stroke-width:1.0;"/><text fill="#000000" font-family="sans-serif" font-size="13" lengthAdjust="spacing" textLength="21" x="428" y="305.6451">yes</text></g><!--link eve_lastTestFlexSig to eve_lastTestCTC--><g id="link_eve_lastTestFlexSig_eve_lastTestCTC"><path d="M589.08,248 C642.77,248 691.5,248 691.5,248 C691.5,248 691.5,403.02 691.5,472.84 " fill="none" id="eve_lastTestFlexSig-to-eve_lastTestCTC" style="stroke:#181818;stroke-width:1.0;"/><polygon fill="#181818" points="691.5,478.84,695.5,469.84,691.5,473.84,687.5,469.84,691.5,478.84" style="stroke:#181818;stroke-width:1.0;"/><text fill="#000000" font-family="sans-serif" font-size="13" lengthAdjust="spacing" textLength="14" x="676.5" y="308.7051">no</text></g><!--link eve_abnormalFlexSig to eve_pendingColonoscopy--><g id="link_eve_abnormalFlexSig_eve_pendingColonoscopy"><path d="M392.5,419.16 C392.5,499.58 392.5,672.08 392.5,735.55 " fill="none" id="eve_abnormalFlexSig-to-eve_pendingColonoscopy" style="stroke:#181818;stroke-width:1.0;"/><polygon fill="#181818" points="392.5,741.55,396.5,732.55,392.5,736.55,388.5,732.55,392.5,741.55" style="stroke:#181818;stroke-width:1.0;"/><text fill="#000000" font-family="sans-serif" font-size="13" lengthAdjust="spacing" textLength="21" x="370.5" y="576.8551">yes</text></g><!--link eve_abnormalFlexSig to act_continueRoutineScreening--><g id="link_eve_abnormalFlexSig_act_continueRoutineScreening"><path d="M362.97,411 C318.17,411 272.83,411 272.83,411 C272.83,411 272.83,741.11 272.83,840.89 " fill="none" id="eve_abnormalFlexSig-to-act_continueRoutineScreening" style="stroke:#181818;stroke-width:1.0;"/><polygon fill="#181818" points="272.83,846.89,276.83,837.89,272.83,841.89,268.83,837.89,272.83,846.89" style="stroke:#181818;stroke-width:1.0;"/><text fill="#000000" font-family="sans-serif" font-size="13" lengthAdjust="spacing" textLength="14" x="257.83" y="580.3751">no</text></g><!--link eve_lastTestCTC to eve_abnormalCTColonography--><g id="link_eve_lastTestCTC_eve_abnormalCTColonography"><path d="M624,542.33 C624,560.27 624,576.85 624,595.98 " fill="none" id="eve_lastTestCTC-to-eve_abnormalCTColonography" style="stroke:#181818;stroke-width:1.0;"/><polygon fill="#181818" points="624,601.98,628,592.98,624,596.98,620,592.98,624,601.98" style="stroke:#181818;stroke-width:1.0;"/><text fill="#000000" font-family="sans-serif" font-size="13" lengthAdjust="spacing" textLength="21" x="602" y="568.6451">yes</text></g><!--link eve_lastTestCTC to end_1--><g id="link_eve_lastTestCTC_end_1"><path d="M764,521.46 C764,593.13 764,992 764,992 C764,992 575.86,992 531.12,992 " fill="none" id="eve_lastTestCTC-to-end_1" style="stroke:#181818;stroke-width:1.0;"/><polygon fill="#181818" points="525.12,992,534.12,996,530.12,992,534.12,988,525.12,992" style="stroke:#181818;stroke-width:1.0;"/><text fill="#000000" font-family="sans-serif" font-size="13" lengthAdjust="spacing" textLength="14" x="749" y="872.6651">no</text></g><!--link eve_abnormalCTColonography to eve_pendingColonoscopy--><g id="link_eve_abnormalCTColonography_eve_pendingColonoscopy"><path d="M523,668.58 C523,693.49 523,723.81 523,743.85 " fill="none" id="eve_abnormalCTColonography-to-eve_pendingColonoscopy" style="stroke:#181818;stroke-width:1.0;"/><polygon fill="#181818" points="523,749.85,527,740.85,523,744.85,519,740.85,523,749.85" style="stroke:#181818;stroke-width:1.0;"/><text fill="#000000" font-family="sans-serif" font-size="13" lengthAdjust="spacing" textLength="21" x="501" y="705.7151">yes</text></g><!--link eve_abnormalCTColonography to act_continueRoutineScreening--><g id="link_eve_abnormalCTColonography_act_continueRoutineScreening"><path d="M479.78,642 C385.91,642 275.67,642 275.67,642 C275.67,642 275.67,779.33 275.67,840.92 " fill="none" id="eve_abnormalCTColonography-to-act_continueRoutineScreening" style="stroke:#181818;stroke-width:1.0;"/><polygon fill="#181818" points="275.67,846.92,279.67,837.92,275.67,841.92,271.67,837.92,275.67,846.92" style="stroke:#181818;stroke-width:1.0;"/><text fill="#000000" font-family="sans-serif" font-size="13" lengthAdjust="spacing" textLength="14" x="260.67" y="638.8951">no</text></g><!--link eve_pendingColonoscopy to end_1--><g id="link_eve_pendingColonoscopy_end_1"><path d="M557.25,767.5 C557.25,793.33 557.25,977 557.25,977 C557.25,977 524.54,977 522.12,977 " fill="none" id="eve_pendingColonoscopy-to-end_1" style="stroke:#181818;stroke-width:1.0;"/><polygon fill="#181818" points="516.12,977,525.12,981,521.12,977,525.12,973,516.12,977" style="stroke:#181818;stroke-width:1.0;"/><text fill="#000000" font-family="sans-serif" font-size="13" lengthAdjust="spacing" textLength="21" x="558.25" y="889.3151">yes</text></g><!--link eve_pendingColonoscopy to act_FollowUpColonoscopy--><g id="link_eve_pendingColonoscopy_act_FollowUpColonoscopy"><path d="M431,787.03 C431,804.37 431,822.44 431,840.94 " fill="none" id="eve_pendingColonoscopy-to-act_FollowUpColonoscopy" style="stroke:#181818;stroke-width:1.0;"/><polygon fill="#181818" points="431,846.94,435,837.94,431,841.94,427,837.94,431,846.94" style="stroke:#181818;stroke-width:1.0;"/><text fill="#000000" font-family="sans-serif" font-size="13" lengthAdjust="spacing" textLength="14" x="416" y="813.4751">no</text></g><!--link act_continueRoutineScreening to end_1--><g id="link_act_continueRoutineScreening_end_1"><path d="M157,902.05 C157,936.78 157,992 157,992 C157,992 444.57,992 500.77,992 " fill="none" id="act_continueRoutineScreening-to-end_1" style="stroke:#181818;stroke-width:1.0;"/><polygon fill="#181818" points="506.77,992,497.77,988,501.77,992,497.77,996,506.77,992" style="stroke:#181818;stroke-width:1.0;"/></g><!--link act_FollowUpColonoscopy to end_1--><g id="link_act_FollowUpColonoscopy_end_1"><path d="M516,902.05 C516,928.1 516,959.67 516,976.83 " fill="none" id="act_FollowUpColonoscopy-to-end_1" style="stroke:#181818;stroke-width:1.0;"/><polygon fill="#181818" points="516,982.83,520,973.83,516,977.83,512,973.83,516,982.83" style="stroke:#181818;stroke-width:1.0;"/></g><!--SRC=[hLHDRnen4Btlhx38fJrisrIjLAqGLKAKzj2eLQ3g8OgGyGwBXTUpiaqQMkM_T_O3Th4N158vX6ZcpNlpF3CiPGhCEZ20RbD0P5TI5zpmd2cfeGmnD6w9qT2wZO9Hj8Hddg5cVoD6dpl-BFDr_akcRfcmou_lM1M-vcBrnU1QfsDKQ19szU7c-kPJdVn6nDEb52iDrb9H6st01j8wzXMD_8FQSNMbPAPpq2vXWlw2YLuY0y9ndIdexUNzjfVZ96z0fqrzqFH5tJMXXcyzzuCxj8uQBNcO5GP0Ivqn1nILbWaYq6W55flF0yOjWoUOAMxTb03ZDiaU7Yue5VUa7XzF5RCEKSLpRkdPobYeE2aHlbOLxAhyG2kTV88ZX7okqUHSLRKboPOqI9pU_aB1ivpJ5AtCSfJfeMUx9Tn4PhwD9jpLk-rbP0kfKnAs31VLWAhzKKnmBS3GbZCDM9IqKh02rQPuPL-7rhqslF3fjiVJPaiomujbtvfCny5wJCTT0Q8OToZ-aq4IwP9wFlUpU-i3bNftzqaphPKDBC0OhbgveeRt74EO8Pdss0Vt832dCqwvawWJUWFjf5u3ezkbVw1zx4gC2pSJ3UI-Hansqo19oiU7yiU5lrVk5gWK_exNHTVvJlcsoluiF9-bQ4-Az8GqeXGZcVgjT3gxPCCXVOz6qO7VaVY1fiFrwZ4ULVY4RS0U11F8_t58cCOeY3R8uBX3-YxSkymTTK0Jnqr5EF5M8QnglHuRRU2eQSVpj6lITxGFxrnWu6U7FCFDjcRhvJmhr8LdO_yiUyPVLzIxuVM_Ntk62Q_mpBc42d6mlRsO0sTL4HzJtj971mYs-Ny0]--></g></svg>