<svg xmlns="http://www.w3.org/2000/svg" xmlns:xlink="http://www.w3.org/1999/xlink" contentStyleType="text/css" height="654px" preserveAspectRatio="none" style="width:620px;height:654px;background:#FFFFFF;" version="1.1" viewBox="0 0 620 654" width="620px" zoomAndPan="magnify"><defs/><g><!--entity eve_CRCHereditarySyndrome--><g id="elem_eve_CRCHereditarySyndrome"><a href="#eve-CRCHereditarySyndrome" target="_top" title="#eve-CRCHereditarySyndrome" xlink:actuate="onRequest" xlink:href="#eve-CRCHereditarySyndrome" xlink:show="new" xlink:title="#eve-CRCHereditarySyndrome" xlink:type="simple"><polygon fill="#A4DBD8" points="603,43.98,535,6,399,6,331,43.98,399,81.96,535,81.96,603,43.98" style="stroke:#FF0000;stroke-width:1.0;"/><text fill="#000000" font-family="sans-serif" font-size="14" lengthAdjust="spacing" textLength="59" x="405.5" y="24.5352">Personal</text><text fill="#000000" font-family="sans-serif" font-size="14" lengthAdjust="spacing" textLength="4" x="464.5" y="24.5352">&#160;</text><text fill="#000000" font-family="sans-serif" font-size="14" lengthAdjust="spacing" textLength="15" x="468.5" y="24.5352">or</text><text fill="#000000" font-family="sans-serif" font-size="14" lengthAdjust="spacing" textLength="4" x="483.5" y="24.5352">&#160;</text><text fill="#000000" font-family="sans-serif" font-size="14" lengthAdjust="spacing" textLength="41" x="487.5" y="24.5352">family</text><text fill="#000000" font-family="sans-serif" font-size="14" lengthAdjust="spacing" textLength="47" x="399" y="41.0234">history</text><text fill="#000000" font-family="sans-serif" font-size="14" lengthAdjust="spacing" textLength="4" x="446" y="41.0234">&#160;</text><text fill="#000000" font-family="sans-serif" font-size="14" lengthAdjust="spacing" textLength="14" x="450" y="41.0234">of</text><text fill="#000000" font-family="sans-serif" font-size="14" lengthAdjust="spacing" textLength="4" x="464" y="41.0234">&#160;</text><text fill="#000000" font-family="sans-serif" font-size="14" lengthAdjust="spacing" textLength="67" x="468" y="41.0234">colorectal</text><text fill="#000000" font-family="sans-serif" font-size="14" lengthAdjust="spacing" textLength="45" x="407.5" y="57.5117">cancer</text><text fill="#000000" font-family="sans-serif" font-size="14" lengthAdjust="spacing" textLength="4" x="452.5" y="57.5117">&#160;</text><text fill="#000000" font-family="sans-serif" font-size="14" lengthAdjust="spacing" textLength="70" x="456.5" y="57.5117">hereditary</text><text fill="#000000" font-family="sans-serif" font-size="14" lengthAdjust="spacing" textLength="74" x="430" y="74">syndrome?</text></a></g><!--entity eve_IBD--><g id="elem_eve_IBD"><a href="#eve-IBD" target="_top" title="#eve-IBD" xlink:actuate="onRequest" xlink:href="#eve-IBD" xlink:show="new" xlink:title="#eve-IBD" xlink:type="simple"><polygon fill="#A4DBD8" points="509,171.69,441,141.96,305,141.96,237,171.69,305,201.42,441,201.42,509,171.69" style="stroke:#FF0000;stroke-width:1.0;"/><text fill="#000000" font-family="sans-serif" font-size="14" lengthAdjust="spacing" textLength="59" x="309" y="160.4952">Personal</text><text fill="#000000" font-family="sans-serif" font-size="14" lengthAdjust="spacing" textLength="4" x="368" y="160.4952">&#160;</text><text fill="#000000" font-family="sans-serif" font-size="14" lengthAdjust="spacing" textLength="47" x="372" y="160.4952">history</text><text fill="#000000" font-family="sans-serif" font-size="14" lengthAdjust="spacing" textLength="4" x="419" y="160.4952">&#160;</text><text fill="#000000" font-family="sans-serif" font-size="14" lengthAdjust="spacing" textLength="14" x="423" y="160.4952">of</text><text fill="#000000" font-family="sans-serif" font-size="14" lengthAdjust="spacing" textLength="91" x="305" y="176.9834">inflammatory</text><text fill="#000000" font-family="sans-serif" font-size="14" lengthAdjust="spacing" textLength="4" x="396" y="176.9834">&#160;</text><text fill="#000000" font-family="sans-serif" font-size="14" lengthAdjust="spacing" textLength="41" x="400" y="176.9834">bowel</text><text fill="#000000" font-family="sans-serif" font-size="14" lengthAdjust="spacing" textLength="57" x="344.5" y="193.4717">disease?</text></a></g><!--entity eve_HxCRC--><g id="elem_eve_HxCRC"><a href="#eve-HxCRC" target="_top" title="#eve-HxCRC" xlink:actuate="onRequest" xlink:href="#eve-HxCRC" xlink:show="new" xlink:title="#eve-HxCRC" xlink:type="simple"><polygon fill="#A4DBD8" points="438,282.91,374,261.42,246,261.42,182,282.91,246,304.4,374,304.4,438,282.91" style="stroke:#FF0000;stroke-width:1.0;"/><text fill="#000000" font-family="sans-serif" font-size="14" lengthAdjust="spacing" textLength="59" x="246" y="279.9552">Personal</text><text fill="#000000" font-family="sans-serif" font-size="14" lengthAdjust="spacing" textLength="4" x="305" y="279.9552">&#160;</text><text fill="#000000" font-family="sans-serif" font-size="14" lengthAdjust="spacing" textLength="47" x="309" y="279.9552">history</text><text fill="#000000" font-family="sans-serif" font-size="14" lengthAdjust="spacing" textLength="4" x="356" y="279.9552">&#160;</text><text fill="#000000" font-family="sans-serif" font-size="14" lengthAdjust="spacing" textLength="14" x="360" y="279.9552">of</text><text fill="#000000" font-family="sans-serif" font-size="14" lengthAdjust="spacing" textLength="67" x="249" y="296.4434">colorectal</text><text fill="#000000" font-family="sans-serif" font-size="14" lengthAdjust="spacing" textLength="4" x="316" y="296.4434">&#160;</text><text fill="#000000" font-family="sans-serif" font-size="14" lengthAdjust="spacing" textLength="51" x="320" y="296.4434">cancer?</text></a></g><!--entity eve_FamilyHx--><g id="elem_eve_FamilyHx"><a href="#eve-FamilyHx" target="_top" title="#eve-FamilyHx" xlink:actuate="onRequest" xlink:href="#eve-FamilyHx" xlink:show="new" xlink:title="#eve-FamilyHx" xlink:type="simple"><polygon fill="#A4DBD8" points="367,394.13,299.5,364.4,164.5,364.4,97,394.13,164.5,423.86,299.5,423.86,367,394.13" style="stroke:#FF0000;stroke-width:1.0;"/><text fill="#000000" font-family="sans-serif" font-size="14" lengthAdjust="spacing" textLength="44" x="175.5" y="382.9352">Family</text><text fill="#000000" font-family="sans-serif" font-size="14" lengthAdjust="spacing" textLength="4" x="219.5" y="382.9352">&#160;</text><text fill="#000000" font-family="sans-serif" font-size="14" lengthAdjust="spacing" textLength="47" x="223.5" y="382.9352">history</text><text fill="#000000" font-family="sans-serif" font-size="14" lengthAdjust="spacing" textLength="4" x="270.5" y="382.9352">&#160;</text><text fill="#000000" font-family="sans-serif" font-size="14" lengthAdjust="spacing" textLength="14" x="274.5" y="382.9352">of</text><text fill="#000000" font-family="sans-serif" font-size="14" lengthAdjust="spacing" textLength="67" x="164.5" y="399.4234">colorectal</text><text fill="#000000" font-family="sans-serif" font-size="14" lengthAdjust="spacing" textLength="4" x="231.5" y="399.4234">&#160;</text><text fill="#000000" font-family="sans-serif" font-size="14" lengthAdjust="spacing" textLength="45" x="235.5" y="399.4234">cancer</text><text fill="#000000" font-family="sans-serif" font-size="14" lengthAdjust="spacing" textLength="4" x="280.5" y="399.4234">&#160;</text><text fill="#000000" font-family="sans-serif" font-size="14" lengthAdjust="spacing" textLength="15" x="284.5" y="399.4234">or</text><text fill="#000000" font-family="sans-serif" font-size="14" lengthAdjust="spacing" textLength="65" x="167" y="415.9117">advanced</text><text fill="#000000" font-family="sans-serif" font-size="14" lengthAdjust="spacing" textLength="4" x="232" y="415.9117">&#160;</text><text fill="#000000" font-family="sans-serif" font-size="14" lengthAdjust="spacing" textLength="61" x="236" y="415.9117">polyp(s)?</text></a></g><!--entity eve_HxPolyps--><g id="elem_eve_HxPolyps"><a href="#eve-HxPolyps" target="_top" title="#eve-HxPolyps" xlink:actuate="onRequest" xlink:href="#eve-HxPolyps" xlink:show="new" xlink:title="#eve-HxPolyps" xlink:type="simple"><polygon fill="#A4DBD8" points="296,505.35,226,483.86,86,483.86,16,505.35,86,526.84,226,526.84,296,505.35" style="stroke:#FF0000;stroke-width:1.0;"/><text fill="#000000" font-family="sans-serif" font-size="14" lengthAdjust="spacing" textLength="48" x="86" y="502.3952">History</text><text fill="#000000" font-family="sans-serif" font-size="14" lengthAdjust="spacing" textLength="4" x="134" y="502.3952">&#160;</text><text fill="#000000" font-family="sans-serif" font-size="14" lengthAdjust="spacing" textLength="14" x="138" y="502.3952">of</text><text fill="#000000" font-family="sans-serif" font-size="14" lengthAdjust="spacing" textLength="4" x="152" y="502.3952">&#160;</text><text fill="#000000" font-family="sans-serif" font-size="14" lengthAdjust="spacing" textLength="70" x="156" y="502.3952">neoplastic</text><text fill="#000000" font-family="sans-serif" font-size="14" lengthAdjust="spacing" textLength="61" x="125.5" y="518.8834">polyp(s)?</text></a></g><!--entity end_1--><g id="elem_end_1"><ellipse cx="420" cy="615.84" fill="#A4DBD8" rx="8" ry="8" style="stroke:#181818;stroke-width:0.5;"/><text fill="#000000" font-family="sans-serif" font-size="14" lengthAdjust="spacing" textLength="26" x="407" y="646.3752">end</text></g><!--entity act_AvgRiskScreeningEligible--><g id="elem_act_AvgRiskScreeningEligible"><a href="#act-AvgRiskScreeningEligible" target="_top" title="#act-AvgRiskScreeningEligible" xlink:actuate="onRequest" xlink:href="#act-AvgRiskScreeningEligible" xlink:show="new" xlink:title="#act-AvgRiskScreeningEligible" xlink:type="simple"><rect fill="#F1F1F1" height="36.4883" rx="2.5" ry="2.5" style="stroke:#181818;stroke-width:0.5;" width="252" x="30" y="597.6"/><text fill="#000000" font-family="sans-serif" font-size="14" lengthAdjust="spacing" textLength="50" x="40" y="621.1352">Eligible</text><text fill="#000000" font-family="sans-serif" font-size="14" lengthAdjust="spacing" textLength="4" x="90" y="621.1352">&#160;</text><text fill="#000000" font-family="sans-serif" font-size="14" lengthAdjust="spacing" textLength="20" x="94" y="621.1352">for</text><text fill="#000000" font-family="sans-serif" font-size="14" lengthAdjust="spacing" textLength="4" x="114" y="621.1352">&#160;</text><text fill="#000000" font-family="sans-serif" font-size="14" lengthAdjust="spacing" textLength="54" x="118" y="621.1352">average</text><text fill="#000000" font-family="sans-serif" font-size="14" lengthAdjust="spacing" textLength="4" x="172" y="621.1352">&#160;</text><text fill="#000000" font-family="sans-serif" font-size="14" lengthAdjust="spacing" textLength="25" x="176" y="621.1352">risk</text><text fill="#000000" font-family="sans-serif" font-size="14" lengthAdjust="spacing" textLength="4" x="201" y="621.1352">&#160;</text><text fill="#000000" font-family="sans-serif" font-size="14" lengthAdjust="spacing" textLength="67" x="205" y="621.1352">screening</text></a></g><!--link eve_CRCHereditarySyndrome to end_1--><g id="link_eve_CRCHereditarySyndrome_end_1"><path d="M556,70.8 C556,183.85 556,615.84 556,615.84 C556,615.84 465.18,615.84 434.92,615.84 " fill="none" id="eve_CRCHereditarySyndrome-to-end_1" style="stroke:#181818;stroke-width:1.0;"/><polygon fill="#181818" points="428.92,615.84,437.92,619.84,433.92,615.84,437.92,611.84,428.92,615.84" style="stroke:#181818;stroke-width:1.0;"/><text fill="#000000" font-family="sans-serif" font-size="13" lengthAdjust="spacing" textLength="21" x="534" y="403.4284">yes</text></g><!--link eve_CRCHereditarySyndrome to eve_IBD--><g id="link_eve_CRCHereditarySyndrome_eve_IBD"><path d="M420,82.3 C420,101.25 420,117.8 420,135.51 " fill="none" id="eve_CRCHereditarySyndrome-to-eve_IBD" style="stroke:#181818;stroke-width:1.0;"/><polygon fill="#181818" points="420,141.51,424,132.51,420,136.51,416,132.51,420,141.51" style="stroke:#181818;stroke-width:1.0;"/><text fill="#000000" font-family="sans-serif" font-size="13" lengthAdjust="spacing" textLength="16" x="403" y="108.4784">no</text></g><!--link eve_IBD to end_1--><g id="link_eve_IBD_end_1"><path d="M442.5,201.18 C442.5,299.6 442.5,604.92 442.5,609.78 " fill="none" id="eve_IBD-to-end_1" style="stroke:#181818;stroke-width:1.0;"/><polygon fill="#181818" points="442.5,615.78,446.5,606.78,442.5,610.78,438.5,606.78,442.5,615.78" style="stroke:#181818;stroke-width:1.0;"/><text fill="#000000" font-family="sans-serif" font-size="13" lengthAdjust="spacing" textLength="21" x="420.5" y="405.0484">yes</text></g><!--link eve_IBD to eve_HxCRC--><g id="link_eve_IBD_eve_HxCRC"><path d="M337.5,201.79 C337.5,220.57 337.5,238.32 337.5,255.25 " fill="none" id="eve_IBD-to-eve_HxCRC" style="stroke:#181818;stroke-width:1.0;"/><polygon fill="#181818" points="337.5,261.25,341.5,252.25,337.5,256.25,333.5,252.25,337.5,261.25" style="stroke:#181818;stroke-width:1.0;"/><text fill="#000000" font-family="sans-serif" font-size="13" lengthAdjust="spacing" textLength="16" x="320.5" y="228.0884">no</text></g><!--link eve_HxCRC to end_1--><g id="link_eve_HxCRC_end_1"><path d="M415.5,290.81 C415.5,335.81 415.5,553.43 415.5,600.95 " fill="none" id="eve_HxCRC-to-end_1" style="stroke:#181818;stroke-width:1.0;"/><polygon fill="#181818" points="415.5,606.95,419.5,597.95,415.5,601.95,411.5,597.95,415.5,606.95" style="stroke:#181818;stroke-width:1.0;"/><text fill="#000000" font-family="sans-serif" font-size="13" lengthAdjust="spacing" textLength="21" x="393.5" y="445.4484">yes</text></g><!--link eve_HxCRC to eve_FamilyHx--><g id="link_eve_HxCRC_eve_FamilyHx"><path d="M274.5,304.88 C274.5,321.85 274.5,339.51 274.5,358.2 " fill="none" id="eve_HxCRC-to-eve_FamilyHx" style="stroke:#181818;stroke-width:1.0;"/><polygon fill="#181818" points="274.5,364.2,278.5,355.2,274.5,359.2,270.5,355.2,274.5,364.2" style="stroke:#181818;stroke-width:1.0;"/><text fill="#000000" font-family="sans-serif" font-size="13" lengthAdjust="spacing" textLength="16" x="257.5" y="331.1084">no</text></g><!--link eve_FamilyHx to end_1--><g id="link_eve_FamilyHx_end_1"><path d="M331.5,410.23 C331.5,457.21 331.5,590.84 331.5,590.84 C331.5,590.84 411.26,590.84 413.94,590.84 " fill="none" id="eve_FamilyHx-to-end_1" style="stroke:#181818;stroke-width:1.0;"/><polygon fill="#181818" points="419.94,590.84,410.94,586.84,414.94,590.84,410.94,594.84,419.94,590.84" style="stroke:#181818;stroke-width:1.0;"/><text fill="#000000" font-family="sans-serif" font-size="13" lengthAdjust="spacing" textLength="21" x="309.5" y="541.3184">yes</text></g><!--link eve_FamilyHx to eve_HxPolyps--><g id="link_eve_FamilyHx_eve_HxPolyps"><path d="M196.5,424.23 C196.5,443.01 196.5,460.76 196.5,477.69 " fill="none" id="eve_FamilyHx-to-eve_HxPolyps" style="stroke:#181818;stroke-width:1.0;"/><polygon fill="#181818" points="196.5,483.69,200.5,474.69,196.5,478.69,192.5,474.69,196.5,483.69" style="stroke:#181818;stroke-width:1.0;"/><text fill="#000000" font-family="sans-serif" font-size="13" lengthAdjust="spacing" textLength="16" x="179.5" y="450.5284">no</text></g><!--link eve_HxPolyps to end_1--><g id="link_eve_HxPolyps_end_1"><path d="M289,507.93 C289,522.61 289,594.84 289,594.84 C289,594.84 409.94,594.84 413.91,594.84 " fill="none" id="eve_HxPolyps-to-end_1" style="stroke:#181818;stroke-width:1.0;"/><polygon fill="#181818" points="419.91,594.84,410.91,590.84,414.91,594.84,410.91,598.84,419.91,594.84" style="stroke:#181818;stroke-width:1.0;"/><text fill="#000000" font-family="sans-serif" font-size="13" lengthAdjust="spacing" textLength="21" x="289" y="591.4084">yes</text></g><!--link eve_HxPolyps to act_AvgRiskScreeningEligible--><g id="link_eve_HxPolyps_act_AvgRiskScreeningEligible"><path d="M156,527.18 C156,547.68 156,572.02 156,591.36 " fill="none" id="eve_HxPolyps-to-act_AvgRiskScreeningEligible" style="stroke:#181818;stroke-width:1.0;"/><polygon fill="#181818" points="156,597.36,160,588.36,156,592.36,152,588.36,156,597.36" style="stroke:#181818;stroke-width:1.0;"/><text fill="#000000" font-family="sans-serif" font-size="13" lengthAdjust="spacing" textLength="16" x="139" y="558.8384">no</text></g><!--SRC=[ZL9DQzmm4BtxLmoRIthODYaj5BDis8-sBhGGaa0F8IoAD6kBbIKZALkx9VyzuszJEzlwO6lUctdpF9f42WJdqQBnHOQ1EqYTCSjIK59Z2O6nFZ71mlb2uJ98C6UnqV0d07f-i5ocJ-bFANmImkN72wZWDUE7hzOyQR4nojWGLX-sw-sdclnEmdU9v0UDpb5HZpR95aMDHSRAtqPxfbPAnZf5xKFWz4ORF0SMkMSwLZZfvNthvRJ8MzIYgH-PFgjTKzRYtLz_Fxj6wuncYgO3UvPALK0YdJUs0BC7NWgKzXHmfZbQI6Z2Gdf6l2kqi2R5AvW1Su17t6rkDb6NSDlmS7z_HkHyadnucF0oS23rNh4qPLNyQ7wX0Y4TCeTNNTTlwstRWux_KXpzKoyKvUInbQg2eTYN_nWFJP69OtaMa1bLPEVkJQzVAqHvswADXrsYNbwZoHHpNl89hIY_BZ7NswrZqkBISjgc6Qr4dQx5xX8M2_ekbuDrctscHPAFTDgNlezeMOnWfJk0unPHInrN0epxtUeOtn1psn9TBVKdVluQJtvUtOpvV5bv2w50TpgjlkOGj0cQyxYu0TkBx9AhQ9pUmOERwMfQO5msP0RtCEXM0rCDE-RKH4kb5m00]--></g></svg>