<svg xmlns="http://www.w3.org/2000/svg" xmlns:xlink="http://www.w3.org/1999/xlink" contentStyleType="text/css" height="1072px" preserveAspectRatio="none" style="width:831px;height:1072px;background:#FFFFFF;" version="1.1" viewBox="0 0 831 1072" width="831px" zoomAndPan="magnify"><defs/><g><!--entity eve_lastTestColonoscopy--><g id="elem_eve_lastTestColonoscopy"><a href="#eve-lastTestColonoscopy" target="_top" title="#eve-lastTestColonoscopy" xlink:actuate="onRequest" xlink:href="#eve-lastTestColonoscopy" xlink:show="new" xlink:title="#eve-lastTestColonoscopy" xlink:type="simple"><polygon fill="#A4DBD8" points="422,35.74,366.5,6,255.5,6,200,35.74,255.5,65.47,366.5,65.47,422,35.74" style="stroke:#FF0000;stroke-width:1.0;"/><text fill="#000000" font-family="sans-serif" font-size="14" lengthAdjust="spacing" textLength="33" x="271" y="24.5352">Most</text><text fill="#000000" font-family="sans-serif" font-size="14" lengthAdjust="spacing" textLength="4" x="304" y="24.5352">&#160;</text><text fill="#000000" font-family="sans-serif" font-size="14" lengthAdjust="spacing" textLength="43" x="308" y="24.5352">recent</text><text fill="#000000" font-family="sans-serif" font-size="14" lengthAdjust="spacing" textLength="67" x="255.5" y="41.0234">screening</text><text fill="#000000" font-family="sans-serif" font-size="14" lengthAdjust="spacing" textLength="4" x="322.5" y="41.0234">&#160;</text><text fill="#000000" font-family="sans-serif" font-size="14" lengthAdjust="spacing" textLength="25" x="326.5" y="41.0234">test</text><text fill="#000000" font-family="sans-serif" font-size="14" lengthAdjust="spacing" textLength="4" x="351.5" y="41.0234">&#160;</text><text fill="#000000" font-family="sans-serif" font-size="14" lengthAdjust="spacing" textLength="11" x="355.5" y="41.0234">is</text><text fill="#000000" font-family="sans-serif" font-size="14" lengthAdjust="spacing" textLength="92" x="265" y="57.5117">colonoscopy?</text></a></g><!--entity eve_lastTestStool--><g id="elem_eve_lastTestStool"><a href="#eve-lastTestStool" target="_top" title="#eve-lastTestStool" xlink:actuate="onRequest" xlink:href="#eve-lastTestStool" xlink:show="new" xlink:title="#eve-lastTestStool" xlink:type="simple"><polygon fill="#A4DBD8" points="429,155.2,370,125.47,252,125.47,193,155.2,252,184.93,370,184.93,429,155.2" style="stroke:#FF0000;stroke-width:1.0;"/><text fill="#000000" font-family="sans-serif" font-size="14" lengthAdjust="spacing" textLength="33" x="271" y="144.0052">Most</text><text fill="#000000" font-family="sans-serif" font-size="14" lengthAdjust="spacing" textLength="4" x="304" y="144.0052">&#160;</text><text fill="#000000" font-family="sans-serif" font-size="14" lengthAdjust="spacing" textLength="43" x="308" y="144.0052">recent</text><text fill="#000000" font-family="sans-serif" font-size="14" lengthAdjust="spacing" textLength="67" x="255.5" y="160.4934">screening</text><text fill="#000000" font-family="sans-serif" font-size="14" lengthAdjust="spacing" textLength="4" x="322.5" y="160.4934">&#160;</text><text fill="#000000" font-family="sans-serif" font-size="14" lengthAdjust="spacing" textLength="25" x="326.5" y="160.4934">test</text><text fill="#000000" font-family="sans-serif" font-size="14" lengthAdjust="spacing" textLength="4" x="351.5" y="160.4934">&#160;</text><text fill="#000000" font-family="sans-serif" font-size="14" lengthAdjust="spacing" textLength="11" x="355.5" y="160.4934">is</text><text fill="#000000" font-family="sans-serif" font-size="14" lengthAdjust="spacing" textLength="83" x="252" y="176.9817">stool-based</text><text fill="#000000" font-family="sans-serif" font-size="14" lengthAdjust="spacing" textLength="4" x="335" y="176.9817">&#160;</text><text fill="#000000" font-family="sans-serif" font-size="14" lengthAdjust="spacing" textLength="31" x="339" y="176.9817">test?</text></a></g><!--entity eve_abnormalStoolTest--><g id="elem_eve_abnormalStoolTest"><a href="#eve-abnormalStoolTest" target="_top" title="#eve-abnormalStoolTest" xlink:actuate="onRequest" xlink:href="#eve-abnormalStoolTest" xlink:show="new" xlink:title="#eve-abnormalStoolTest" xlink:type="simple"><polygon fill="#A4DBD8" points="294,427.11,224.5,405.62,85.5,405.62,16,427.11,85.5,448.6,224.5,448.6,294,427.11" style="stroke:#FF0000;stroke-width:1.0;"/><text fill="#000000" font-family="sans-serif" font-size="14" lengthAdjust="spacing" textLength="52" x="85.5" y="424.1552">Positive</text><text fill="#000000" font-family="sans-serif" font-size="14" lengthAdjust="spacing" textLength="4" x="137.5" y="424.1552">&#160;</text><text fill="#000000" font-family="sans-serif" font-size="14" lengthAdjust="spacing" textLength="83" x="141.5" y="424.1552">stool-based</text><text fill="#000000" font-family="sans-serif" font-size="14" lengthAdjust="spacing" textLength="31" x="139.5" y="440.6434">test?</text></a></g><!--entity eve_lastTestFlexSig--><g id="elem_eve_lastTestFlexSig"><a href="#eve-lastTestFlexSig" target="_top" title="#eve-lastTestFlexSig" xlink:actuate="onRequest" xlink:href="#eve-lastTestFlexSig" xlink:show="new" xlink:title="#eve-lastTestFlexSig" xlink:type="simple"><polygon fill="#A4DBD8" points="585,282.91,529.5,244.93,418.5,244.93,363,282.91,418.5,320.89,529.5,320.89,585,282.91" style="stroke:#FF0000;stroke-width:1.0;"/><text fill="#000000" font-family="sans-serif" font-size="14" lengthAdjust="spacing" textLength="33" x="434" y="263.4652">Most</text><text fill="#000000" font-family="sans-serif" font-size="14" lengthAdjust="spacing" textLength="4" x="467" y="263.4652">&#160;</text><text fill="#000000" font-family="sans-serif" font-size="14" lengthAdjust="spacing" textLength="43" x="471" y="263.4652">recent</text><text fill="#000000" font-family="sans-serif" font-size="14" lengthAdjust="spacing" textLength="67" x="418.5" y="279.9534">screening</text><text fill="#000000" font-family="sans-serif" font-size="14" lengthAdjust="spacing" textLength="4" x="485.5" y="279.9534">&#160;</text><text fill="#000000" font-family="sans-serif" font-size="14" lengthAdjust="spacing" textLength="25" x="489.5" y="279.9534">test</text><text fill="#000000" font-family="sans-serif" font-size="14" lengthAdjust="spacing" textLength="4" x="514.5" y="279.9534">&#160;</text><text fill="#000000" font-family="sans-serif" font-size="14" lengthAdjust="spacing" textLength="11" x="518.5" y="279.9534">is</text><text fill="#000000" font-family="sans-serif" font-size="14" lengthAdjust="spacing" textLength="51" x="448.5" y="296.4417">flexible</text><text fill="#000000" font-family="sans-serif" font-size="14" lengthAdjust="spacing" textLength="109" x="419.5" y="312.93">sigmoidoscopy?</text></a></g><!--entity eve_abnormalFlexSig--><g id="elem_eve_abnormalFlexSig"><a href="#eve-abnormalFlexSig" target="_top" title="#eve-abnormalFlexSig" xlink:actuate="onRequest" xlink:href="#eve-abnormalFlexSig" xlink:show="new" xlink:title="#eve-abnormalFlexSig" xlink:type="simple"><polygon fill="#A4DBD8" points="619,427.11,546.5,380.89,401.5,380.89,329,427.11,401.5,473.33,546.5,473.33,619,427.11" style="stroke:#FF0000;stroke-width:1.0;"/><text fill="#000000" font-family="sans-serif" font-size="14" lengthAdjust="spacing" textLength="54" x="447" y="399.4252">Flexible</text><text fill="#000000" font-family="sans-serif" font-size="14" lengthAdjust="spacing" textLength="103" x="422.5" y="415.9134">sigmoidoscopy</text><text fill="#000000" font-family="sans-serif" font-size="14" lengthAdjust="spacing" textLength="56" x="401.5" y="432.4017">findings</text><text fill="#000000" font-family="sans-serif" font-size="14" lengthAdjust="spacing" textLength="4" x="457.5" y="432.4017">&#160;</text><text fill="#000000" font-family="sans-serif" font-size="14" lengthAdjust="spacing" textLength="14" x="461.5" y="432.4017">of</text><text fill="#000000" font-family="sans-serif" font-size="14" lengthAdjust="spacing" textLength="4" x="475.5" y="432.4017">&#160;</text><text fill="#000000" font-family="sans-serif" font-size="14" lengthAdjust="spacing" textLength="67" x="479.5" y="432.4017">colorectal</text><text fill="#000000" font-family="sans-serif" font-size="14" lengthAdjust="spacing" textLength="45" x="405" y="448.89">cancer</text><text fill="#000000" font-family="sans-serif" font-size="14" lengthAdjust="spacing" textLength="4" x="450" y="448.89">&#160;</text><text fill="#000000" font-family="sans-serif" font-size="14" lengthAdjust="spacing" textLength="15" x="454" y="448.89">or</text><text fill="#000000" font-family="sans-serif" font-size="14" lengthAdjust="spacing" textLength="4" x="469" y="448.89">&#160;</text><text fill="#000000" font-family="sans-serif" font-size="14" lengthAdjust="spacing" textLength="70" x="473" y="448.89">neoplastic</text><text fill="#000000" font-family="sans-serif" font-size="14" lengthAdjust="spacing" textLength="61" x="443.5" y="465.3783">polyp(s)?</text></a></g><!--entity eve_lastTestCTC--><g id="elem_eve_lastTestCTC"><a href="#eve-lastTestCTC" target="_top" title="#eve-lastTestCTC" xlink:actuate="onRequest" xlink:href="#eve-lastTestCTC" xlink:show="new" xlink:title="#eve-lastTestCTC" xlink:type="simple"><polygon fill="#A4DBD8" points="806,563.06,739,533.33,605,533.33,538,563.06,605,592.79,739,592.79,806,563.06" style="stroke:#FF0000;stroke-width:1.0;"/><text fill="#000000" font-family="sans-serif" font-size="14" lengthAdjust="spacing" textLength="33" x="632" y="551.8652">Most</text><text fill="#000000" font-family="sans-serif" font-size="14" lengthAdjust="spacing" textLength="4" x="665" y="551.8652">&#160;</text><text fill="#000000" font-family="sans-serif" font-size="14" lengthAdjust="spacing" textLength="43" x="669" y="551.8652">recent</text><text fill="#000000" font-family="sans-serif" font-size="14" lengthAdjust="spacing" textLength="67" x="605" y="568.3534">screening</text><text fill="#000000" font-family="sans-serif" font-size="14" lengthAdjust="spacing" textLength="4" x="672" y="568.3534">&#160;</text><text fill="#000000" font-family="sans-serif" font-size="14" lengthAdjust="spacing" textLength="25" x="676" y="568.3534">test</text><text fill="#000000" font-family="sans-serif" font-size="14" lengthAdjust="spacing" textLength="4" x="701" y="568.3534">&#160;</text><text fill="#000000" font-family="sans-serif" font-size="14" lengthAdjust="spacing" textLength="11" x="705" y="568.3534">is</text><text fill="#000000" font-family="sans-serif" font-size="14" lengthAdjust="spacing" textLength="4" x="716" y="568.3534">&#160;</text><text fill="#000000" font-family="sans-serif" font-size="14" lengthAdjust="spacing" textLength="19" x="720" y="568.3534">CT</text><text fill="#000000" font-family="sans-serif" font-size="14" lengthAdjust="spacing" textLength="101" x="621.5" y="584.8417">colonography?</text></a></g><!--entity eve_abnormalCTColonography--><g id="elem_eve_abnormalCTColonography"><a href="#eve-abnormalCTColonography" target="_top" title="#eve-abnormalCTColonography" xlink:actuate="onRequest" xlink:href="#eve-abnormalCTColonography" xlink:show="new" xlink:title="#eve-abnormalCTColonography" xlink:type="simple"><polygon fill="#A4DBD8" points="779,690.77,706.5,652.79,561.5,652.79,489,690.77,561.5,728.75,706.5,728.75,779,690.77" style="stroke:#FF0000;stroke-width:1.0;"/><text fill="#000000" font-family="sans-serif" font-size="14" lengthAdjust="spacing" textLength="19" x="573.5" y="671.3252">CT</text><text fill="#000000" font-family="sans-serif" font-size="14" lengthAdjust="spacing" textLength="4" x="592.5" y="671.3252">&#160;</text><text fill="#000000" font-family="sans-serif" font-size="14" lengthAdjust="spacing" textLength="98" x="596.5" y="671.3252">Colonography</text><text fill="#000000" font-family="sans-serif" font-size="14" lengthAdjust="spacing" textLength="56" x="561.5" y="687.8134">findings</text><text fill="#000000" font-family="sans-serif" font-size="14" lengthAdjust="spacing" textLength="4" x="617.5" y="687.8134">&#160;</text><text fill="#000000" font-family="sans-serif" font-size="14" lengthAdjust="spacing" textLength="14" x="621.5" y="687.8134">of</text><text fill="#000000" font-family="sans-serif" font-size="14" lengthAdjust="spacing" textLength="4" x="635.5" y="687.8134">&#160;</text><text fill="#000000" font-family="sans-serif" font-size="14" lengthAdjust="spacing" textLength="67" x="639.5" y="687.8134">colorectal</text><text fill="#000000" font-family="sans-serif" font-size="14" lengthAdjust="spacing" textLength="45" x="565" y="704.3017">cancer</text><text fill="#000000" font-family="sans-serif" font-size="14" lengthAdjust="spacing" textLength="4" x="610" y="704.3017">&#160;</text><text fill="#000000" font-family="sans-serif" font-size="14" lengthAdjust="spacing" textLength="15" x="614" y="704.3017">or</text><text fill="#000000" font-family="sans-serif" font-size="14" lengthAdjust="spacing" textLength="4" x="629" y="704.3017">&#160;</text><text fill="#000000" font-family="sans-serif" font-size="14" lengthAdjust="spacing" textLength="70" x="633" y="704.3017">neoplastic</text><text fill="#000000" font-family="sans-serif" font-size="14" lengthAdjust="spacing" textLength="61" x="603.5" y="720.79">polyp(s)?</text></a></g><!--entity eve_pendingColonoscopy--><g id="elem_eve_pendingColonoscopy"><a href="#eve-pendingColonoscopy" target="_top" title="#eve-pendingColonoscopy" xlink:actuate="onRequest" xlink:href="#eve-pendingColonoscopy" xlink:show="new" xlink:title="#eve-pendingColonoscopy" xlink:type="simple"><polygon fill="#A4DBD8" points="595,810.24,522,788.75,376,788.75,303,810.24,376,831.72,522,831.72,595,810.24" style="stroke:#FF0000;stroke-width:1.0;"/><text fill="#000000" font-family="sans-serif" font-size="14" lengthAdjust="spacing" textLength="56" x="376" y="807.2852">Pending</text><text fill="#000000" font-family="sans-serif" font-size="14" lengthAdjust="spacing" textLength="4" x="432" y="807.2852">&#160;</text><text fill="#000000" font-family="sans-serif" font-size="14" lengthAdjust="spacing" textLength="86" x="436" y="807.2852">colonoscopy</text><text fill="#000000" font-family="sans-serif" font-size="14" lengthAdjust="spacing" textLength="38" x="390" y="823.7734">order</text><text fill="#000000" font-family="sans-serif" font-size="14" lengthAdjust="spacing" textLength="4" x="428" y="823.7734">&#160;</text><text fill="#000000" font-family="sans-serif" font-size="14" lengthAdjust="spacing" textLength="15" x="432" y="823.7734">or</text><text fill="#000000" font-family="sans-serif" font-size="14" lengthAdjust="spacing" textLength="4" x="447" y="823.7734">&#160;</text><text fill="#000000" font-family="sans-serif" font-size="14" lengthAdjust="spacing" textLength="57" x="451" y="823.7734">referral?</text></a></g><!--entity act_continueRoutineScreening--><g id="elem_act_continueRoutineScreening"><a href="#act-continueRoutineScreening" target="_top" title="#act-continueRoutineScreening" xlink:actuate="onRequest" xlink:href="#act-continueRoutineScreening" xlink:show="new" xlink:title="#act-continueRoutineScreening" xlink:type="simple"><rect fill="#F1F1F1" height="52.9766" rx="2.5" ry="2.5" style="stroke:#181818;stroke-width:0.5;" width="265" x="18.5" y="891.72"/><text fill="#000000" font-family="sans-serif" font-size="14" lengthAdjust="spacing" textLength="124" x="28.5" y="915.2552">Recommendation:</text><text fill="#000000" font-family="sans-serif" font-size="14" lengthAdjust="spacing" textLength="4" x="152.5" y="915.2552">&#160;</text><text fill="#000000" font-family="sans-serif" font-size="14" lengthAdjust="spacing" textLength="63" x="156.5" y="915.2552">Continue</text><text fill="#000000" font-family="sans-serif" font-size="14" lengthAdjust="spacing" textLength="4" x="219.5" y="915.2552">&#160;</text><text fill="#000000" font-family="sans-serif" font-size="14" lengthAdjust="spacing" textLength="50" x="223.5" y="915.2552">routine</text><text fill="#000000" font-family="sans-serif" font-size="14" lengthAdjust="spacing" textLength="67" x="117.5" y="931.7434">screening</text></a></g><!--entity act_FollowUpColonoscopy--><g id="elem_act_FollowUpColonoscopy"><a href="#act-FollowUpColonoscopy" target="_top" title="#act-FollowUpColonoscopy" xlink:actuate="onRequest" xlink:href="#act-FollowUpColonoscopy" xlink:show="new" xlink:title="#act-FollowUpColonoscopy" xlink:type="simple"><rect fill="#F1F1F1" height="52.9766" rx="2.5" ry="2.5" style="stroke:#181818;stroke-width:0.5;" width="260" x="319" y="891.72"/><text fill="#000000" font-family="sans-serif" font-size="14" lengthAdjust="spacing" textLength="124" x="329" y="915.2552">Recommendation:</text><text fill="#000000" font-family="sans-serif" font-size="14" lengthAdjust="spacing" textLength="4" x="453" y="915.2552">&#160;</text><text fill="#000000" font-family="sans-serif" font-size="14" lengthAdjust="spacing" textLength="40" x="457" y="915.2552">Order</text><text fill="#000000" font-family="sans-serif" font-size="14" lengthAdjust="spacing" textLength="4" x="497" y="915.2552">&#160;</text><text fill="#000000" font-family="sans-serif" font-size="14" lengthAdjust="spacing" textLength="68" x="501" y="915.2552">follow-up</text><text fill="#000000" font-family="sans-serif" font-size="14" lengthAdjust="spacing" textLength="86" x="406" y="931.7434">colonoscopy</text></a></g><!--entity end_1--><g id="elem_end_1"><ellipse cx="540" cy="1033.7" fill="#A4DBD8" rx="8" ry="8" style="stroke:#181818;stroke-width:0.5;"/><text fill="#000000" font-family="sans-serif" font-size="14" lengthAdjust="spacing" textLength="26" x="527" y="1064.2352">end</text></g><!--link eve_lastTestColonoscopy to end_1--><g id="link_eve_lastTestColonoscopy_end_1"><path d="M421.05,36.7 C571.79,36.7 824,36.7 824,36.7 C824,36.7 824,1048.7 824,1048.7 C824,1048.7 550.42,1048.7 546.05,1048.7 " fill="none" id="eve_lastTestColonoscopy-to-end_1" style="stroke:#181818;stroke-width:1.0;"/><polygon fill="#181818" points="540.05,1048.7,549.05,1052.7,545.05,1048.7,549.05,1044.7,540.05,1048.7" style="stroke:#181818;stroke-width:1.0;"/><text fill="#000000" font-family="sans-serif" font-size="13" lengthAdjust="spacing" textLength="21" x="802" y="479.7684">yes</text></g><!--link eve_lastTestColonoscopy to eve_lastTestStool--><g id="link_eve_lastTestColonoscopy_eve_lastTestStool"><path d="M311,65.88 C311,83.99 311,100.96 311,119.07 " fill="none" id="eve_lastTestColonoscopy-to-eve_lastTestStool" style="stroke:#181818;stroke-width:1.0;"/><polygon fill="#181818" points="311,125.07,315,116.07,311,120.07,307,116.07,311,125.07" style="stroke:#181818;stroke-width:1.0;"/><text fill="#000000" font-family="sans-serif" font-size="13" lengthAdjust="spacing" textLength="16" x="294" y="92.0384">no</text></g><!--link eve_lastTestStool to eve_abnormalStoolTest--><g id="link_eve_lastTestStool_eve_abnormalStoolTest"><path d="M243.5,180.78 C243.5,236.17 243.5,359.87 243.5,405.16 " fill="none" id="eve_lastTestStool-to-eve_abnormalStoolTest" style="stroke:#181818;stroke-width:1.0;"/><polygon fill="#181818" points="243.5,411.16,247.5,402.16,243.5,406.16,239.5,402.16,243.5,411.16" style="stroke:#181818;stroke-width:1.0;"/><text fill="#000000" font-family="sans-serif" font-size="13" lengthAdjust="spacing" textLength="21" x="221.5" y="292.5384">yes</text></g><!--link eve_lastTestStool to eve_lastTestFlexSig--><g id="link_eve_lastTestStool_eve_lastTestFlexSig"><path d="M396,172.16 C396,194.69 396,228.57 396,253.82 " fill="none" id="eve_lastTestStool-to-eve_lastTestFlexSig" style="stroke:#181818;stroke-width:1.0;"/><polygon fill="#181818" points="396,259.82,400,250.82,396,254.82,392,250.82,396,259.82" style="stroke:#181818;stroke-width:1.0;"/><text fill="#000000" font-family="sans-serif" font-size="13" lengthAdjust="spacing" textLength="16" x="379" y="212.5584">no</text></g><!--link eve_abnormalStoolTest to eve_pendingColonoscopy--><g id="link_eve_abnormalStoolTest_eve_pendingColonoscopy"><path d="M288.75,429.17 C288.75,459.36 288.75,810.7 288.75,810.7 C288.75,810.7 288.15,810.7 296.97,810.7 " fill="none" id="eve_abnormalStoolTest-to-eve_pendingColonoscopy" style="stroke:#181818;stroke-width:1.0;"/><polygon fill="#181818" points="302.97,810.7,293.97,806.7,297.97,810.7,293.97,814.7,302.97,810.7" style="stroke:#181818;stroke-width:1.0;"/><text fill="#000000" font-family="sans-serif" font-size="13" lengthAdjust="spacing" textLength="21" x="266.75" y="623.6184">yes</text></g><!--link eve_abnormalStoolTest to act_continueRoutineScreening--><g id="link_eve_abnormalStoolTest_act_continueRoutineScreening"><path d="M84.75,448.84 C84.75,528.48 84.75,798.19 84.75,885.49 " fill="none" id="eve_abnormalStoolTest-to-act_continueRoutineScreening" style="stroke:#181818;stroke-width:1.0;"/><polygon fill="#181818" points="84.75,891.49,88.75,882.49,84.75,886.49,80.75,882.49,84.75,891.49" style="stroke:#181818;stroke-width:1.0;"/><text fill="#000000" font-family="sans-serif" font-size="13" lengthAdjust="spacing" textLength="16" x="67.75" y="666.7284">no</text></g><!--link eve_lastTestFlexSig to eve_abnormalFlexSig--><g id="link_eve_lastTestFlexSig_eve_abnormalFlexSig"><path d="M474,321.17 C474,339.36 474,355.27 474,374.43 " fill="none" id="eve_lastTestFlexSig-to-eve_abnormalFlexSig" style="stroke:#181818;stroke-width:1.0;"/><polygon fill="#181818" points="474,380.43,478,371.43,474,375.43,470,371.43,474,380.43" style="stroke:#181818;stroke-width:1.0;"/><text fill="#000000" font-family="sans-serif" font-size="13" lengthAdjust="spacing" textLength="21" x="452" y="347.3684">yes</text></g><!--link eve_lastTestFlexSig to eve_lastTestCTC--><g id="link_eve_lastTestFlexSig_eve_lastTestCTC"><path d="M584.52,283.7 C646.91,283.7 712.5,283.7 712.5,283.7 C712.5,283.7 712.5,454.66 712.5,526.9 " fill="none" id="eve_lastTestFlexSig-to-eve_lastTestCTC" style="stroke:#181818;stroke-width:1.0;"/><polygon fill="#181818" points="712.5,532.9,716.5,523.9,712.5,527.9,708.5,523.9,712.5,532.9" style="stroke:#181818;stroke-width:1.0;"/><text fill="#000000" font-family="sans-serif" font-size="13" lengthAdjust="spacing" textLength="16" x="695.5" y="340.8784">no</text></g><!--link eve_abnormalFlexSig to eve_pendingColonoscopy--><g id="link_eve_abnormalFlexSig_eve_pendingColonoscopy"><path d="M409,473.7 C409,556.86 409,721.8 409,782.37 " fill="none" id="eve_abnormalFlexSig-to-eve_pendingColonoscopy" style="stroke:#181818;stroke-width:1.0;"/><polygon fill="#181818" points="409,788.37,413,779.37,409,783.37,405,779.37,409,788.37" style="stroke:#181818;stroke-width:1.0;"/><text fill="#000000" font-family="sans-serif" font-size="13" lengthAdjust="spacing" textLength="21" x="387" y="627.5984">yes</text></g><!--link eve_abnormalFlexSig to act_continueRoutineScreening--><g id="link_eve_abnormalFlexSig_act_continueRoutineScreening"><path d="M382.74,461.7 C287.22,461.7 151,461.7 151,461.7 C151,461.7 151,787.5 151,885.36 " fill="none" id="eve_abnormalFlexSig-to-act_continueRoutineScreening" style="stroke:#181818;stroke-width:1.0;"/><polygon fill="#181818" points="151,891.36,155,882.36,151,886.36,147,882.36,151,891.36" style="stroke:#181818;stroke-width:1.0;"/><text fill="#000000" font-family="sans-serif" font-size="13" lengthAdjust="spacing" textLength="16" x="134" y="557.2284">no</text></g><!--link eve_lastTestCTC to eve_abnormalCTColonography--><g id="link_eve_lastTestCTC_eve_abnormalCTColonography"><path d="M658.5,593 C658.5,610.84 658.5,627.66 658.5,646.77 " fill="none" id="eve_lastTestCTC-to-eve_abnormalCTColonography" style="stroke:#181818;stroke-width:1.0;"/><polygon fill="#181818" points="658.5,652.77,662.5,643.77,658.5,647.77,654.5,643.77,658.5,652.77" style="stroke:#181818;stroke-width:1.0;"/><text fill="#000000" font-family="sans-serif" font-size="13" lengthAdjust="spacing" textLength="21" x="636.5" y="619.4484">yes</text></g><!--link eve_lastTestCTC to end_1--><g id="link_eve_lastTestCTC_end_1"><path d="M792.5,569.36 C792.5,625.21 792.5,1033.7 792.5,1033.7 C792.5,1033.7 599.97,1033.7 554.99,1033.7 " fill="none" id="eve_lastTestCTC-to-end_1" style="stroke:#181818;stroke-width:1.0;"/><polygon fill="#181818" points="548.99,1033.7,557.99,1037.7,553.99,1033.7,557.99,1029.7,548.99,1033.7" style="stroke:#181818;stroke-width:1.0;"/><text fill="#000000" font-family="sans-serif" font-size="13" lengthAdjust="spacing" textLength="16" x="775.5" y="919.8584">no</text></g><!--link eve_abnormalCTColonography to eve_pendingColonoscopy--><g id="link_eve_abnormalCTColonography_eve_pendingColonoscopy"><path d="M542,719.08 C542,742.54 542,769.04 542,788.23 " fill="none" id="eve_abnormalCTColonography-to-eve_pendingColonoscopy" style="stroke:#181818;stroke-width:1.0;"/><polygon fill="#181818" points="542,794.23,546,785.23,542,789.23,538,785.23,542,794.23" style="stroke:#181818;stroke-width:1.0;"/><text fill="#000000" font-family="sans-serif" font-size="13" lengthAdjust="spacing" textLength="21" x="520" y="753.2184">yes</text></g><!--link eve_abnormalCTColonography to act_continueRoutineScreening--><g id="link_eve_abnormalCTColonography_act_continueRoutineScreening"><path d="M489.7,691.7 C369.29,691.7 217.25,691.7 217.25,691.7 C217.25,691.7 217.25,825.34 217.25,885.34 " fill="none" id="eve_abnormalCTColonography-to-act_continueRoutineScreening" style="stroke:#181818;stroke-width:1.0;"/><polygon fill="#181818" points="217.25,891.34,221.25,882.34,217.25,886.34,213.25,882.34,217.25,891.34" style="stroke:#181818;stroke-width:1.0;"/><text fill="#000000" font-family="sans-serif" font-size="13" lengthAdjust="spacing" textLength="16" x="236.66" y="688.2684">no</text></g><!--link eve_pendingColonoscopy to end_1--><g id="link_eve_pendingColonoscopy_end_1"><path d="M587,812.88 C587,837.13 587,1019.7 587,1019.7 C587,1019.7 548.89,1019.7 546.13,1019.7 " fill="none" id="eve_pendingColonoscopy-to-end_1" style="stroke:#181818;stroke-width:1.0;"/><polygon fill="#181818" points="540.13,1019.7,549.13,1023.7,545.13,1019.7,549.13,1015.7,540.13,1019.7" style="stroke:#181818;stroke-width:1.0;"/><text fill="#000000" font-family="sans-serif" font-size="13" lengthAdjust="spacing" textLength="21" x="588" y="936.2884">yes</text></g><!--link eve_pendingColonoscopy to act_FollowUpColonoscopy--><g id="link_eve_pendingColonoscopy_act_FollowUpColonoscopy"><path d="M449,832.09 C449,849.22 449,867.14 449,885.42 " fill="none" id="eve_pendingColonoscopy-to-act_FollowUpColonoscopy" style="stroke:#181818;stroke-width:1.0;"/><polygon fill="#181818" points="449,891.42,453,882.42,449,886.42,445,882.42,449,891.42" style="stroke:#181818;stroke-width:1.0;"/><text fill="#000000" font-family="sans-serif" font-size="13" lengthAdjust="spacing" textLength="16" x="432" y="858.3184">no</text></g><!--link act_continueRoutineScreening to end_1--><g id="link_act_continueRoutineScreening_end_1"><path d="M151,945 C151,979.11 151,1033.7 151,1033.7 C151,1033.7 467.24,1033.7 525.14,1033.7 " fill="none" id="act_continueRoutineScreening-to-end_1" style="stroke:#181818;stroke-width:1.0;"/><polygon fill="#181818" points="531.14,1033.7,522.14,1029.7,526.14,1033.7,522.14,1037.7,531.14,1033.7" style="stroke:#181818;stroke-width:1.0;"/></g><!--link act_FollowUpColonoscopy to end_1--><g id="link_act_FollowUpColonoscopy_end_1"><path d="M540,945 C540,970.72 540,1002.07 540,1018.9 " fill="none" id="act_FollowUpColonoscopy-to-end_1" style="stroke:#181818;stroke-width:1.0;"/><polygon fill="#181818" points="540,1024.9,544,1015.9,540,1019.9,536,1015.9,540,1024.9" style="stroke:#181818;stroke-width:1.0;"/></g><!--SRC=[hLHDRnen4Btlhx38fJrisrIjLAqGLKAKzj2eLQ3g8OgGyGwBXTUpiaqQMkM_T_O3Th4N158vX6ZcpNlpF3CiPGhCEZ20RbD0P5TI5zpmd2cfeGmnD6w9qT2wZO9Hj8Hddg5cVoD6dpl-BFDr_akcRfcmou_lM1M-vcBrnU1QfsDKQ19szU7c-kPJdVn6nDEb52iDrb9H6st01j8wzXMD_8FQSNMbPAPpq2vXWlw2YLuY0y9ndIdexUNzjfVZ96z0fqrzqFH5tJMXXcyzzuCxj8uQBNcO5GP0Ivqn1nILbWaYq6W55flF0yOjWoUOAMxTb03ZDiaU7Yue5VUa7XzF5RCEKSLpRkdPobYeE2aHlbOLxAhyG2kTV88ZX7okqUHSLRKboPOqI9pU_aB1ivpJ5AtCSfJfeMUx9Tn4PhwD9jpLk-rbP0kfKnAs31VLWAhzKKnmBS3GbZCDM9IqKh02rQPuPL-7rhqslF3fjiVJPaiomujbtvfCny5wJCTT0Q8OToZ-aq4IwP9wFlUpU-i3bNftzqaphPKDBC0OhbgveeRt74EO8Pdss0Vt832dCqwvawWJUWFjf5u3ezkbVw1zx4gC2pSJ3UI-Hansqo19oiU7yiU5lrVk5gWK_exNHTVvJlcsoluiF9-bQ4-Az8GqeXGZcVgjT3gxPCCXVOz6qO7VaVY1fiFrwZ4ULVY4RS0U11F8_t58cCOeY3R8uBX3-YxSkymTTK0Jnqr5EF5M8QnglHuRRU2eQSVpj6lITxGFxrnWu6U7FCFDjcRhvJmhr8LdO_yiUyPVLzIxuVM_Ntk62Q_mpBc42d6mlRsO0sTL4HzJtj971mYs-Ny0]--></g></svg>