<svg xmlns="http://www.w3.org/2000/svg" xmlns:xlink="http://www.w3.org/1999/xlink" contentStyleType="text/css" height="492px" preserveAspectRatio="none" style="width:1070px;height:492px;background:#FFFFFF;" version="1.1" viewBox="0 0 1070 492" width="1070px" zoomAndPan="magnify"><defs/><g><!--entity eve_lastTest--><g id="elem_eve_lastTest"><a href="#eve-lastTest" target="_top" title="#eve-lastTest" xlink:actuate="onRequest" xlink:href="#eve-lastTest" xlink:show="new" xlink:title="#eve-lastTest" xlink:type="simple"><polygon fill="#A4DBD8" points="489,30.3122,432.5,8.8222,319.5,8.8222,263,30.3122,319.5,51.8022,432.5,51.8022,489,30.3122" style="stroke:#FF0000;stroke-width:1.0;"/><text fill="#000000" font-family="sans-serif" font-size="14" lengthAdjust="spacing" textLength="33" x="319.5" y="27.3573">Most</text><text fill="#000000" font-family="sans-serif" font-size="14" lengthAdjust="spacing" textLength="4" x="352.5" y="27.3573">&#160;</text><text fill="#000000" font-family="sans-serif" font-size="14" lengthAdjust="spacing" textLength="43" x="356.5" y="27.3573">recent</text><text fill="#000000" font-family="sans-serif" font-size="14" lengthAdjust="spacing" textLength="4" x="399.5" y="27.3573">&#160;</text><text fill="#000000" font-family="sans-serif" font-size="14" lengthAdjust="spacing" textLength="29" x="403.5" y="27.3573">CRC</text><text fill="#000000" font-family="sans-serif" font-size="14" lengthAdjust="spacing" textLength="67" x="328" y="43.8456">screening</text><text fill="#000000" font-family="sans-serif" font-size="14" lengthAdjust="spacing" textLength="4" x="395" y="43.8456">&#160;</text><text fill="#000000" font-family="sans-serif" font-size="14" lengthAdjust="spacing" textLength="25" x="399" y="43.8456">test</text></a></g><!--entity eve_abnormalStoolTest--><g id="elem_eve_abnormalStoolTest"><a href="#eve-abnormalStoolTest" target="_top" title="#eve-abnormalStoolTest" xlink:actuate="onRequest" xlink:href="#eve-abnormalStoolTest" xlink:show="new" xlink:title="#eve-abnormalStoolTest" xlink:type="simple"><polygon fill="#A4DBD8" points="1053,133.2922,994,111.8022,876,111.8022,817,133.2922,876,154.7822,994,154.7822,1053,133.2922" style="stroke:#FF0000;stroke-width:1.0;"/><text fill="#000000" font-family="sans-serif" font-size="14" lengthAdjust="spacing" textLength="68" x="901" y="130.3373">Abnormal</text><text fill="#000000" font-family="sans-serif" font-size="14" lengthAdjust="spacing" textLength="83" x="876" y="146.8256">stool-based</text><text fill="#000000" font-family="sans-serif" font-size="14" lengthAdjust="spacing" textLength="4" x="959" y="146.8256">&#160;</text><text fill="#000000" font-family="sans-serif" font-size="14" lengthAdjust="spacing" textLength="31" x="963" y="146.8256">test?</text></a></g><!--entity eve_abnormalCTColonography--><g id="elem_eve_abnormalCTColonography"><a href="#eve-abnormalCTColonography" target="_top" title="#eve-abnormalCTColonography" xlink:actuate="onRequest" xlink:href="#eve-abnormalCTColonography" xlink:show="new" xlink:title="#eve-abnormalCTColonography" xlink:type="simple"><polygon fill="#A4DBD8" points="218,133.2922,167.5,111.8022,66.5,111.8022,16,133.2922,66.5,154.7822,167.5,154.7822,218,133.2922" style="stroke:#FF0000;stroke-width:1.0;"/><text fill="#000000" font-family="sans-serif" font-size="14" lengthAdjust="spacing" textLength="68" x="71.5" y="130.3373">Abnormal</text><text fill="#000000" font-family="sans-serif" font-size="14" lengthAdjust="spacing" textLength="4" x="139.5" y="130.3373">&#160;</text><text fill="#000000" font-family="sans-serif" font-size="14" lengthAdjust="spacing" textLength="19" x="143.5" y="130.3373">CT</text><text fill="#000000" font-family="sans-serif" font-size="14" lengthAdjust="spacing" textLength="101" x="66.5" y="146.8256">colonography?</text></a></g><!--entity eve_abnormalFlexibleSigmoidoscopy--><g id="elem_eve_abnormalFlexibleSigmoidoscopy"><a href="#eve-abnormalFlexibleSigmoidoscopy" target="_top" title="#eve-abnormalFlexibleSigmoidoscopy" xlink:actuate="onRequest" xlink:href="#eve-abnormalFlexibleSigmoidoscopy" xlink:show="new" xlink:title="#eve-abnormalFlexibleSigmoidoscopy" xlink:type="simple"><polygon fill="#A4DBD8" points="499,133.2922,437.5,111.8022,314.5,111.8022,253,133.2922,314.5,154.7822,437.5,154.7822,499,133.2922" style="stroke:#FF0000;stroke-width:1.0;"/><text fill="#000000" font-family="sans-serif" font-size="14" lengthAdjust="spacing" textLength="68" x="314.5" y="130.3373">Abnormal</text><text fill="#000000" font-family="sans-serif" font-size="14" lengthAdjust="spacing" textLength="4" x="382.5" y="130.3373">&#160;</text><text fill="#000000" font-family="sans-serif" font-size="14" lengthAdjust="spacing" textLength="51" x="386.5" y="130.3373">flexible</text><text fill="#000000" font-family="sans-serif" font-size="14" lengthAdjust="spacing" textLength="109" x="321.5" y="146.8256">sigmoidoscopy?</text></a></g><!--entity eve_abnormalCapsuleColonoscopy--><g id="elem_eve_abnormalCapsuleColonoscopy"><a href="#eve-abnormalCapsuleColonoscopy" target="_top" title="#eve-abnormalCapsuleColonoscopy" xlink:actuate="onRequest" xlink:href="#eve-abnormalCapsuleColonoscopy" xlink:show="new" xlink:title="#eve-abnormalCapsuleColonoscopy" xlink:type="simple"><polygon fill="#A4DBD8" points="782,133.2922,720,111.8022,596,111.8022,534,133.2922,596,154.7822,720,154.7822,782,133.2922" style="stroke:#FF0000;stroke-width:1.0;"/><text fill="#000000" font-family="sans-serif" font-size="14" lengthAdjust="spacing" textLength="68" x="596" y="130.3373">Abnormal</text><text fill="#000000" font-family="sans-serif" font-size="14" lengthAdjust="spacing" textLength="4" x="664" y="130.3373">&#160;</text><text fill="#000000" font-family="sans-serif" font-size="14" lengthAdjust="spacing" textLength="52" x="668" y="130.3373">capsule</text><text fill="#000000" font-family="sans-serif" font-size="14" lengthAdjust="spacing" textLength="92" x="612" y="146.8256">colonoscopy?</text></a></g><!--entity eve_pendingColonoscopy--><g id="elem_eve_pendingColonoscopy"><a href="#eve-pendingColonoscopy" target="_top" title="#eve-pendingColonoscopy" xlink:actuate="onRequest" xlink:href="#eve-pendingColonoscopy" xlink:show="new" xlink:title="#eve-pendingColonoscopy" xlink:type="simple"><polygon fill="#A4DBD8" points="804,241.2622,731,219.7822,585,219.7822,512,241.2622,585,262.7522,731,262.7522,804,241.2622" style="stroke:#FF0000;stroke-width:1.0;"/><text fill="#000000" font-family="sans-serif" font-size="14" lengthAdjust="spacing" textLength="56" x="585" y="238.3173">Pending</text><text fill="#000000" font-family="sans-serif" font-size="14" lengthAdjust="spacing" textLength="4" x="641" y="238.3173">&#160;</text><text fill="#000000" font-family="sans-serif" font-size="14" lengthAdjust="spacing" textLength="86" x="645" y="238.3173">colonoscopy</text><text fill="#000000" font-family="sans-serif" font-size="14" lengthAdjust="spacing" textLength="38" x="599" y="254.8056">order</text><text fill="#000000" font-family="sans-serif" font-size="14" lengthAdjust="spacing" textLength="4" x="637" y="254.8056">&#160;</text><text fill="#000000" font-family="sans-serif" font-size="14" lengthAdjust="spacing" textLength="15" x="641" y="254.8056">or</text><text fill="#000000" font-family="sans-serif" font-size="14" lengthAdjust="spacing" textLength="4" x="656" y="254.8056">&#160;</text><text fill="#000000" font-family="sans-serif" font-size="14" lengthAdjust="spacing" textLength="57" x="660" y="254.8056">referral?</text></a></g><!--entity act_FollowUpColonoscopy--><g id="elem_act_FollowUpColonoscopy"><a href="#act-FollowUpColonoscopy" target="_top" title="#act-FollowUpColonoscopy" xlink:actuate="onRequest" xlink:href="#act-FollowUpColonoscopy" xlink:show="new" xlink:title="#act-FollowUpColonoscopy" xlink:type="simple"><rect fill="#F1F1F1" height="36.4883" rx="2.5" ry="2.5" style="stroke:#181818;stroke-width:0.5;" width="268" x="337" y="327.7522"/><text fill="#000000" font-family="sans-serif" font-size="14" lengthAdjust="spacing" textLength="90" x="347" y="351.2873">RECOMMEND</text><text fill="#000000" font-family="sans-serif" font-size="14" lengthAdjust="spacing" textLength="4" x="437" y="351.2873">&#160;</text><text fill="#000000" font-family="sans-serif" font-size="14" lengthAdjust="spacing" textLength="42" x="441" y="351.2873">follow</text><text fill="#000000" font-family="sans-serif" font-size="14" lengthAdjust="spacing" textLength="4" x="483" y="351.2873">&#160;</text><text fill="#000000" font-family="sans-serif" font-size="14" lengthAdjust="spacing" textLength="18" x="487" y="351.2873">up</text><text fill="#000000" font-family="sans-serif" font-size="14" lengthAdjust="spacing" textLength="4" x="505" y="351.2873">&#160;</text><text fill="#000000" font-family="sans-serif" font-size="14" lengthAdjust="spacing" textLength="86" x="509" y="351.2873">colonoscopy</text></a></g><!--entity end_1--><g id="elem_end_1"><ellipse cx="471" cy="453.2422" fill="#A4DBD8" rx="8" ry="8" style="stroke:#181818;stroke-width:0.5;"/><text fill="#000000" font-family="sans-serif" font-size="14" lengthAdjust="spacing" textLength="26" x="458" y="483.7773">end</text></g><!--entity act_continueRoutineScreening--><g id="elem_act_continueRoutineScreening"><a href="#act-continueRoutineScreening" target="_top" title="#act-continueRoutineScreening" xlink:actuate="onRequest" xlink:href="#act-continueRoutineScreening" xlink:show="new" xlink:title="#act-continueRoutineScreening" xlink:type="simple"><rect fill="#F1F1F1" height="52.9766" rx="2.5" ry="2.5" style="stroke:#181818;stroke-width:0.5;" width="247" x="229.5" y="214.7822"/><text fill="#000000" font-family="sans-serif" font-size="14" lengthAdjust="spacing" textLength="21" x="239.5" y="238.3173">GO</text><text fill="#000000" font-family="sans-serif" font-size="14" lengthAdjust="spacing" textLength="4" x="260.5" y="238.3173">&#160;</text><text fill="#000000" font-family="sans-serif" font-size="14" lengthAdjust="spacing" textLength="20" x="264.5" y="238.3173">TO</text><text fill="#000000" font-family="sans-serif" font-size="14" lengthAdjust="spacing" textLength="4" x="284.5" y="238.3173">&#160;</text><text fill="#000000" font-family="sans-serif" font-size="14" lengthAdjust="spacing" textLength="76" x="288.5" y="238.3173">"Determine</text><text fill="#000000" font-family="sans-serif" font-size="14" lengthAdjust="spacing" textLength="4" x="364.5" y="238.3173">&#160;</text><text fill="#000000" font-family="sans-serif" font-size="14" lengthAdjust="spacing" textLength="32" x="368.5" y="238.3173">Next</text><text fill="#000000" font-family="sans-serif" font-size="14" lengthAdjust="spacing" textLength="4" x="400.5" y="238.3173">&#160;</text><text fill="#000000" font-family="sans-serif" font-size="14" lengthAdjust="spacing" textLength="27" x="404.5" y="238.3173">Due</text><text fill="#000000" font-family="sans-serif" font-size="14" lengthAdjust="spacing" textLength="4" x="431.5" y="238.3173">&#160;</text><text fill="#000000" font-family="sans-serif" font-size="14" lengthAdjust="spacing" textLength="31" x="435.5" y="238.3173">Date</text><text fill="#000000" font-family="sans-serif" font-size="14" lengthAdjust="spacing" textLength="20" x="268.5" y="254.8056">for</text><text fill="#000000" font-family="sans-serif" font-size="14" lengthAdjust="spacing" textLength="4" x="288.5" y="254.8056">&#160;</text><text fill="#000000" font-family="sans-serif" font-size="14" lengthAdjust="spacing" textLength="73" x="292.5" y="254.8056">Screening"</text><text fill="#000000" font-family="sans-serif" font-size="14" lengthAdjust="spacing" textLength="4" x="365.5" y="254.8056">&#160;</text><text fill="#000000" font-family="sans-serif" font-size="14" lengthAdjust="spacing" textLength="33" x="369.5" y="254.8056">logic</text><text fill="#000000" font-family="sans-serif" font-size="14" lengthAdjust="spacing" textLength="4" x="402.5" y="254.8056">&#160;</text><text fill="#000000" font-family="sans-serif" font-size="14" lengthAdjust="spacing" textLength="31" x="406.5" y="254.8056">path</text></a></g><!--link eve_lastTest to eve_abnormalStoolTest--><g id="link_eve_lastTest_eve_abnormalStoolTest"><path d="M471.78,23.2422 C631.52,23.2422 935,23.2422 935,23.2422 C935,23.2422 935,73.4722 935,105.5522 " fill="none" id="eve_lastTest-to-eve_abnormalStoolTest" style="stroke:#181818;stroke-width:1.0;"/><polygon fill="#181818" points="935,111.5522,939,102.5522,935,106.5522,931,102.5522,935,111.5522" style="stroke:#181818;stroke-width:1.0;"/><text fill="#000000" font-family="sans-serif" font-size="13" lengthAdjust="spacing" textLength="105" x="641.54" y="19.8105">stool-based test</text></g><!--link eve_lastTest to eve_abnormalCTColonography--><g id="link_eve_lastTest_eve_abnormalCTColonography"><path d="M280.29,23.2422 C206.51,23.2422 117,23.2422 117,23.2422 C117,23.2422 117,73.4722 117,105.5522 " fill="none" id="eve_lastTest-to-eve_abnormalCTColonography" style="stroke:#181818;stroke-width:1.0;"/><polygon fill="#181818" points="117,111.5522,121,102.5522,117,106.5522,113,102.5522,117,111.5522" style="stroke:#181818;stroke-width:1.0;"/><text fill="#000000" font-family="sans-serif" font-size="13" lengthAdjust="spacing" textLength="107" x="46.49" y="19.8105">CT colonography</text></g><!--link eve_lastTest to eve_abnormalFlexibleSigmoidoscopy--><g id="link_eve_lastTest_eve_abnormalFlexibleSigmoidoscopy"><path d="M376,52.1522 C376,69.6222 376,88.0122 376,105.4822 " fill="none" id="eve_lastTest-to-eve_abnormalFlexibleSigmoidoscopy" style="stroke:#181818;stroke-width:1.0;"/><polygon fill="#181818" points="376,111.4822,380,102.4822,376,106.4822,372,102.4822,376,111.4822" style="stroke:#181818;stroke-width:1.0;"/><text fill="#000000" font-family="sans-serif" font-size="13" lengthAdjust="spacing" textLength="139" x="236" y="78.3805">flexible sigmoioscopy</text></g><!--link eve_lastTest to eve_abnormalCapsuleColonoscopy--><g id="link_eve_lastTest_eve_abnormalCapsuleColonoscopy"><path d="M469.51,38.2422 C551.6,38.2422 658,38.2422 658,38.2422 C658,38.2422 658,77.6822 658,105.7222 " fill="none" id="eve_lastTest-to-eve_abnormalCapsuleColonoscopy" style="stroke:#181818;stroke-width:1.0;"/><polygon fill="#181818" points="658,111.7222,662,102.7222,658,106.7222,654,102.7222,658,111.7222" style="stroke:#181818;stroke-width:1.0;"/><text fill="#000000" font-family="sans-serif" font-size="13" lengthAdjust="spacing" textLength="132" x="601.49" y="51.8105">capsule colonoscopy</text></g><!--link eve_lastTest to end_1--><g id="link_eve_lastTest_end_1"><path d="M282.61,38.2422 C251.1,38.2422 223.75,38.2422 223.75,38.2422 C223.75,38.2422 223.75,453.2422 223.75,453.2422 C223.75,453.2422 412.16,453.2422 456.2,453.2422 " fill="none" id="eve_lastTest-to-end_1" style="stroke:#181818;stroke-width:1.0;"/><polygon fill="#181818" points="462.2,453.2422,453.2,449.2422,457.2,453.2422,453.2,457.2422,462.2,453.2422" style="stroke:#181818;stroke-width:1.0;"/><text fill="#000000" font-family="sans-serif" font-size="13" lengthAdjust="spacing" textLength="31" x="191.75" y="332.1005">none</text></g><!--link eve_abnormalStoolTest to eve_pendingColonoscopy--><g id="link_eve_abnormalStoolTest_eve_pendingColonoscopy"><path d="M818.39,134.2422 C803.32,134.2422 793,134.2422 793,134.2422 C793,134.2422 793,213.1322 793,231.7022 " fill="none" id="eve_abnormalStoolTest-to-eve_pendingColonoscopy" style="stroke:#181818;stroke-width:1.0;"/><polygon fill="#181818" points="793,237.7022,797,228.7022,793,232.7022,789,228.7022,793,237.7022" style="stroke:#181818;stroke-width:1.0;"/><text fill="#000000" font-family="sans-serif" font-size="13" lengthAdjust="spacing" textLength="21" x="771" y="169.8505">yes</text></g><!--link eve_abnormalStoolTest to act_continueRoutineScreening--><g id="link_eve_abnormalStoolTest_act_continueRoutineScreening"><path d="M935,155.2522 C935,165.4022 935,175.2422 935,175.2422 C935,175.2422 402,175.2422 402,175.2422 C402,175.2422 402,190.1322 402,208.4122 " fill="none" id="eve_abnormalStoolTest-to-act_continueRoutineScreening" style="stroke:#181818;stroke-width:1.0;"/><polygon fill="#181818" points="402,214.4122,406,205.4122,402,209.4122,398,205.4122,402,214.4122" style="stroke:#181818;stroke-width:1.0;"/><text fill="#000000" font-family="sans-serif" font-size="13" lengthAdjust="spacing" textLength="16" x="641.91" y="171.8105">no</text></g><!--link eve_abnormalCTColonography to eve_pendingColonoscopy--><g id="link_eve_abnormalCTColonography_eve_pendingColonoscopy"><path d="M117,154.9622 C117,172.8222 117,195.2422 117,195.2422 C117,195.2422 523,195.2422 523,195.2422 C523,195.2422 523,220.8022 523,231.6522 " fill="none" id="eve_abnormalCTColonography-to-eve_pendingColonoscopy" style="stroke:#181818;stroke-width:1.0;"/><polygon fill="#181818" points="523,237.6522,527,228.6522,523,232.6522,519,228.6522,523,237.6522" style="stroke:#181818;stroke-width:1.0;"/><text fill="#000000" font-family="sans-serif" font-size="13" lengthAdjust="spacing" textLength="21" x="299.06" y="191.8105">yes</text></g><!--link eve_abnormalCTColonography to act_continueRoutineScreening--><g id="link_eve_abnormalCTColonography_act_continueRoutineScreening"><path d="M217,134.2422 C231.28,134.2422 241.25,134.2422 241.25,134.2422 C241.25,134.2422 241.25,176.8322 241.25,208.5322 " fill="none" id="eve_abnormalCTColonography-to-act_continueRoutineScreening" style="stroke:#181818;stroke-width:1.0;"/><polygon fill="#181818" points="241.25,214.5322,245.25,205.5322,241.25,209.5322,237.25,205.5322,241.25,214.5322" style="stroke:#181818;stroke-width:1.0;"/><text fill="#000000" font-family="sans-serif" font-size="13" lengthAdjust="spacing" textLength="16" x="224.25" y="158.8305">no</text></g><!--link eve_abnormalFlexibleSigmoidoscopy to eve_pendingColonoscopy--><g id="link_eve_abnormalFlexibleSigmoidoscopy_eve_pendingColonoscopy"><path d="M487.75,137.6922 C487.75,158.8722 487.75,249.2422 487.75,249.2422 C487.75,249.2422 503.5,249.2422 531.45,249.2422 " fill="none" id="eve_abnormalFlexibleSigmoidoscopy-to-eve_pendingColonoscopy" style="stroke:#181818;stroke-width:1.0;"/><polygon fill="#181818" points="537.45,249.2422,528.45,245.2422,532.45,249.2422,528.45,253.2422,537.45,249.2422" style="stroke:#181818;stroke-width:1.0;"/><text fill="#000000" font-family="sans-serif" font-size="13" lengthAdjust="spacing" textLength="21" x="488.75" y="214.8905">yes</text></g><!--link eve_abnormalFlexibleSigmoidoscopy to act_continueRoutineScreening--><g id="link_eve_abnormalFlexibleSigmoidoscopy_act_continueRoutineScreening"><path d="M327.5,155.1422 C327.5,172.2722 327.5,190.1922 327.5,208.4722 " fill="none" id="eve_abnormalFlexibleSigmoidoscopy-to-act_continueRoutineScreening" style="stroke:#181818;stroke-width:1.0;"/><polygon fill="#181818" points="327.5,214.4722,331.5,205.4722,327.5,209.4722,323.5,205.4722,327.5,214.4722" style="stroke:#181818;stroke-width:1.0;"/><text fill="#000000" font-family="sans-serif" font-size="13" lengthAdjust="spacing" textLength="16" x="328.5" y="181.3805">no</text></g><!--link eve_abnormalCapsuleColonoscopy to eve_pendingColonoscopy--><g id="link_eve_abnormalCapsuleColonoscopy_eve_pendingColonoscopy"><path d="M658,155.1422 C658,173.8722 658,194.7222 658,213.4522 " fill="none" id="eve_abnormalCapsuleColonoscopy-to-eve_pendingColonoscopy" style="stroke:#181818;stroke-width:1.0;"/><polygon fill="#181818" points="658,219.4522,662,210.4522,658,214.4522,654,210.4522,658,219.4522" style="stroke:#181818;stroke-width:1.0;"/><text fill="#000000" font-family="sans-serif" font-size="13" lengthAdjust="spacing" textLength="21" x="636" y="200.8605">yes</text></g><!--link eve_abnormalCapsuleColonoscopy to act_continueRoutineScreening--><g id="link_eve_abnormalCapsuleColonoscopy_act_continueRoutineScreening"><path d="M535.27,134.2422 C517.73,134.2422 505.5,134.2422 505.5,134.2422 C505.5,134.2422 505.5,234.2422 505.5,234.2422 C505.5,234.2422 499.77,234.2422 482.82,234.2422 " fill="none" id="eve_abnormalCapsuleColonoscopy-to-act_continueRoutineScreening" style="stroke:#181818;stroke-width:1.0;"/><polygon fill="#181818" points="476.82,234.2422,485.82,238.2422,481.82,234.2422,485.82,230.2422,476.82,234.2422" style="stroke:#181818;stroke-width:1.0;"/><text fill="#000000" font-family="sans-serif" font-size="13" lengthAdjust="spacing" textLength="16" x="488.5" y="180.2705">no</text></g><!--link eve_pendingColonoscopy to act_FollowUpColonoscopy--><g id="link_eve_pendingColonoscopy_act_FollowUpColonoscopy"><path d="M558.5,255.3922 C558.5,274.0422 558.5,300.9122 558.5,321.5222 " fill="none" id="eve_pendingColonoscopy-to-act_FollowUpColonoscopy" style="stroke:#181818;stroke-width:1.0;"/><polygon fill="#181818" points="558.5,327.5222,562.5,318.5222,558.5,322.5222,554.5,318.5222,558.5,327.5222" style="stroke:#181818;stroke-width:1.0;"/><text fill="#000000" font-family="sans-serif" font-size="13" lengthAdjust="spacing" textLength="16" x="541.5" y="288.0205">no</text></g><!--link eve_pendingColonoscopy to end_1--><g id="link_eve_pendingColonoscopy_end_1"><path d="M704.5,263.1522 C704.5,317.3122 704.5,453.2422 704.5,453.2422 C704.5,453.2422 528.52,453.2422 485.87,453.2422 " fill="none" id="eve_pendingColonoscopy-to-end_1" style="stroke:#181818;stroke-width:1.0;"/><polygon fill="#181818" points="479.87,453.2422,488.87,457.2422,484.87,453.2422,488.87,449.2422,479.87,453.2422" style="stroke:#181818;stroke-width:1.0;"/><text fill="#000000" font-family="sans-serif" font-size="13" lengthAdjust="spacing" textLength="21" x="665.23" y="449.8105">yes</text></g><!--link act_FollowUpColonoscopy to end_1--><g id="link_act_FollowUpColonoscopy_end_1"><path d="M471,364.6822 C471,387.9622 471,420.8222 471,438.2722 " fill="none" id="act_FollowUpColonoscopy-to-end_1" style="stroke:#181818;stroke-width:1.0;"/><polygon fill="#181818" points="471,444.2722,475,435.2722,471,439.2722,467,435.2722,471,444.2722" style="stroke:#181818;stroke-width:1.0;"/></g><!--SRC=[bLDHRzem47xFhpZHPxPrsgGfGanjQBk7KIPWsaDL8UCSYOLZHxQpmQRzzrsQ02asQEGXKUw-k-yx-xjSf0ZMeK7jjYL6TYrKoGmhG0g5TGYqSRcE1jPj9GwZ73Siqmh-H43Fc6r4KHK_HEho6Au_leENy2tZwmUZAvKcMceJmys7qUteKvFyIetdkU1hXTPIqI7QWWscJUoBDkAtLex96oaoLQ1oCN1weud-HWQvOogJ6DJoVgVbV9CtgDAstXDzrQWcrE3jqVIziRQEXDPz89acOBb1L49buD2w7Z0B-1CNabatfm0yFLtHVt_t__nyQ7MpLDeKJD8rQ2txIsPf_hhBvtqRra9cDQBRpqi46oTpu3IIqfbXPRxr-oRpf9C_Rluw6sHOITo89Ls55LcXHQejrsM0wBx5pRgmOxuWA4ZBMMahOcscEy6PDA3aWF46z11TjczaaVfYEoIq4oaQUfC5LcWCamVQie47wFmCqHnSt9lU9PFn-Evn12ijfVu5LTabVM5Wt2tkNxBVooCAIlK3AUBWml2QWFWRcIfTNCDWGD_XiAlWOGBp2VH6ICjHq4B28suSZ2g44ND8iWpCTaRlWTIPu50ob- -bSLeqeIgSweg-k0Vlz9tAayZkklJxmw3jOsz7pfMzzcryl0RdIeCMZ8zjteJFIl2S5OTCwxMeBoW6fHL6mODeQNn7nR15UxBct1NLTD7fuxk0qIkyY3Puz1Umdwg_R7RltYwPFrJyN_H-zxOoiDVdYre7rT9ErEz0_m00]--></g></svg>