<svg xmlns="http://www.w3.org/2000/svg" xmlns:xlink="http://www.w3.org/1999/xlink" contentStyleType="text/css" height="859px" preserveAspectRatio="none" style="width:927px;height:859px;background:#FFFFFF;" version="1.1" viewBox="0 0 927 859" width="927px" zoomAndPan="magnify"><defs/><g><!--entity eve_lastTestColonoscopy--><g id="elem_eve_lastTestColonoscopy"><a href="#eve-lastTestColonoscopy" target="_top" title="#eve-lastTestColonoscopy" xlink:actuate="onRequest" xlink:href="#eve-lastTestColonoscopy" xlink:show="new" xlink:title="#eve-lastTestColonoscopy" xlink:type="simple"><polygon fill="#A4DBD8" points="910.5,37.5,856.5,6,748.5,6,694.5,37.5,748.5,69,856.5,69,910.5,37.5" style="stroke:#FF0000;stroke-width:1.0;"/><text fill="#000000" font-family="sans-serif" font-size="14" lengthAdjust="spacing" textLength="30" x="748.5" y="25.5332">Most</text><text fill="#000000" font-family="sans-serif" font-size="14" lengthAdjust="spacing" textLength="4" x="778.5" y="25.5332">&#160;</text><text fill="#000000" font-family="sans-serif" font-size="14" lengthAdjust="spacing" textLength="40" x="782.5" y="25.5332">recent</text><text fill="#000000" font-family="sans-serif" font-size="14" lengthAdjust="spacing" textLength="4" x="822.5" y="25.5332">&#160;</text><text fill="#000000" font-family="sans-serif" font-size="14" lengthAdjust="spacing" textLength="30" x="826.5" y="25.5332">CRC</text><text fill="#000000" font-family="sans-serif" font-size="14" lengthAdjust="spacing" textLength="62" x="751" y="43.1426">screening</text><text fill="#000000" font-family="sans-serif" font-size="14" lengthAdjust="spacing" textLength="4" x="813" y="43.1426">&#160;</text><text fill="#000000" font-family="sans-serif" font-size="14" lengthAdjust="spacing" textLength="23" x="817" y="43.1426">test</text><text fill="#000000" font-family="sans-serif" font-size="14" lengthAdjust="spacing" textLength="4" x="840" y="43.1426">&#160;</text><text fill="#000000" font-family="sans-serif" font-size="14" lengthAdjust="spacing" textLength="10" x="844" y="43.1426">is</text><text fill="#000000" font-family="sans-serif" font-size="14" lengthAdjust="spacing" textLength="87" x="759" y="60.752">colonoscopy?</text></a></g><!--entity eve_colonoscopyFindingCRC--><g id="elem_eve_colonoscopyFindingCRC"><a href="#eve-colonoscopyFindingCRC" target="_top" title="#eve-colonoscopyFindingCRC" xlink:actuate="onRequest" xlink:href="#eve-colonoscopyFindingCRC" xlink:show="new" xlink:title="#eve-colonoscopyFindingCRC" xlink:type="simple"><polygon fill="#A4DBD8" points="848.5,151.5,776.5,129,632.5,129,560.5,151.5,632.5,174,776.5,174,848.5,151.5" style="stroke:#FF0000;stroke-width:1.0;"/><text fill="#000000" font-family="sans-serif" font-size="14" lengthAdjust="spacing" textLength="82" x="632.5" y="148.5332">Colonoscopy</text><text fill="#000000" font-family="sans-serif" font-size="14" lengthAdjust="spacing" textLength="4" x="714.5" y="148.5332">&#160;</text><text fill="#000000" font-family="sans-serif" font-size="14" lengthAdjust="spacing" textLength="42" x="718.5" y="148.5332">finding</text><text fill="#000000" font-family="sans-serif" font-size="14" lengthAdjust="spacing" textLength="4" x="760.5" y="148.5332">&#160;</text><text fill="#000000" font-family="sans-serif" font-size="14" lengthAdjust="spacing" textLength="12" x="764.5" y="148.5332">of</text><text fill="#000000" font-family="sans-serif" font-size="14" lengthAdjust="spacing" textLength="61" x="646.5" y="166.1426">colorectal</text><text fill="#000000" font-family="sans-serif" font-size="14" lengthAdjust="spacing" textLength="4" x="707.5" y="166.1426">&#160;</text><text fill="#000000" font-family="sans-serif" font-size="14" lengthAdjust="spacing" textLength="51" x="711.5" y="166.1426">cancer?</text></a></g><!--entity eve_recommendedInterval--><g id="elem_eve_recommendedInterval"><a href="#eve-recommendedInterval" target="_top" title="#eve-recommendedInterval" xlink:actuate="onRequest" xlink:href="#eve-recommendedInterval" xlink:show="new" xlink:title="#eve-recommendedInterval" xlink:type="simple"><polygon fill="#A4DBD8" points="690.5,256.5,616.5,234,468.5,234,394.5,256.5,468.5,279,616.5,279,690.5,256.5" style="stroke:#FF0000;stroke-width:1.0;"/><text fill="#000000" font-family="sans-serif" font-size="14" lengthAdjust="spacing" textLength="77" x="504" y="253.5332">Endoscopist</text><text fill="#000000" font-family="sans-serif" font-size="14" lengthAdjust="spacing" textLength="90" x="468.5" y="271.1426">recommended</text><text fill="#000000" font-family="sans-serif" font-size="14" lengthAdjust="spacing" textLength="4" x="558.5" y="271.1426">&#160;</text><text fill="#000000" font-family="sans-serif" font-size="14" lengthAdjust="spacing" textLength="54" x="562.5" y="271.1426">interval?</text></a></g><!--entity eve_colonoscopyFindingPolyps--><g id="elem_eve_colonoscopyFindingPolyps"><a href="#eve-colonoscopyFindingPolyps" target="_top" title="#eve-colonoscopyFindingPolyps" xlink:actuate="onRequest" xlink:href="#eve-colonoscopyFindingPolyps" xlink:show="new" xlink:title="#eve-colonoscopyFindingPolyps" xlink:type="simple"><polygon fill="#A4DBD8" points="520.5,361.5,448,339,303,339,230.5,361.5,303,384,448,384,520.5,361.5" style="stroke:#FF0000;stroke-width:1.0;"/><text fill="#000000" font-family="sans-serif" font-size="14" lengthAdjust="spacing" textLength="82" x="303" y="358.5332">Colonoscopy</text><text fill="#000000" font-family="sans-serif" font-size="14" lengthAdjust="spacing" textLength="4" x="385" y="358.5332">&#160;</text><text fill="#000000" font-family="sans-serif" font-size="14" lengthAdjust="spacing" textLength="59" x="389" y="358.5332">finding(s)</text><text fill="#000000" font-family="sans-serif" font-size="14" lengthAdjust="spacing" textLength="12" x="304" y="376.1426">of</text><text fill="#000000" font-family="sans-serif" font-size="14" lengthAdjust="spacing" textLength="4" x="316" y="376.1426">&#160;</text><text fill="#000000" font-family="sans-serif" font-size="14" lengthAdjust="spacing" textLength="64" x="320" y="376.1426">neoplastic</text><text fill="#000000" font-family="sans-serif" font-size="14" lengthAdjust="spacing" textLength="4" x="384" y="376.1426">&#160;</text><text fill="#000000" font-family="sans-serif" font-size="14" lengthAdjust="spacing" textLength="59" x="388" y="376.1426">polyp(s)?</text></a></g><!--entity eve_adequateBowelPrep--><g id="elem_eve_adequateBowelPrep"><a href="#eve-adequateBowelPrep" target="_top" title="#eve-adequateBowelPrep" xlink:actuate="onRequest" xlink:href="#eve-adequateBowelPrep" xlink:show="new" xlink:title="#eve-adequateBowelPrep" xlink:type="simple"><polygon fill="#A4DBD8" points="337.5,471.5,287,449,186,449,135.5,471.5,186,494,287,494,337.5,471.5" style="stroke:#FF0000;stroke-width:1.0;"/><text fill="#000000" font-family="sans-serif" font-size="14" lengthAdjust="spacing" textLength="61" x="186" y="468.5332">Adequate</text><text fill="#000000" font-family="sans-serif" font-size="14" lengthAdjust="spacing" textLength="4" x="247" y="468.5332">&#160;</text><text fill="#000000" font-family="sans-serif" font-size="14" lengthAdjust="spacing" textLength="36" x="251" y="468.5332">bowel</text><text fill="#000000" font-family="sans-serif" font-size="14" lengthAdjust="spacing" textLength="81" x="196" y="486.1426">preparation?</text></a></g><!--entity eve_cecalIntubation--><g id="elem_eve_cecalIntubation"><a href="#eve-cecalIntubation" target="_top" title="#eve-cecalIntubation" xlink:actuate="onRequest" xlink:href="#eve-cecalIntubation" xlink:show="new" xlink:title="#eve-cecalIntubation" xlink:type="simple"><polygon fill="#A4DBD8" points="266.5,586.5,223,564,136,564,92.5,586.5,136,609,223,609,266.5,586.5" style="stroke:#FF0000;stroke-width:1.0;"/><text fill="#000000" font-family="sans-serif" font-size="14" lengthAdjust="spacing" textLength="60" x="149.5" y="583.5332">Complete</text><text fill="#000000" font-family="sans-serif" font-size="14" lengthAdjust="spacing" textLength="87" x="136" y="601.1426">colonoscopy?</text></a></g><!--entity act_updateDueDatePerInterval--><g id="elem_act_updateDueDatePerInterval"><a href="#act-updateDueDatePerInterval" target="_top" title="#act-updateDueDatePerInterval" xlink:actuate="onRequest" xlink:href="#act-updateDueDatePerInterval" xlink:show="new" xlink:title="#act-updateDueDatePerInterval" xlink:type="simple"><rect fill="#F1F1F1" height="55.2188" rx="2.5" ry="2.5" style="stroke:#181818;stroke-width:0.5;" width="259" x="444" y="559"/><text fill="#000000" font-family="sans-serif" font-size="14" lengthAdjust="spacing" textLength="114" x="454" y="583.5332">Recommendation:</text><text fill="#000000" font-family="sans-serif" font-size="14" lengthAdjust="spacing" textLength="4" x="568" y="583.5332">&#160;</text><text fill="#000000" font-family="sans-serif" font-size="14" lengthAdjust="spacing" textLength="45" x="572" y="583.5332">Update</text><text fill="#000000" font-family="sans-serif" font-size="14" lengthAdjust="spacing" textLength="4" x="617" y="583.5332">&#160;</text><text fill="#000000" font-family="sans-serif" font-size="14" lengthAdjust="spacing" textLength="24" x="621" y="583.5332">due</text><text fill="#000000" font-family="sans-serif" font-size="14" lengthAdjust="spacing" textLength="4" x="645" y="583.5332">&#160;</text><text fill="#000000" font-family="sans-serif" font-size="14" lengthAdjust="spacing" textLength="28" x="649" y="583.5332">date</text><text fill="#000000" font-family="sans-serif" font-size="14" lengthAdjust="spacing" textLength="4" x="677" y="583.5332">&#160;</text><text fill="#000000" font-family="sans-serif" font-size="14" lengthAdjust="spacing" textLength="12" x="681" y="583.5332">to</text><text fill="#000000" font-family="sans-serif" font-size="14" lengthAdjust="spacing" textLength="90" x="503.5" y="601.1426">recommended</text><text fill="#000000" font-family="sans-serif" font-size="14" lengthAdjust="spacing" textLength="4" x="593.5" y="601.1426">&#160;</text><text fill="#000000" font-family="sans-serif" font-size="14" lengthAdjust="spacing" textLength="46" x="597.5" y="601.1426">interval</text></a></g><!--entity act_continueRoutineScreening--><g id="elem_act_continueRoutineScreening"><a href="#act-continueRoutineScreening" target="_top" title="#act-continueRoutineScreening" xlink:actuate="onRequest" xlink:href="#act-continueRoutineScreening" xlink:show="new" xlink:title="#act-continueRoutineScreening" xlink:type="simple"><rect fill="#F1F1F1" height="55.2188" rx="2.5" ry="2.5" style="stroke:#181818;stroke-width:0.5;" width="243" x="7" y="674"/><text fill="#000000" font-family="sans-serif" font-size="14" lengthAdjust="spacing" textLength="114" x="17" y="698.5332">Recommendation:</text><text fill="#000000" font-family="sans-serif" font-size="14" lengthAdjust="spacing" textLength="4" x="131" y="698.5332">&#160;</text><text fill="#000000" font-family="sans-serif" font-size="14" lengthAdjust="spacing" textLength="57" x="135" y="698.5332">Continue</text><text fill="#000000" font-family="sans-serif" font-size="14" lengthAdjust="spacing" textLength="4" x="192" y="698.5332">&#160;</text><text fill="#000000" font-family="sans-serif" font-size="14" lengthAdjust="spacing" textLength="44" x="196" y="698.5332">routine</text><text fill="#000000" font-family="sans-serif" font-size="14" lengthAdjust="spacing" textLength="62" x="97.5" y="716.1426">screening</text></a></g><!--entity act_oncologyReferral--><g id="elem_act_oncologyReferral"><a href="#act-oncologyReferral" target="_top" title="#act-oncologyReferral" xlink:actuate="onRequest" xlink:href="#act-oncologyReferral" xlink:show="new" xlink:title="#act-oncologyReferral" xlink:type="simple"><rect fill="#F1F1F1" height="55.2188" rx="2.5" ry="2.5" style="stroke:#181818;stroke-width:0.5;" width="210" x="638.5" y="444"/><text fill="#000000" font-family="sans-serif" font-size="14" lengthAdjust="spacing" textLength="114" x="648.5" y="468.5332">Recommendation:</text><text fill="#000000" font-family="sans-serif" font-size="14" lengthAdjust="spacing" textLength="4" x="762.5" y="468.5332">&#160;</text><text fill="#000000" font-family="sans-serif" font-size="14" lengthAdjust="spacing" textLength="51" x="766.5" y="468.5332">Referral</text><text fill="#000000" font-family="sans-serif" font-size="14" lengthAdjust="spacing" textLength="4" x="817.5" y="468.5332">&#160;</text><text fill="#000000" font-family="sans-serif" font-size="14" lengthAdjust="spacing" textLength="17" x="821.5" y="468.5332">for</text><text fill="#000000" font-family="sans-serif" font-size="14" lengthAdjust="spacing" textLength="57" x="680.5" y="486.1426">oncology</text><text fill="#000000" font-family="sans-serif" font-size="14" lengthAdjust="spacing" textLength="4" x="737.5" y="486.1426">&#160;</text><text fill="#000000" font-family="sans-serif" font-size="14" lengthAdjust="spacing" textLength="65" x="741.5" y="486.1426">evaluation</text></a></g><!--entity act_followUpColonoscopist--><g id="elem_act_followUpColonoscopist"><a href="#act-followUpColonoscopist" target="_top" title="#act-followUpColonoscopist" xlink:actuate="onRequest" xlink:href="#act-followUpColonoscopist" xlink:show="new" xlink:title="#act-followUpColonoscopist" xlink:type="simple"><rect fill="#F1F1F1" height="55.2188" rx="2.5" ry="2.5" style="stroke:#181818;stroke-width:0.5;" width="227" x="285" y="674"/><text fill="#000000" font-family="sans-serif" font-size="14" lengthAdjust="spacing" textLength="114" x="295" y="698.5332">Recommendation:</text><text fill="#000000" font-family="sans-serif" font-size="14" lengthAdjust="spacing" textLength="4" x="409" y="698.5332">&#160;</text><text fill="#000000" font-family="sans-serif" font-size="14" lengthAdjust="spacing" textLength="61" x="413" y="698.5332">Follow-up</text><text fill="#000000" font-family="sans-serif" font-size="14" lengthAdjust="spacing" textLength="4" x="474" y="698.5332">&#160;</text><text fill="#000000" font-family="sans-serif" font-size="14" lengthAdjust="spacing" textLength="24" x="478" y="698.5332">with</text><text fill="#000000" font-family="sans-serif" font-size="14" lengthAdjust="spacing" textLength="76" x="360.5" y="716.1426">endoscopist</text></a></g><!--entity end_1--><g id="elem_end_1"><ellipse cx="573.5" cy="819" fill="#A4DBD8" rx="8" ry="8" style="stroke:#181818;stroke-width:0.5;"/><text fill="#000000" font-family="sans-serif" font-size="14" lengthAdjust="spacing" textLength="24" x="561.5" y="850.5332">end</text></g><!--link eve_lastTestColonoscopy to eve_colonoscopyFindingCRC--><g id="link_eve_lastTestColonoscopy_eve_colonoscopyFindingCRC"><path d="M771.5,69.26 C771.5,88.23 771.5,105.88 771.5,122.94 " fill="none" id="eve_lastTestColonoscopy-to-eve_colonoscopyFindingCRC" style="stroke:#181818;stroke-width:1.0;"/><polygon fill="#181818" points="771.5,128.94,775.5,119.94,771.5,123.94,767.5,119.94,771.5,128.94" style="stroke:#181818;stroke-width:1.0;"/><text fill="#000000" font-family="sans-serif" font-size="13" lengthAdjust="spacing" textLength="21" x="749.5" y="95.5951">yes</text></g><!--link eve_lastTestColonoscopy to end_1--><g id="link_eve_lastTestColonoscopy_end_1"><path d="M879.5,55.9 C879.5,174.74 879.5,829 879.5,829 C879.5,829 584.26,829 579.56,829 " fill="none" id="eve_lastTestColonoscopy-to-end_1" style="stroke:#181818;stroke-width:1.0;"/><polygon fill="#181818" points="573.56,829,582.56,833,578.56,829,582.56,825,573.56,829" style="stroke:#181818;stroke-width:1.0;"/><text fill="#000000" font-family="sans-serif" font-size="13" lengthAdjust="spacing" textLength="14" x="864.5" y="591.9151">no</text></g><!--link eve_colonoscopyFindingCRC to act_oncologyReferral--><g id="link_eve_colonoscopyFindingCRC_act_oncologyReferral"><path d="M769.5,174 C769.5,231.05 769.5,375.22 769.5,437.66 " fill="none" id="eve_colonoscopyFindingCRC-to-act_oncologyReferral" style="stroke:#181818;stroke-width:1.0;"/><polygon fill="#181818" points="769.5,443.66,773.5,434.66,769.5,438.66,765.5,434.66,769.5,443.66" style="stroke:#181818;stroke-width:1.0;"/><text fill="#000000" font-family="sans-serif" font-size="13" lengthAdjust="spacing" textLength="21" x="747.5" y="305.3251">yes</text></g><!--link eve_colonoscopyFindingCRC to eve_recommendedInterval--><g id="link_eve_colonoscopyFindingCRC_eve_recommendedInterval"><path d="M625.5,171.99 C625.5,190.61 625.5,211.92 625.5,230.41 " fill="none" id="eve_colonoscopyFindingCRC-to-eve_recommendedInterval" style="stroke:#181818;stroke-width:1.0;"/><polygon fill="#181818" points="625.5,236.41,629.5,227.41,625.5,231.41,621.5,227.41,625.5,236.41" style="stroke:#181818;stroke-width:1.0;"/><text fill="#000000" font-family="sans-serif" font-size="13" lengthAdjust="spacing" textLength="14" x="610.5" y="200.6951">no</text></g><!--link eve_recommendedInterval to act_updateDueDatePerInterval--><g id="link_eve_recommendedInterval_act_updateDueDatePerInterval"><path d="M579.5,279.18 C579.5,337.87 579.5,488.56 579.5,552.62 " fill="none" id="eve_recommendedInterval-to-act_updateDueDatePerInterval" style="stroke:#181818;stroke-width:1.0;"/><polygon fill="#181818" points="579.5,558.62,583.5,549.62,579.5,553.62,575.5,549.62,579.5,558.62" style="stroke:#181818;stroke-width:1.0;"/><text fill="#000000" font-family="sans-serif" font-size="13" lengthAdjust="spacing" textLength="21" x="557.5" y="415.3951">yes</text></g><!--link eve_recommendedInterval to eve_colonoscopyFindingPolyps--><g id="link_eve_recommendedInterval_eve_colonoscopyFindingPolyps"><path d="M457.5,275.76 C457.5,294.47 457.5,316.74 457.5,335.65 " fill="none" id="eve_recommendedInterval-to-eve_colonoscopyFindingPolyps" style="stroke:#181818;stroke-width:1.0;"/><polygon fill="#181818" points="457.5,341.65,461.5,332.65,457.5,336.65,453.5,332.65,457.5,341.65" style="stroke:#181818;stroke-width:1.0;"/><text fill="#000000" font-family="sans-serif" font-size="13" lengthAdjust="spacing" textLength="14" x="442.5" y="305.1951">no</text></g><!--link eve_colonoscopyFindingPolyps to act_followUpColonoscopist--><g id="link_eve_colonoscopyFindingPolyps_act_followUpColonoscopist"><path d="M390.75,384.07 C390.75,444.14 390.75,601.79 390.75,667.57 " fill="none" id="eve_colonoscopyFindingPolyps-to-act_followUpColonoscopist" style="stroke:#181818;stroke-width:1.0;"/><polygon fill="#181818" points="390.75,673.57,394.75,664.57,390.75,668.57,386.75,664.57,390.75,673.57" style="stroke:#181818;stroke-width:1.0;"/><text fill="#000000" font-family="sans-serif" font-size="13" lengthAdjust="spacing" textLength="21" x="368.75" y="525.3151">yes</text></g><!--link eve_colonoscopyFindingPolyps to eve_adequateBowelPrep--><g id="link_eve_colonoscopyFindingPolyps_eve_adequateBowelPrep"><path d="M284,378.21 C284,397.08 284,421.89 284,442.9 " fill="none" id="eve_colonoscopyFindingPolyps-to-eve_adequateBowelPrep" style="stroke:#181818;stroke-width:1.0;"/><polygon fill="#181818" points="284,448.9,288,439.9,284,443.9,280,439.9,284,448.9" style="stroke:#181818;stroke-width:1.0;"/><text fill="#000000" font-family="sans-serif" font-size="13" lengthAdjust="spacing" textLength="14" x="269" y="410.0451">no</text></g><!--link eve_adequateBowelPrep to eve_cecalIntubation--><g id="link_eve_adequateBowelPrep_eve_cecalIntubation"><path d="M201,494.22 C201,514.38 201,537.68 201,557.83 " fill="none" id="eve_adequateBowelPrep-to-eve_cecalIntubation" style="stroke:#181818;stroke-width:1.0;"/><polygon fill="#181818" points="201,563.83,205,554.83,201,558.83,197,554.83,201,563.83" style="stroke:#181818;stroke-width:1.0;"/><text fill="#000000" font-family="sans-serif" font-size="13" lengthAdjust="spacing" textLength="21" x="179" y="525.5151">yes</text></g><!--link eve_adequateBowelPrep to act_followUpColonoscopist--><g id="link_eve_adequateBowelPrep_act_followUpColonoscopist"><path d="M311.25,483.22 C311.25,518.37 311.25,617.58 311.25,667.99 " fill="none" id="eve_adequateBowelPrep-to-act_followUpColonoscopist" style="stroke:#181818;stroke-width:1.0;"/><polygon fill="#181818" points="311.25,673.99,315.25,664.99,311.25,668.99,307.25,664.99,311.25,673.99" style="stroke:#181818;stroke-width:1.0;"/><text fill="#000000" font-family="sans-serif" font-size="13" lengthAdjust="spacing" textLength="14" x="296.25" y="575.0951">no</text></g><!--link eve_cecalIntubation to act_continueRoutineScreening--><g id="link_eve_cecalIntubation_act_continueRoutineScreening"><path d="M171.25,609.22 C171.25,627.81 171.25,648.17 171.25,667.96 " fill="none" id="eve_cecalIntubation-to-act_continueRoutineScreening" style="stroke:#181818;stroke-width:1.0;"/><polygon fill="#181818" points="171.25,673.96,175.25,664.96,171.25,668.96,167.25,664.96,171.25,673.96" style="stroke:#181818;stroke-width:1.0;"/><text fill="#000000" font-family="sans-serif" font-size="13" lengthAdjust="spacing" textLength="21" x="149.25" y="638.0851">yes</text></g><!--link eve_cecalIntubation to act_followUpColonoscopist--><g id="link_eve_cecalIntubation_act_followUpColonoscopist"><path d="M258.25,590.89 C258.25,611.98 258.25,702 258.25,702 C258.25,702 263.19,702 278.96,702 " fill="none" id="eve_cecalIntubation-to-act_followUpColonoscopist" style="stroke:#181818;stroke-width:1.0;"/><polygon fill="#181818" points="284.96,702,275.96,698,279.96,702,275.96,706,284.96,702" style="stroke:#181818;stroke-width:1.0;"/><text fill="#000000" font-family="sans-serif" font-size="13" lengthAdjust="spacing" textLength="14" x="243.25" y="656.2951">no</text></g><!--link act_updateDueDatePerInterval to end_1--><g id="link_act_updateDueDatePerInterval_end_1"><path d="M582.5,614.08 C582.5,666.29 582.5,771.23 582.5,803.82 " fill="none" id="act_updateDueDatePerInterval-to-end_1" style="stroke:#181818;stroke-width:1.0;"/><polygon fill="#181818" points="582.5,809.82,586.5,800.82,582.5,804.82,578.5,800.82,582.5,809.82" style="stroke:#181818;stroke-width:1.0;"/></g><!--link act_continueRoutineScreening to end_1--><g id="link_act_continueRoutineScreening_end_1"><path d="M128.5,729.05 C128.5,763.78 128.5,819 128.5,819 C128.5,819 494.3,819 558.21,819 " fill="none" id="act_continueRoutineScreening-to-end_1" style="stroke:#181818;stroke-width:1.0;"/><polygon fill="#181818" points="564.21,819,555.21,815,559.21,819,555.21,823,564.21,819" style="stroke:#181818;stroke-width:1.0;"/></g><!--link act_oncologyReferral to end_1--><g id="link_act_oncologyReferral_end_1"><path d="M775.75,499.12 C775.75,579.72 775.75,809 775.75,809 C775.75,809 585.77,809 579.65,809 " fill="none" id="act_oncologyReferral-to-end_1" style="stroke:#181818;stroke-width:1.0;"/><polygon fill="#181818" points="573.65,809,582.65,813,578.65,809,582.65,805,573.65,809" style="stroke:#181818;stroke-width:1.0;"/></g><!--link act_followUpColonoscopist to end_1--><g id="link_act_followUpColonoscopist_end_1"><path d="M512.43,702 C541.4,702 564.5,702 564.5,702 C564.5,702 564.5,776.24 564.5,803.82 " fill="none" id="act_followUpColonoscopist-to-end_1" style="stroke:#181818;stroke-width:1.0;"/><polygon fill="#181818" points="564.5,809.82,568.5,800.82,564.5,804.82,560.5,800.82,564.5,809.82" style="stroke:#181818;stroke-width:1.0;"/></g><!--SRC=[XPJVRnen3CVVxw-mwClsmBPEcpGXn5HWtIQjKiLQxQ6ggZHd828ajoHNIgVzxtFkLmx8tP3WKBwsFxPZtrga2DQXGUts6IPs8rJ63Dk250hz4MZZrZePMxUNE4dM-CnMMi6V1EXpnPx5Dj_-4gbRZ-3yupieZgUCRxuQdQjqfgKs8xZuC9_EFvNY3mfyinPyez1QSWgdbR71j3pxferuqSenUI75IcrHkH5m-aMJ_4qCSiVKIc8qb_TrBlr1tg1AA_-JfC_AhCbg_FQe-i6LjeuIzN5WjfY1vGPH2RK2XwG82vo2A6svplQV1y0iu1C-I6RT3HdCWWXtTsSa3IFI_Nq0jZsMGgKUfPS5fMY41CuKHnDOhGGkImUVQ4MBYctU5vKMiYZhr5jgN4eN8tpZdfWCd9RwlH9hIaJwJqslx6jVbaAT-OO83fcM-uoE-mgxzZQskxPIRwClKloTCuVmg7Se8JFefzu9hGA7LJPJRt9D5ZNWH3WiQfj9fCZH0U38cQHUv8y5h4dvy9ZYXUaUBEek5je8RhFKPvxczFL_d8xUKC5at3taXVqynpazhj6qRudqOPVUdyMCTaeeoe5MXlvWM846p2kJHMdnizcH2jobzuCNk4HZAFsbDg2LR_DgJyrbCYyi6dojDGuLzlYy7tUffTGxQXBiX5i3XhreGCl2v3OBy-otfg95HK9oORZdKS1oEbJwS0xZCJqdawJZPJ4SJZfNUmHxj7sE7Z02fPFE46GLQro8tENLyHveQ16jOdKDNs36VVjU13r5bWOLEterVSKstj7NGuCzKUfy3xSya68EFGdMrHs6gtowbgfLLzIlczLtJVLS9Nte0wFZuJeGeqdK5ly0]--></g></svg>